<?xml version="1.0" encoding="UTF-8"?>
<svg width="32px" height="37px" viewBox="0 0 32 37" version="1.1" xmlns="http://www.w3.org/2000/svg" xmlns:xlink="http://www.w3.org/1999/xlink">
    <!-- Generator: Sketch 53.2 (72643) - https://sketchapp.com -->
    <title>doc</title>
    <desc>Created with Sketch.</desc>
    <g id="Page-1" stroke="none" stroke-width="1" fill="none" fill-rule="evenodd">
        <g id="Meeting-Detail" transform="translate(-68.000000, -599.000000)" fill-rule="nonzero">
            <g id="Group-3" transform="translate(68.000000, 398.000000)">
                <g id="Group-14-Copy-3" transform="translate(0.000000, 201.000000)">
                    <g id="Group-13">
                        <g id="doc" transform="translate(0.000000, -0.000000)">
                            <path d="M6.85714286,0 C5.6,0 4.57142857,1.02857143 4.57142857,2.28571429 L4.57142857,34.2857143 C4.57142857,35.5428571 5.6,36.5714286 6.85714286,36.5714286 L29.7142857,36.5714286 C30.9714286,36.5714286 32,35.5428571 32,34.2857143 L32,9.14285714 L22.8571429,0 L6.85714286,0 Z" id="Path" fill="#E2E5E7"></path>
                            <path d="M25.1428571,9.14285714 L32,9.14285714 L22.8571429,0 L22.8571429,6.85714286 C22.8571429,8.11428571 23.8857143,9.14285714 25.1428571,9.14285714 Z" id="Path" fill="#B0B7BD"></path>
                            <polygon id="Path" fill="#CAD1D8" points="32 16 25.1428571 9.14285714 32 9.14285714"></polygon>
                            <path d="M27.4285714,29.7142857 C27.4285714,30.3428571 26.9142857,30.8571429 26.2857143,30.8571429 L1.14285714,30.8571429 C0.514285714,30.8571429 0,30.3428571 0,29.7142857 L0,18.2857143 C0,17.6571429 0.514285714,17.1428571 1.14285714,17.1428571 L26.2857143,17.1428571 C26.9142857,17.1428571 27.4285714,17.6571429 27.4285714,18.2857143 L27.4285714,29.7142857 Z" id="Path" fill="#50BEE8"></path>
                            <g id="Group" transform="translate(3.642857, 20.857143)" fill="#FFFFFF">
                                <path d="M0.684,6.57142857 C0.382285714,6.57142857 0.0531428571,6.40571429 0.0531428571,6.00457143 L0.0531428571,0.814857143 C0.0531428571,0.485714286 0.382285714,0.248 0.684,0.248 L2.77657143,0.248 C6.95257143,0.248 6.86,6.57142857 2.85771429,6.57142857 L0.684,6.57142857 L0.684,6.57142857 Z M1.26,1.36228571 L1.26,5.456 L2.77657143,5.456 C5.244,5.456 5.35257143,1.36228571 2.77657143,1.36228571 L1.26,1.36228571 Z" id="Shape"></path>
                                <path d="M10.3571429,6.66285714 C8.66685714,6.736 6.91142857,5.61142857 6.91142857,3.37257143 C6.91142857,1.12457143 8.66571429,0.0194285714 10.3571429,0.0194285714 C11.956,0.100571429 13.628,1.20685714 13.628,3.37257143 C13.628,5.53942857 11.956,6.66285714 10.3571429,6.66285714 Z M10.2565714,1.208 C9.23257143,1.208 8.11828571,1.93028571 8.11828571,3.37371429 C8.11828571,4.80914286 9.23371429,5.54057143 10.2565714,5.54057143 C11.308,5.54057143 12.4314286,4.80914286 12.4314286,3.37371429 C12.4314286,1.92914286 11.308,1.208 10.2565714,1.208 Z" id="Shape"></path>
                                <path d="M14.7034286,3.36342857 C14.7034286,1.6 15.8097143,0.0834285714 17.9114286,0.0834285714 C18.7068571,0.0834285714 19.3377143,0.321142857 20.004,0.897142857 C20.2508571,1.12457143 20.2782857,1.52685714 20.0314286,1.78285714 C19.7845714,2.00114286 19.4097143,1.97485714 19.1902857,1.75542857 C18.8165714,1.36228571 18.4325714,1.25371429 17.9114286,1.25371429 C16.5045714,1.25371429 15.8291429,2.25028571 15.8291429,3.36457143 C15.8291429,4.49828571 16.4954286,5.53942857 17.9114286,5.53942857 C18.4325714,5.53942857 18.9171429,5.328 19.3377143,4.95428571 C19.62,4.73485714 20.0131429,4.84342857 20.1777143,5.064 C20.324,5.26514286 20.396,5.60342857 20.0771429,5.92228571 C19.4371429,6.51771429 18.6702857,6.63657143 17.9102857,6.63657143 C15.7,6.63657143 14.7034286,5.12685714 14.7034286,3.36342857 Z" id="Path"></path>
                            </g>
                            <path d="M26.2857143,30.8571429 L4.57142857,30.8571429 L4.57142857,32 L26.2857143,32 C26.9142857,32 27.4285714,31.4857143 27.4285714,30.8571429 L27.4285714,29.7142857 C27.4285714,30.3428571 26.9142857,30.8571429 26.2857143,30.8571429 Z" id="Path" fill="#CAD1D8"></path>
                        </g>
                    </g>
                </g>
            </g>
        </g>
    </g>
</svg>