<svg xmlns="http://www.w3.org/2000/svg" xmlns:xlink="http://www.w3.org/1999/xlink" width="22" height="12" viewBox="0 0 22 12">
    <defs>
        <path id="6f0gf0qqya" d="M11.65 5.001c-.95-2.69-3.75-4.5-6.88-3.88-2.29.46-4.15 2.29-4.63 4.58-.82 3.87 2.12 7.3 5.86 7.3 2.61 0 4.83-1.67 5.65-4H16v2c0 1.1.9 2 2 2s2-.9 2-2v-2c1.1 0 2-.9 2-2s-.9-2-2-2h-8.35zm-5.65 4c-1.1 0-2-.9-2-2s.9-2 2-2 2 .9 2 2-.9 2-2 2z"/>
    </defs>
    <g fill="none" fill-rule="evenodd">
        <g>
            <g>
                <g transform="translate(-536 -387) translate(525 211) translate(11 175)">
                    <use fill="#DFE2E6" xlink:href="#6f0gf0qqya"/>
                </g>
            </g>
        </g>
    </g>
</svg>
