<?xml version="1.0" encoding="UTF-8"?>
<svg width="32px" height="37px" viewBox="0 0 32 37" version="1.1" xmlns="http://www.w3.org/2000/svg" xmlns:xlink="http://www.w3.org/1999/xlink">
    <!-- Generator: Sketch 53.2 (72643) - https://sketchapp.com -->
    <title>pdf (1)</title>
    <desc>Created with Sketch.</desc>
    <g id="Page-1" stroke="none" stroke-width="1" fill="none" fill-rule="evenodd">
        <g id="Meeting-Detail" transform="translate(-68.000000, -398.000000)" fill-rule="nonzero">
            <g id="Group-3" transform="translate(68.000000, 398.000000)">
                <g id="Group-14">
                    <g id="Group-13">
                        <g id="pdf-(1)">
                            <path d="M6.85714286,0 C5.6,0 4.57142857,1.02857143 4.57142857,2.28571429 L4.57142857,34.2857143 C4.57142857,35.5428571 5.6,36.5714286 6.85714286,36.5714286 L29.7142857,36.5714286 C30.9714286,36.5714286 32,35.5428571 32,34.2857143 L32,9.14285714 L22.8571429,0 L6.85714286,0 Z" id="Path" fill="#E2E5E7"></path>
                            <path d="M25.1428571,9.14285714 L32,9.14285714 L22.8571429,0 L22.8571429,6.85714286 C22.8571429,8.11428571 23.8857143,9.14285714 25.1428571,9.14285714 Z" id="Path" fill="#B0B7BD"></path>
                            <polygon id="Path" fill="#CAD1D8" points="32 16 25.1428571 9.14285714 32 9.14285714"></polygon>
                            <path d="M27.4285714,29.7142857 C27.4285714,30.3428571 26.9142857,30.8571429 26.2857143,30.8571429 L1.14285714,30.8571429 C0.514285714,30.8571429 0,30.3428571 0,29.7142857 L0,18.2857143 C0,17.6571429 0.514285714,17.1428571 1.14285714,17.1428571 L26.2857143,17.1428571 C26.9142857,17.1428571 27.4285714,17.6571429 27.4285714,18.2857143 L27.4285714,29.7142857 Z" id="Path" fill="#F15642"></path>
                            <g id="Group" transform="translate(4.928571, 21.000000)" fill="#FFFFFF">
                                <path d="M0.0531428571,0.653714286 C0.0531428571,0.352 0.290857143,0.0228571429 0.673714286,0.0228571429 L2.78457143,0.0228571429 C3.97314286,0.0228571429 5.04285714,0.818285714 5.04285714,2.34285714 C5.04285714,3.78742857 3.97314286,4.592 2.78457143,4.592 L1.25885714,4.592 L1.25885714,5.79885714 C1.25885714,6.20114286 1.00285714,6.42857143 0.673714286,6.42857143 C0.372,6.42857143 0.0531428571,6.20114286 0.0531428571,5.79885714 L0.0531428571,0.653714286 L0.0531428571,0.653714286 Z M1.25885714,1.17371429 L1.25885714,3.45028571 L2.78457143,3.45028571 C3.39714286,3.45028571 3.88171429,2.90971429 3.88171429,2.34285714 C3.88171429,1.704 3.39714286,1.17371429 2.78457143,1.17371429 L1.25885714,1.17371429 Z" id="Shape"></path>
                                <path d="M6.83257143,6.42857143 C6.53085714,6.42857143 6.20171429,6.264 6.20171429,5.86285714 L6.20171429,0.672 C6.20171429,0.344 6.53085714,0.105142857 6.83257143,0.105142857 L8.92514286,0.105142857 C13.1011429,0.105142857 13.0097143,6.42857143 9.00742857,6.42857143 L6.83257143,6.42857143 L6.83257143,6.42857143 Z M7.40857143,1.22057143 L7.40857143,5.31428571 L8.92514286,5.31428571 C11.3925714,5.31428571 11.5022857,1.22057143 8.92514286,1.22057143 L7.40857143,1.22057143 L7.40857143,1.22057143 Z" id="Shape"></path>
                                <path d="M14.4908571,1.29371429 L14.4908571,2.74628571 L16.8211429,2.74628571 C17.1502857,2.74628571 17.4794286,3.07542857 17.4794286,3.39428571 C17.4794286,3.696 17.1502857,3.94285714 16.8211429,3.94285714 L14.4908571,3.94285714 L14.4908571,5.86171429 C14.4908571,6.18171429 14.2634286,6.42742857 13.9434286,6.42742857 C13.5411429,6.42742857 13.2954286,6.18171429 13.2954286,5.86171429 L13.2954286,0.670857143 C13.2954286,0.342857143 13.5422857,0.104 13.9434286,0.104 L17.1514286,0.104 C17.5537143,0.104 17.7914286,0.342857143 17.7914286,0.670857143 C17.7914286,0.963428571 17.5537143,1.29257143 17.1514286,1.29257143 L14.4908571,1.29257143 L14.4908571,1.29371429 Z" id="Path"></path>
                            </g>
                            <path d="M26.2857143,30.8571429 L4.57142857,30.8571429 L4.57142857,32 L26.2857143,32 C26.9142857,32 27.4285714,31.4857143 27.4285714,30.8571429 L27.4285714,29.7142857 C27.4285714,30.3428571 26.9142857,30.8571429 26.2857143,30.8571429 Z" id="Path" fill="#CAD1D8"></path>
                        </g>
                    </g>
                </g>
            </g>
        </g>
    </g>
</svg>