<?xml version="1.0" encoding="UTF-8"?>
<svg width="32px" height="37px" viewBox="0 0 32 37" version="1.1" xmlns="http://www.w3.org/2000/svg" xmlns:xlink="http://www.w3.org/1999/xlink">
    <!-- Generator: Sketch 53.2 (72643) - https://sketchapp.com -->
    <title>xls</title>
    <desc>Created with Sketch.</desc>
    <g id="Page-1" stroke="none" stroke-width="1" fill="none" fill-rule="evenodd">
        <g id="Meeting-Detail" transform="translate(-68.000000, -465.000000)" fill-rule="nonzero">
            <g id="Group-3" transform="translate(68.000000, 398.000000)">
                <g id="Group-14-Copy" transform="translate(0.000000, 67.000000)">
                    <g id="Group-13">
                        <g id="xls">
                            <path d="M6.85714286,0 C5.6,0 4.57142857,1.02857143 4.57142857,2.28571429 L4.57142857,34.2857143 C4.57142857,35.5428571 5.6,36.5714286 6.85714286,36.5714286 L29.7142857,36.5714286 C30.9714286,36.5714286 32,35.5428571 32,34.2857143 L32,9.14285714 L22.8571429,0 L6.85714286,0 Z" id="Path" fill="#E2E5E7"></path>
                            <path d="M25.1428571,9.14285714 L32,9.14285714 L22.8571429,0 L22.8571429,6.85714286 C22.8571429,8.11428571 23.8857143,9.14285714 25.1428571,9.14285714 Z" id="Path" fill="#B0B7BD"></path>
                            <polygon id="Path" fill="#CAD1D8" points="32 16 25.1428571 9.14285714 32 9.14285714"></polygon>
                            <path d="M27.4285714,29.7142857 C27.4285714,30.3428571 26.9142857,30.8571429 26.2857143,30.8571429 L1.14285714,30.8571429 C0.514285714,30.8571429 0,30.3428571 0,29.7142857 L0,18.2857143 C0,17.6571429 0.514285714,17.1428571 1.14285714,17.1428571 L26.2857143,17.1428571 C26.9142857,17.1428571 27.4285714,17.6571429 27.4285714,18.2857143 L27.4285714,29.7142857 Z" id="Path" fill="#84BD5A"></path>
                            <g id="Group" transform="translate(5.214286, 20.785714)" fill="#FFFFFF">
                                <path d="M2.80971429,2.51371429 L4.39942857,0.521714286 C4.87485714,-0.1 5.79828571,0.694285714 5.27714286,1.28857143 C4.72971429,1.93771429 4.15371429,2.64171429 3.60514286,3.36285714 L5.46914286,5.684 C5.972,6.36971429 4.96742857,7.02685714 4.47371429,6.35028571 L2.79142857,4.19371429 L1.13771429,6.39714286 C0.671428571,7.06342857 -0.361714286,6.31485714 0.159428571,5.69314286 L1.996,3.36285714 C1.42,2.64057143 0.862285714,1.93771429 0.305714286,1.28857143 C-0.269142857,0.602857143 0.799428571,-0.1 1.22,0.541142857 L2.80971429,2.51371429 Z" id="Path"></path>
                                <path d="M6.59714286,0.868 C6.59714286,0.566285714 6.85314286,0.310285714 7.17314286,0.310285714 C7.46571429,0.310285714 7.71257143,0.567428571 7.71257143,0.868 L7.71257143,5.44628571 L10.1982857,5.44628571 C11.0931429,5.44628571 11.1125714,6.64285714 10.1982857,6.64285714 L7.17428571,6.64285714 C6.85428571,6.64285714 6.59828571,6.41542857 6.59828571,6.08628571 L6.59828571,0.868 L6.59714286,0.868 L6.59714286,0.868 Z" id="Path"></path>
                                <path d="M11.9308571,1.69085714 C12.1411429,-0.0828571429 14.8177143,-0.401714286 16.0794286,0.567428571 C16.7011429,1.06914286 16.0428571,1.86457143 15.4942857,1.46228571 C14.8177143,1.03371429 13.2828571,0.832571429 13.0908571,1.78114286 C12.844,3.28057143 16.8188571,2.42228571 16.7548571,4.85314286 C16.6908571,7.17428571 13.3285714,7.228 12.0668571,6.18685714 C11.764,5.94 11.7742857,5.53885714 11.9388571,5.29085714 C12.1765714,5.05428571 12.4405714,4.972 12.7525714,5.228 C13.5011429,5.73885714 15.4302857,6.12285714 15.5662857,4.82457143 C15.4485714,3.47371429 11.6474286,4.28628571 11.9308571,1.69085714 Z" id="Path"></path>
                            </g>
                            <path d="M26.2857143,30.8571429 L4.57142857,30.8571429 L4.57142857,32 L26.2857143,32 C26.9142857,32 27.4285714,31.4857143 27.4285714,30.8571429 L27.4285714,29.7142857 C27.4285714,30.3428571 26.9142857,30.8571429 26.2857143,30.8571429 Z" id="Path" fill="#CAD1D8"></path>
                        </g>
                    </g>
                </g>
            </g>
        </g>
    </g>
</svg>