<svg width="480" height="331" viewBox="0 0 480 331" fill="none" xmlns="http://www.w3.org/2000/svg">
<path d="M255.055 3.15049C235.432 -3.03767 213.769 0.0260265 198.522 11.1456C198.163 11.4074 197.82 11.6802 197.493 11.964L99.5816 96.9756H69.1251C31.0098 96.9756 0 120.168 0 148.674V182.277C0 210.783 31.0098 233.976 69.1251 233.976H99.5825L197.494 318.987C197.821 319.271 198.164 319.544 198.523 319.805C208.6 327.154 221.457 331.001 234.678 331C241.534 331 248.489 329.965 255.201 327.848C274.733 321.689 286.867 308.005 286.867 292.135C286.867 284.997 279.131 279.211 269.586 279.211C260.041 279.211 252.305 284.997 252.305 292.135C252.305 300.091 244.244 303.251 241.773 304.03C239.306 304.808 230.782 306.889 223.116 301.628L120.598 212.617C117.316 209.767 112.535 208.128 107.505 208.128H69.1251C50.0674 208.128 34.5625 196.532 34.5625 182.279V148.675C34.5625 134.422 50.0674 122.826 69.1251 122.826H107.505C112.535 122.826 117.315 121.186 120.598 118.337L223.115 29.3254C230.698 24.1244 239.172 26.1964 241.627 26.9696C244.132 27.759 252.305 30.9623 252.305 39.0039V227.514C252.305 234.652 260.041 240.438 269.586 240.438C279.131 240.438 286.867 234.652 286.867 227.514V39.0039C286.868 23.0765 274.678 9.33865 255.055 3.15049Z" fill="#00C5CA"/>
<path d="M325.513 117.027C318.96 110.435 308.335 110.435 301.782 117.027C295.229 123.619 295.229 134.307 301.782 140.899C314.889 154.083 314.889 175.458 301.782 188.643C295.229 195.234 295.229 205.922 301.782 212.515C308.335 219.106 318.96 219.106 325.513 212.515C351.726 186.146 351.726 143.395 325.513 117.027ZM372.977 69.2836C366.424 62.6914 355.798 62.6914 349.245 69.2836C342.693 75.8752 342.693 86.5634 349.245 93.1555C388.565 132.707 388.565 196.834 349.245 236.386C342.693 242.978 342.693 253.667 349.245 260.258C355.798 266.85 366.424 266.85 372.977 260.258C425.403 207.522 425.403 122.02 372.977 69.2836ZM420.439 21.5397C413.886 14.9476 403.26 14.9476 396.708 21.5397C390.155 28.1313 390.155 38.8195 396.708 45.4117C462.241 111.332 462.241 218.209 396.708 284.13C390.155 290.722 390.155 301.41 396.708 308.002C403.26 314.594 413.886 314.594 420.439 308.002C499.079 228.897 499.079 100.644 420.439 21.5397Z" fill="#00C5CA"/>
</svg>
