<?xml version="1.0" encoding="iso-8859-1"?>
<!-- Generator: Adobe Illustrator 19.0.0, SVG Export Plug-In . SVG Version: 6.00 Build 0)  -->
<svg version="1.1" width="60px" height="60px" fill="white" id="Capa_1" xmlns="http://www.w3.org/2000/svg" xmlns:xlink="http://www.w3.org/1999/xlink" x="0px" y="0px"
	 viewBox="0 0 480 480" style="enable-background:new 0 0 480 480;" xml:space="preserve">
<g>
	<path style="fill:#E7E9FB;" d="M40,40h128V8H8v160h32V40z"/>
	<path style="fill:#E7E9FB;" d="M312,40h128v128h32V8H312V40z"/>
	<path style="fill:#E7E9FB;" d="M168,440H40V312H8v160h160V440z"/>
	<path style="fill:#E7E9FB;" d="M440,440H312v32h160V312h-32V440z"/>
</g>
<g>
	<path style="fill:#231F20;" d="M48,176H0V0h176v48H48V176z M16,160h16V32h128V16H16V160z"/>
	<path style="fill:#231F20;" d="M480,176h-48V48H304V0h176V176z M448,160h16V16H320v16h128V160z"/>
	<path style="fill:#231F20;" d="M176,480H0V304h48v128h128V480z M16,464h144v-16H32V320H16V464z"/>
	<path style="fill:#231F20;" d="M480,480H304v-48h128V304h48V480z M320,464h144V320h-16v128H320V464z"/>
</g>
<g>
</g>
<g>
</g>
<g>
</g>
<g>
</g>
<g>
</g>
<g>
</g>
<g>
</g>
<g>
</g>
<g>
</g>
<g>
</g>
<g>
</g>
<g>
</g>
<g>
</g>
<g>
</g>
<g>
</g>
</svg>
