<?xml version="1.0" encoding="utf-8"?>
<!-- Generator: Adobe Illustrator 16.0.0, SVG Export Plug-In . SVG Version: 6.00 Build 0)  -->
<!DOCTYPE svg PUBLIC "-//W3C//DTD SVG 1.1//EN" "http://www.w3.org/Graphics/SVG/1.1/DTD/svg11.dtd">
<svg version="1.1" id="Layer_1" xmlns="http://www.w3.org/2000/svg" xmlns:xlink="http://www.w3.org/1999/xlink" x="0px" y="0px"
	 width="60px" height="60px" viewBox="0 0 60 60" enable-background="new 0 0 60 60" xml:space="preserve">
<g>
	<path fill="#FFFFFF" d="M42.577,31.195h-2.735c0.279,0.764,0.431,1.588,0.431,2.445v10.338c0,0.357-0.063,0.701-0.176,1.021h4.521
		c1.689,0,3.063-1.375,3.063-3.064v-5.635C47.683,33.486,45.392,31.195,42.577,31.195z"/>
	<path fill="#FFFFFF" d="M20.157,31.195h-2.735c-2.815,0-5.105,2.291-5.105,5.105v5.635c0,1.689,1.374,3.064,3.063,3.064h4.521
		c-0.113-0.32-0.175-0.664-0.175-1.021V33.641C19.726,32.783,19.878,31.959,20.157,31.195z"/>
	<path fill="#FFFFFF" d="M33.126,28.537h-6.252c-2.815,0-5.105,2.289-5.105,5.104v10.338c0,0.564,0.457,1.021,1.021,1.021H37.21
		c0.563,0,1.021-0.457,1.021-1.021V33.641C38.231,30.826,35.941,28.537,33.126,28.537z"/>
	<path fill="#FFFFFF" d="M26.999,26.494c0.888,0.5,1.912,0.785,3,0.785c1.089,0,2.113-0.285,3.001-0.785
		c1.872-1.053,3.139-3.059,3.139-5.355C36.139,17.754,33.385,15,30,15c-3.385,0-6.14,2.754-6.14,6.139
		C23.86,23.436,25.127,25.441,26.999,26.494z"/>
	<path fill="#FFFFFF" d="M23.271,27.471c0.344-0.643,0.54-1.377,0.54-2.156c0-2.533-2.06-4.592-4.592-4.592
		c-2.532,0-4.591,2.059-4.591,4.592c0,2.531,2.06,4.592,4.591,4.592c0.643,0,1.254-0.133,1.81-0.373
		C21.988,29.119,22.78,28.389,23.271,27.471z"/>
	<path fill="#FFFFFF" d="M45.373,25.314c0-2.533-2.06-4.592-4.592-4.592c-2.532,0-4.592,2.059-4.592,4.592
		c0,0.779,0.196,1.514,0.54,2.156c0.49,0.918,1.282,1.648,2.243,2.063c0.555,0.24,1.167,0.373,1.809,0.373
		C43.313,29.906,45.373,27.846,45.373,25.314z"/>
</g>
</svg>
