<svg xmlns="http://www.w3.org/2000/svg" xmlns:xlink="http://www.w3.org/1999/xlink" width="18" height="12" viewBox="0 0 18 12">
    <defs>
        <path id="sunt23f5ja" d="M9 .375C5.25.375 2.047 2.708.75 6c1.297 3.293 4.5 5.625 8.25 5.625S15.953 9.293 17.25 6C15.953 2.708 12.75.375 9 .375zM9 9.75C6.93 9.75 5.25 8.07 5.25 6c0-2.07 1.68-3.75 3.75-3.75 2.07 0 3.75 1.68 3.75 3.75 0 2.07-1.68 3.75-3.75 3.75zm0-6C7.755 3.75 6.75 4.755 6.75 6S7.755 8.25 9 8.25 11.25 7.245 11.25 6 10.245 3.75 9 3.75z"/>
    </defs>
    <g fill="none" fill-rule="evenodd">
        <g>
            <g>
                <g transform="translate(-844 -387) translate(525 211) translate(319 176)">
                    <use fill="#DFE2E6" xlink:href="#sunt23f5ja"/>
                </g>
            </g>
        </g>
    </g>
</svg>
