<?xml version="1.0" encoding="utf-8"?>
<!-- Generator: Adobe Illustrator 16.0.0, SVG Export Plug-In . SVG Version: 6.00 Build 0)  -->
<!DOCTYPE svg PUBLIC "-//W3C//DTD SVG 1.1//EN" "http://www.w3.org/Graphics/SVG/1.1/DTD/svg11.dtd">
<svg version="1.1" id="Layer_1" xmlns="http://www.w3.org/2000/svg" xmlns:xlink="http://www.w3.org/1999/xlink" x="0px" y="0px"
	 width="60px" height="60px" viewBox="0 0 60 60" enable-background="new 0 0 60 60" xml:space="preserve">
<g>
	<path fill="#FFFFFF" d="M30,15c-8.282,0-15,6.711-15,14.992C15,38.283,21.719,45,30,45c8.286,0,14.999-6.717,14.999-15.008
		C44.999,21.711,38.286,15,30,15z M31.069,38.34c-0.349,0.309-0.752,0.465-1.209,0.465c-0.474,0-0.886-0.152-1.238-0.459
		c-0.353-0.307-0.53-0.734-0.53-1.285c0-0.488,0.171-0.9,0.512-1.232c0.341-0.334,0.759-0.5,1.256-0.5
		c0.488,0,0.899,0.166,1.233,0.5c0.333,0.332,0.5,0.744,0.5,1.232C31.593,37.604,31.418,38.029,31.069,38.34z M35.413,27.57
		c-0.268,0.496-0.585,0.924-0.954,1.285c-0.368,0.359-1.029,0.967-1.983,1.818c-0.263,0.242-0.475,0.453-0.633,0.635
		s-0.277,0.35-0.354,0.5c-0.078,0.15-0.138,0.303-0.18,0.453c-0.042,0.152-0.106,0.418-0.193,0.797
		c-0.146,0.807-0.608,1.211-1.383,1.211c-0.403,0-0.742-0.133-1.018-0.396c-0.275-0.264-0.412-0.654-0.412-1.174
		c0-0.65,0.101-1.215,0.303-1.693c0.2-0.477,0.469-0.895,0.802-1.256c0.333-0.361,0.783-0.789,1.35-1.285
		c0.496-0.434,0.854-0.762,1.076-0.982s0.407-0.467,0.558-0.738s0.226-0.566,0.226-0.885c0-0.619-0.23-1.143-0.692-1.568
		c-0.461-0.428-1.056-0.641-1.785-0.641c-0.854,0-1.481,0.215-1.884,0.646c-0.403,0.43-0.744,1.063-1.023,1.9
		c-0.264,0.877-0.765,1.314-1.5,1.314c-0.434,0-0.8-0.152-1.099-0.459c-0.298-0.307-0.447-0.637-0.447-0.994
		c0-0.736,0.237-1.482,0.709-2.238c0.473-0.756,1.163-1.383,2.07-1.879c0.907-0.496,1.966-0.744,3.175-0.744
		c1.124,0,2.116,0.207,2.977,0.623c0.86,0.414,1.525,0.979,1.995,1.691c0.469,0.713,0.704,1.488,0.704,2.326
		C35.815,26.496,35.681,27.074,35.413,27.57z"/>
</g>
</svg>
