<svg viewBox="0 -73 512.00002 512" width="60px" height="60px" fill="white" xmlns="http://www.w3.org/2000/svg"><path d="m484.570312 0h-457.140624c-15.148438 0-27.429688 12.28125-27.429688 27.429688v310.855468c0 15.148438 12.28125 27.429688 27.429688 27.429688h457.140624c15.148438 0 27.429688-12.28125 27.429688-27.429688v-310.855468c0-15.148438-12.28125-27.429688-27.429688-27.429688zm-393.140624 347.429688h-45.714844c-3.679688.003906-7.320313-.730469-10.707032-2.167969-1.632812-.691407-3.191406-1.542969-4.652343-2.542969-2.917969-1.972656-5.425781-4.488281-7.398438-7.40625-2.011719-2.964844-3.410156-6.304688-4.113281-9.816406-.375-1.808594-.5625-3.648438-.558594-5.496094v-45.714844c0-5.050781 4.09375-9.140625 9.144532-9.140625 5.046874 0 9.140624 4.089844 9.140624 9.140625v45.714844c-.003906.613281.058594 1.226562.183594 1.828125.117188.597656.292969 1.183594.53125 1.746094.226563.539062.507813 1.058593.832032 1.546875.328124.484375.699218.9375 1.113281 1.351562.421875.421875.882812.800782 1.371093 1.132813.492188.335937 1.011719.617187 1.554688.851562 1.128906.464844 2.339844.695313 3.558594.6875h45.714844c5.046874 0 9.140624 4.089844 9.140624 9.140625 0 5.050782-4.09375 9.144532-9.140624 9.144532zm0-310.859376h-45.714844c-.632813 0-1.265625.066407-1.882813.191407-.566406.117187-1.117187.289062-1.648437.515625-.542969.230468-1.066406.511718-1.5625.839844-.476563.324218-.921875.691406-1.335938 1.097656-.421875.414062-.800781.871094-1.132812 1.359375-.339844.503906-.632813 1.035156-.867188 1.59375-.230468.539062-.402344 1.097656-.523437 1.671875-.125.617187-.1875 1.246094-.191407 1.875v45.714844c0 5.046874-4.09375 9.140624-9.140624 9.140624-5.050782 0-9.144532-4.09375-9.144532-9.140624v-45.714844c0-1.871094.1875-3.738282.566406-5.570313.363282-1.753906.898438-3.464843 1.59375-5.117187.695313-1.636719 1.550782-3.203125 2.550782-4.671875 2.976562-4.394531 7.15625-7.835938 12.039062-9.910157 1.660156-.703124 3.382813-1.238281 5.148438-1.601562 1.820312-.371094 3.671875-.554688 5.53125-.558594h45.714844c5.046874 0 9.140624 4.09375 9.140624 9.144532 0 5.046874-4.09375 9.140624-9.140624 9.140624zm146.285156 182.859376h-18.285156v36.570312c0 5.050781-4.09375 9.144531-9.144532 9.144531-5.050781 0-9.140625-4.09375-9.140625-9.144531v-36.570312h-45.714843c-3.339844 0-6.414063-1.816407-8.019532-4.742188-1.605468-2.925781-1.492187-6.496094.300782-9.3125l64-100.570312c1.753906-2.757813 4.847656-4.367188 8.109374-4.226563 3.265626.140625 6.207032 2.011719 7.71875 4.910156 1.511719 2.894531 1.359376 6.378907-.394531 9.136719l-55.066406 86.519531h29.066406v-18.289062c0-5.046875 4.089844-9.140625 9.140625-9.140625 5.050782 0 9.144532 4.09375 9.144532 9.140625v18.289062h18.285156c5.050781 0 9.140625 4.089844 9.140625 9.140625 0 5.050782-4.089844 9.144532-9.140625 9.144532zm125.320312 30.105468c2.378906 2.296875 3.332032 5.695313 2.492188 8.890625-.835938 3.199219-3.332032 5.695313-6.527344 6.53125-3.199219.835938-6.597656-.117187-8.890625-2.492187l-57.539063-57.535156v51.070312c0 5.050781-4.09375 9.144531-9.140624 9.144531-5.050782 0-9.144532-4.09375-9.144532-9.144531v-146.285156c0-5.050782 4.09375-9.144532 9.144532-9.144532 5.046874 0 9.140624 4.09375 9.140624 9.144532v51.070312l57.539063-57.535156c3.585937-3.464844 9.289063-3.414062 12.816406.113281 3.523438 3.523438 3.574219 9.226563.109375 12.816407l-66.679687 66.675781zm130.679688 70.464844c.003906 1.871094-.191406 3.738281-.578125 5.566406-.355469 1.757813-.886719 3.472656-1.582031 5.121094-.695313 1.636719-1.550782 3.203125-2.550782 4.671875-2.976562 4.394531-7.15625 7.835937-12.039062 9.910156-1.660156.699219-3.382813 1.238281-5.148438 1.601563-1.820312.367187-3.671875.554687-5.53125.558594h-45.714844c-5.046874 0-9.140624-4.09375-9.140624-9.144532 0-5.050781 4.09375-9.140625 9.140624-9.140625h45.714844c.632813 0 1.265625-.066406 1.882813-.195312.566406-.113281 1.117187-.285157 1.648437-.511719.542969-.230469 1.066406-.511719 1.5625-.839844.476563-.324218.921875-.691406 1.335938-1.097656.421875-.414062.800781-.871094 1.132812-1.363281.339844-.5.632813-1.03125.867188-1.589844.230468-.539063.402344-1.097656.523437-1.671875.125-.617188.1875-1.246094.191407-1.875v-45.714844c0-5.050781 4.09375-9.140625 9.140624-9.140625 5.050782 0 9.144532 4.089844 9.144532 9.140625zm0-228.570312c0 5.046874-4.09375 9.140624-9.144532 9.140624-5.046874 0-9.140624-4.09375-9.140624-9.140624v-45.714844c.003906-.613282-.058594-1.226563-.183594-1.828125-.117188-.601563-.292969-1.183594-.53125-1.746094-.226563-.542969-.507813-1.058594-.832032-1.546875-.328124-.484375-.699218-.9375-1.113281-1.351562-.421875-.421876-.882812-.800782-1.371093-1.132813-.492188-.335937-1.011719-.621094-1.554688-.851563-1.128906-.464843-2.339844-.699218-3.558594-.6875h-45.714844c-5.046874 0-9.140624-4.09375-9.140624-9.140624 0-5.050782 4.09375-9.144532 9.140624-9.144532h45.714844c3.679688-.007812 7.320313.730469 10.707032 2.167969 1.632812.691406 3.191406 1.542969 4.652343 2.542969 2.917969 1.972656 5.425781 4.484375 7.398438 7.402344 2.011719 2.96875 3.410156 6.308593 4.113281 9.820312.375 1.808594.5625 3.648438.558594 5.496094zm0 0"/></svg>