<svg width="20" height="12" viewBox="0 0 20 12" fill="none" xmlns="http://www.w3.org/2000/svg">
<path d="M9.98431 11.9959C9.65111 11.9967 9.32819 11.8573 9.07162 11.6019L0.515173 3.03486C0.223945 2.74403 0.0408018 2.32612 0.00603444 1.87305C-0.0287329 1.41998 0.0877231 0.968874 0.329783 0.618969C0.571843 0.269064 0.919679 0.0490225 1.29677 0.00725028C1.67386 -0.0345219 2.04932 0.105397 2.34055 0.396227L9.98431 8.07226L17.6281 0.670372C17.7739 0.528047 17.9418 0.421762 18.122 0.357626C18.3021 0.293491 18.4911 0.272769 18.6779 0.296653C18.8648 0.320536 19.0459 0.388552 19.2108 0.496795C19.3757 0.605037 19.5212 0.75137 19.6388 0.927382C19.7694 1.10356 19.8684 1.31024 19.9294 1.53448C19.9904 1.75871 20.0122 1.99568 19.9935 2.23052C19.9747 2.46537 19.9158 2.69303 19.8205 2.89925C19.7251 3.10547 19.5953 3.2858 19.4392 3.42895L10.8827 11.7047C10.6188 11.9197 10.3025 12.0223 9.98431 11.9959Z" fill="#696969"/>
</svg>
