<?xml version="1.0" encoding="utf-8"?>
<!-- Generator: Adobe Illustrator 16.0.0, SVG Export Plug-In . SVG Version: 6.00 Build 0)  -->
<!DOCTYPE svg PUBLIC "-//W3C//DTD SVG 1.1//EN" "http://www.w3.org/Graphics/SVG/1.1/DTD/svg11.dtd">
<svg version="1.1" id="Layer_1" xmlns="http://www.w3.org/2000/svg" xmlns:xlink="http://www.w3.org/1999/xlink" x="0px" y="0px"
	 width="60px" height="60px" viewBox="0 0 60 60" enable-background="new 0 0 60 60" xml:space="preserve">
<g>
	<g>
		<path fill="#FFFFFF" d="M27.97,15.016H16.507c-0.837,0-1.516,0.68-1.516,1.516v11.463c0,0.838,0.679,1.518,1.516,1.518H27.97
			c0.838,0,1.516-0.68,1.516-1.518V16.533C29.486,15.695,28.807,15.016,27.97,15.016z"/>
		<path fill="#FFFFFF" d="M43.477,15.016H32.014c-0.836,0-1.517,0.68-1.517,1.516v11.463c0,0.838,0.681,1.518,1.517,1.518h11.463
			c0.837,0,1.515-0.68,1.515-1.518V16.533C44.992,15.695,44.313,15.016,43.477,15.016z"/>
		<path fill="#FFFFFF" d="M27.97,30.521H16.507c-0.837,0-1.516,0.68-1.516,1.516V43.5c0,0.838,0.679,1.516,1.516,1.516H27.97
			c0.838,0,1.516-0.678,1.516-1.516V32.037C29.486,31.201,28.807,30.521,27.97,30.521z"/>
		<path fill="#FFFFFF" d="M43.477,30.521H32.014c-0.836,0-1.517,0.68-1.517,1.516V43.5c0,0.838,0.681,1.516,1.517,1.516h11.463
			c0.837,0,1.515-0.678,1.515-1.516V32.037C44.992,31.201,44.313,30.521,43.477,30.521z"/>
	</g>
</g>
</svg>
