<svg width="340" height="340" viewBox="0 0 340 340" fill="none" xmlns="http://www.w3.org/2000/svg">
<path fill-rule="evenodd" clip-rule="evenodd" d="M160.714 43.9663C163.483 45.2381 165.83 47.2773 167.476 49.8422C169.122 52.407 169.998 55.39 170 58.4375V281.563C170.002 284.611 169.129 287.596 167.486 290.164C165.843 292.732 163.497 294.774 160.728 296.049C157.959 297.324 154.882 297.778 151.862 297.358C148.843 296.937 146.008 295.659 143.693 293.675L73.78 233.75H37.1875C27.3248 233.75 17.866 229.832 10.892 222.858C3.91796 215.884 0 206.425 0 196.563L0 143.438C0 122.91 16.66 106.25 37.1875 106.25H73.8013L143.693 46.325C146.008 44.3467 148.841 43.0732 151.858 42.6551C154.875 42.2371 157.948 42.6921 160.714 43.9663V43.9663ZM138.125 93.075L90.0575 134.279C87.1708 136.758 83.4925 138.122 79.6875 138.125H37.1875C35.7785 138.125 34.4273 138.685 33.431 139.681C32.4347 140.677 31.875 142.029 31.875 143.438V196.563C31.875 199.495 34.255 201.875 37.1875 201.875H79.6875C83.4898 201.872 87.1678 203.229 90.0575 205.7L138.125 246.925V93.075ZM267.665 49.7675C270.653 46.7829 274.704 45.1065 278.928 45.1065C283.151 45.1065 287.202 46.7829 290.19 49.7675C305.977 65.5536 318.5 84.2946 327.044 104.921C335.587 125.546 339.985 147.653 339.985 169.979C339.985 192.304 335.587 214.411 327.044 235.037C318.5 255.663 305.977 274.404 290.19 290.19C287.169 293.005 283.173 294.538 279.044 294.465C274.915 294.392 270.976 292.72 268.056 289.799C265.136 286.879 263.463 282.94 263.39 278.811C263.317 274.682 264.85 270.686 267.665 267.665C280.493 254.839 290.669 239.611 297.611 222.852C304.554 206.093 308.127 188.13 308.127 169.989C308.127 151.849 304.554 133.886 297.611 117.127C290.669 100.368 280.493 85.1401 267.665 72.3138C264.68 69.3255 263.004 65.2747 263.004 61.0513C263.004 56.8278 264.68 52.7771 267.665 49.7888V49.7675V49.7675ZM245.14 94.8388C242.15 91.8489 238.095 90.1693 233.867 90.1693C229.639 90.1693 225.584 91.8489 222.594 94.8388C219.604 97.8286 217.924 101.884 217.924 106.112C217.924 110.34 219.604 114.395 222.594 117.385C229.501 124.291 234.98 132.491 238.718 141.515C242.456 150.539 244.38 160.211 244.38 169.979C244.38 179.746 242.456 189.419 238.718 198.443C234.98 207.467 229.501 215.666 222.594 222.573C221.028 224.032 219.772 225.791 218.901 227.746C218.03 229.701 217.561 231.811 217.524 233.951C217.486 236.091 217.88 238.217 218.681 240.201C219.483 242.186 220.676 243.989 222.189 245.502C223.703 247.015 225.505 248.209 227.49 249.01C229.474 249.812 231.6 250.205 233.74 250.168C235.88 250.13 237.99 249.661 239.945 248.79C241.9 247.919 243.66 246.663 245.119 245.098C265.038 225.173 276.227 198.152 276.227 169.979C276.227 141.805 265.038 114.785 245.119 94.86L245.14 94.8388Z" fill="#00C5CA"/>
</svg>
