<svg width="454" height="512" viewBox="0 0 454 512" fill="none" xmlns="http://www.w3.org/2000/svg">
<g clip-path="url(#clip0)">
<path d="M173.763 280.792H219.583C217.517 304.108 210.25 322.443 197.78 335.798C185.31 349.153 169.484 355.831 150.299 355.831C126.393 355.831 107.615 347.272 93.9648 330.154C80.3147 313.036 73.4896 289.72 73.4896 260.206C73.4896 231.577 80.3516 208.593 94.0755 191.254C107.799 173.914 124.991 165.245 145.651 165.245C167.491 165.245 184.609 171.664 197.005 184.503C209.401 197.341 216.558 215.566 218.477 239.177H173.542C172.804 229.733 170.184 222.428 165.684 217.263C161.183 212.098 155.169 209.516 147.643 209.516C139.232 209.516 132.702 213.98 128.053 222.908C123.405 231.836 121.081 244.932 121.081 262.198C121.081 269.281 121.45 275.479 122.188 280.792C122.925 286.104 124.253 291.232 126.172 296.176C128.09 301.119 131.042 304.919 135.026 307.576C139.01 310.232 143.88 311.56 149.635 311.56C163.655 311.56 171.697 301.304 173.763 280.792ZM331.367 280.792H376.966C374.9 304.108 367.669 322.443 355.273 335.798C342.878 349.153 327.088 355.831 307.904 355.831C283.997 355.831 265.219 347.272 251.569 330.154C237.919 313.036 231.094 289.72 231.094 260.206C231.094 231.577 237.956 208.593 251.68 191.254C265.404 173.914 282.595 165.245 303.255 165.245C325.095 165.245 342.214 171.664 354.609 184.503C367.005 197.341 374.162 215.566 376.081 239.177H330.924C330.334 229.733 327.752 222.428 323.177 217.263C318.602 212.098 312.626 209.516 305.247 209.516C296.836 209.516 290.306 213.98 285.658 222.908C281.009 231.836 278.685 244.932 278.685 262.198C278.685 269.281 279.054 275.479 279.792 280.792C280.53 286.104 281.858 291.232 283.776 296.176C285.694 301.119 288.609 304.919 292.52 307.576C296.43 310.232 301.263 311.56 307.018 311.56C314.249 311.56 319.894 308.756 323.952 303.148C328.01 297.541 330.482 290.089 331.367 280.792ZM410.833 254.451C410.833 223.904 409.69 201.252 407.402 186.495C405.115 171.738 400.651 159.859 394.01 150.857C393.125 149.676 392.129 148.643 391.022 147.758C389.915 146.872 388.329 145.766 386.263 144.438C384.197 143.109 383.017 142.298 382.721 142.003C370.03 132.706 318.602 128.057 228.438 128.057C136.207 128.057 83.8194 132.706 71.276 142.003C70.5382 142.593 69.247 143.441 67.4023 144.548C65.5577 145.655 64.0082 146.688 62.7539 147.647C61.4996 148.606 60.4297 149.676 59.5443 150.857C52.9036 159.711 48.4766 171.48 46.263 186.163C44.0495 200.846 42.9427 223.609 42.9427 254.451C42.9427 285.145 44.0495 307.834 46.263 322.517C48.4766 337.2 52.9036 349.043 59.5443 358.044C60.4297 359.225 61.5365 360.332 62.8646 361.365C64.1927 362.398 65.7053 363.431 67.4023 364.464C69.0994 365.497 70.3906 366.382 71.276 367.12C77.7691 371.99 95.4405 375.605 124.29 377.966C153.14 380.327 187.856 381.508 228.438 381.508C318.455 381.508 369.883 376.712 382.721 367.12C383.459 366.53 384.714 365.718 386.484 364.685C388.255 363.652 389.768 362.619 391.022 361.586C392.276 360.553 393.273 359.372 394.01 358.044C400.799 349.19 405.299 337.458 407.513 322.849C409.727 308.24 410.833 285.44 410.833 254.451ZM453.333 86V426H0V86H453.333Z" fill="#00C5CA"/>
</g>
<defs>
<clipPath id="clip0">
<rect width="453.33" height="512" fill="white"/>
</clipPath>
</defs>
</svg>
