<svg xmlns="http://www.w3.org/2000/svg" width="34" height="34" viewBox="0 0 34 34">
  <g id="그룹_17740" data-name="그룹 17740" transform="translate(-1478 -295)">
    <g id="패스_68732" data-name="패스 68732" transform="translate(1478 295)" fill="#fff">
      <path d="M 22 33.5 L 12 33.5 C 8.928239822387695 33.5 6.040329933166504 32.30379104614258 3.868269920349121 30.13172912597656 C 1.696210026741028 27.95966911315918 0.5 25.0717601776123 0.5 22 L 0.5 12 C 0.5 8.928239822387695 1.696210026741028 6.040329933166504 3.868269920349121 3.868269920349121 C 6.040329933166504 1.696210026741028 8.928239822387695 0.5 12 0.5 L 22 0.5 C 25.0717601776123 0.5 27.95966911315918 1.696210026741028 30.13172912597656 3.868269920349121 C 32.30379104614258 6.040329933166504 33.5 8.928239822387695 33.5 12 L 33.5 22 C 33.5 25.0717601776123 32.30379104614258 27.95966911315918 30.13172912597656 30.13172912597656 C 27.95966911315918 32.30379104614258 25.0717601776123 33.5 22 33.5 Z" stroke="none"/>
      <path d="M 12 1 C 9.061790466308594 1 6.299449920654297 2.144199371337891 4.221820831298828 4.221820831298828 C 2.144199371337891 6.299449920654297 1 9.061790466308594 1 12 L 1 22 C 1 24.93820953369141 2.144199371337891 27.7005500793457 4.221820831298828 29.77817916870117 C 6.299449920654297 31.85580062866211 9.061790466308594 33 12 33 L 22 33 C 24.93820953369141 33 27.7005500793457 31.85580062866211 29.77817916870117 29.77817916870117 C 31.85580062866211 27.7005500793457 33 24.93820953369141 33 22 L 33 12 C 33 9.061790466308594 31.85580062866211 6.299449920654297 29.77817916870117 4.221820831298828 C 27.7005500793457 2.144199371337891 24.93820953369141 1 22 1 L 12 1 M 12 0 L 22 0 C 28.62742042541504 0 34 5.372579574584961 34 12 L 34 22 C 34 28.62742042541504 28.62742042541504 34 22 34 L 12 34 C 5.372579574584961 34 0 28.62742042541504 0 22 L 0 12 C 0 5.372579574584961 5.372579574584961 0 12 0 Z" stroke="none" fill="#eeeff0"/>
    </g>
    <g id="그룹_17114" data-name="그룹 17114" transform="translate(158 -125)">
      <g id="close" transform="translate(1331 431)">
        <rect id="사각형_145" data-name="사각형 145" width="15.909" height="1.909" transform="translate(1.35 0) rotate(45)" fill="#42526e"/>
        <rect id="사각형_146" data-name="사각형 146" width="15.909" height="1.909" transform="translate(12.599 1.35) rotate(135)" fill="#42526e"/>
      </g>
    </g>
  </g>
</svg>
