<svg id="calendar_2_" data-name="calendar (2)" xmlns="http://www.w3.org/2000/svg" width="33.281" height="33.281" viewBox="0 0 33.281 33.281">
  <g id="그룹_17127" data-name="그룹 17127">
    <g id="그룹_17126" data-name="그룹 17126">
      <path id="패스_10739" data-name="패스 10739" d="M29.953,3.328H28.289V1.664a1.664,1.664,0,1,0-3.328,0V3.328H8.32V1.664A1.572,1.572,0,0,0,6.656,0,1.572,1.572,0,0,0,4.992,1.664V3.328H1.664A1.668,1.668,0,0,0,0,4.992v23.3a1.668,1.668,0,0,0,1.664,1.664H11.815a13.246,13.246,0,0,1,19.8-16.973V4.992A1.79,1.79,0,0,0,29.953,3.328Z" fill="#67bce1"/>
    </g>
  </g>
  <g id="그룹_17129" data-name="그룹 17129" transform="translate(13.312 13.312)">
    <g id="그룹_17128" data-name="그룹 17128">
      <path id="패스_10740" data-name="패스 10740" d="M214.784,204.8a9.984,9.984,0,1,0,9.984,9.984A10.014,10.014,0,0,0,214.784,204.8Zm3.328,11.648h-3.328a1.572,1.572,0,0,1-1.664-1.664v-4.992a1.664,1.664,0,0,1,3.328,0v3.328h1.664a1.664,1.664,0,0,1,0,3.328Z" transform="translate(-204.8 -204.8)" fill="#67bce1"/>
    </g>
  </g>
</svg>
