<svg xmlns="http://www.w3.org/2000/svg" xmlns:xlink="http://www.w3.org/1999/xlink" width="512.875" height="449.017" viewBox="0 0 512.875 449.017">
  <defs>
    <clipPath id="clip-path">
      <path id="패스_68592" data-name="패스 68592" d="M225.434,458.292,184.99,463.75a.748.748,0,0,1-.806-.643l-5.026-27.832a.753.753,0,0,1,.594-.909l40.444-5.457a.748.748,0,0,1,.807.643l5.026,27.83A.756.756,0,0,1,225.434,458.292Z" transform="translate(-179.144 -428.902)" fill="none"/>
    </clipPath>
    <clipPath id="clip-path-2">
      <path id="패스_68621" data-name="패스 68621" d="M223.832,481.292l-34.163,4.674a.626.626,0,0,1-.678-.541L184.863,462a.639.639,0,0,1,.506-.767l34.163-4.674a.626.626,0,0,1,.678.541l4.128,23.423A.639.639,0,0,1,223.832,481.292Z" transform="translate(-184.852 -456.556)" fill="none"/>
    </clipPath>
    <radialGradient id="radial-gradient" cx="0.504" cy="0.516" r="0.601" gradientTransform="matrix(-0.738, 0.506, 0.353, 0.703, -419.974, 204.329)" gradientUnits="objectBoundingBox">
      <stop offset="0" stop-color="#ffd5ce"/>
      <stop offset="1" stop-color="#fff"/>
    </radialGradient>
    <radialGradient id="radial-gradient-2" cx="0.5" cy="0.5" r="0.582" gradientTransform="matrix(-0.768, 0.506, 0.367, 0.703, -434.601, 203.223)" xlink:href="#radial-gradient"/>
    <linearGradient id="linear-gradient" x1="-102.429" y1="0.5" x2="-101.429" y2="0.5" gradientUnits="objectBoundingBox">
      <stop offset="0" stop-color="#e40880"/>
      <stop offset="1" stop-color="#ea6685"/>
    </linearGradient>
  </defs>
  <g id="그룹_17735" data-name="그룹 17735" transform="translate(-437.027 -375.013)">
    <path id="합치기_59" data-name="합치기 59" d="M-8879.092-1732.127c-30.662-24.024-46.9-39.564-62.282-58.272a36.283,36.283,0,0,1-4.068-5.968c-12.68-12.763-83.7-87.776-21.131-106.515,26.264-7.868,50.978-5.33,76.059-2.8,27.075,2.738,54.579,5.474,84.922-4.872,75.409-25.719,132.575-8.5,173.437,23.513,30.661,24.024,46.9,39.566,62.284,58.272a36.517,36.517,0,0,1,4.071,5.972c12.685,12.771,83.691,87.776,21.126,106.513-26.265,7.864-50.978,5.328-76.057,2.793-27.076-2.738-54.581-5.477-84.925,4.875-25.383,8.657-48.7,12.449-70.026,12.45C-8817.706-1696.162-8851.984-1710.888-8879.092-1732.127Z" transform="translate(9631.746 453.36) rotate(-13)" fill="#5bc0f6" stroke="rgba(0,0,0,0)" stroke-miterlimit="10" stroke-width="1" opacity="0.19"/>
    <g id="그룹_17715" data-name="그룹 17715" transform="translate(6 -24.988)">
      <g id="그룹_17210" data-name="그룹 17210" transform="translate(517.503 524.62)">
        <g id="그룹_17205" data-name="그룹 17205" transform="translate(105.905 55.715)" style="isolation: isolate">
          <path id="패스_68491" data-name="패스 68491" d="M236.174,570.343l-3.2,137.883,5.456-.574,3.8-134.115Z" transform="translate(-232.977 -570.343)" fill="#eca37a"/>
        </g>
        <g id="그룹_17206" data-name="그룹 17206" transform="translate(12.245 30.319)" style="isolation: isolate">
          <path id="패스_68492" data-name="패스 68492" d="M118.079,538.322l-3.2,137.883,5.456-.574,3.8-134.115Z" transform="translate(-114.883 -538.322)" fill="#eca37a"/>
        </g>
        <g id="그룹_17207" data-name="그룹 17207" transform="translate(202.773 6.273)" style="isolation: isolate">
          <path id="패스_68493" data-name="패스 68493" d="M357.912,508l-2.8,152.554,4.772-.635,3.326-148.386Z" transform="translate(-355.116 -508.002)" fill="#eca37a"/>
        </g>
        <g id="그룹_17208" data-name="그룹 17208" transform="translate(0 4.698)" style="isolation: isolate">
          <path id="패스_68494" data-name="패스 68494" d="M417.94,547.363,214.118,573.274a1.394,1.394,0,0,1-.625-.063L100.386,534.582a1.351,1.351,0,0,1-.942-1.313c0-.094.01-4.712.027-4.8.106-.539,4.786.481,5.462.4l198.951-22.813a3.988,3.988,0,0,1,1.793.182L416.692,541.64c.58.2,2.406-.77,2.457-.278,0,.041.007,4.543.008,4.585A1.371,1.371,0,0,1,417.94,547.363Z" transform="translate(-99.444 -506.017)" fill="#ffb082"/>
        </g>
        <g id="그룹_17209" data-name="그룹 17209" style="isolation: isolate">
          <path id="패스_68495" data-name="패스 68495" d="M417.94,541.439,214.118,567.351a1.393,1.393,0,0,1-.625-.063L100.386,528.659a1.392,1.392,0,0,1,.274-2.7l203.223-25.836a4,4,0,0,1,1.793.182l112.537,38.435A1.392,1.392,0,0,1,417.94,541.439Z" transform="translate(-99.444 -500.093)" fill="#ffc9a9"/>
        </g>
      </g>
      <g id="그룹_17486" data-name="그룹 17486" transform="translate(681.738 536.778)">
        <g id="그룹_17389" data-name="그룹 17389" transform="translate(0)">
          <g id="그룹_17211" data-name="그룹 17211" transform="translate(0.059 2.126)">
            <path id="패스_68496" data-name="패스 68496" d="M274.4,518.463l-52.753,6.73a1.385,1.385,0,0,1-.623-.063l-30.932-10.566a.624.624,0,0,1-.445-.6c0-.019,0-.586.005-.605.023-.122,2.685.491,2.838.472l50.43-5.7a.313.313,0,0,1,.141.014l30.068,9.192c.137.047,1.538-.109,1.544.008,0,.01,0,.815,0,.825A.307.307,0,0,1,274.4,518.463Z" transform="translate(-189.649 -508.123)" fill="#dbdbdb"/>
          </g>
          <g id="그룹_17213" data-name="그룹 17213" transform="translate(0.058 0.278)">
            <path id="패스_68498" data-name="패스 68498" d="M274.4,514.649l-52.753,6.73a1.386,1.386,0,0,1-.623-.063L189.86,510.671a.312.312,0,0,1,.062-.605l53-6.761a.313.313,0,0,1,.141.014l31.4,10.724A.312.312,0,0,1,274.4,514.649Z" transform="translate(-189.648 -503.302)" fill="#fff"/>
          </g>
          <g id="그룹_17216" data-name="그룹 17216" transform="translate(0 0)">
            <path id="패스_68501" data-name="패스 68501" d="M189.672,509.759a.176.176,0,0,1-.022-.35l53.534-6.829a.176.176,0,1,1,.045.349l-53.534,6.829Z" transform="translate(-189.496 -502.578)" fill="#c6c6c6"/>
          </g>
          <g id="그룹_17217" data-name="그룹 17217" transform="translate(7.595 2.016)">
            <path id="패스_68502" data-name="패스 68502" d="M225.633,519.917a1.382,1.382,0,0,1-.447-.074l-15.575-5.277a.447.447,0,0,1,.087-.866l45.935-5.86a.444.444,0,0,1,.2.021l15.779,5.347a.447.447,0,0,1-.087.866l-45.72,5.833A1.377,1.377,0,0,1,225.633,519.917Zm30.057-11.728h-.012l-45.934,5.859a.095.095,0,0,0-.018.184L225.3,519.51a1.029,1.029,0,0,0,.462.047l45.72-5.833h0a.089.089,0,0,0,.082-.084.09.09,0,0,0-.064-.1l-15.779-5.347A.1.1,0,0,0,255.69,508.189Z" transform="translate(-209.309 -507.837)" fill="#e2e2e2"/>
          </g>
          <g id="그룹_17218" data-name="그룹 17218" transform="translate(42.234 11.117)">
            <path id="패스_68503" data-name="패스 68503" d="M304.81,535.536a.557.557,0,0,1-.177-.029l-4.79-1.623a.26.26,0,0,1,.05-.5l14.126-1.8a.257.257,0,0,1,.117.012l4.852,1.644a.259.259,0,0,1-.051.5l-14.059,1.794A.567.567,0,0,1,304.81,535.536Zm-4.474-1.857,4.409,1.494a.188.188,0,0,0,.088.009l13.66-1.743-4.451-1.508Zm18.556-.291h0Zm-4.827-1.461h0Zm-.043,0h0Z" transform="translate(-299.668 -531.578)" fill="#e2e2e2"/>
          </g>
          <g id="그룹_17236" data-name="그룹 17236" transform="translate(9.739 2.594)">
            <g id="그룹_17224" data-name="그룹 17224" transform="translate(0 0.525)">
              <g id="그룹_17219" data-name="그룹 17219">
                <path id="패스_68504" data-name="패스 68504" d="M215.033,516.931a.132.132,0,0,1-.016-.263l47.051-5.955a.132.132,0,0,1,.033.262l-47.051,5.955Z" transform="translate(-214.901 -510.713)" fill="#e2e2e2"/>
              </g>
              <g id="그룹_17220" data-name="그룹 17220" transform="translate(2.739 0.95)">
                <path id="패스_68505" data-name="패스 68505" d="M222.178,519.41a.132.132,0,0,1-.016-.263l47.05-5.955a.132.132,0,1,1,.033.262l-47.05,5.955Z" transform="translate(-222.046 -513.191)" fill="#e2e2e2"/>
              </g>
              <g id="그룹_17221" data-name="그룹 17221" transform="translate(5.478 1.901)">
                <path id="패스_68506" data-name="패스 68506" d="M229.324,521.889a.132.132,0,0,1-.016-.263l47.05-5.955a.134.134,0,0,1,.148.115.132.132,0,0,1-.115.147l-47.05,5.955Z" transform="translate(-229.192 -515.67)" fill="#e2e2e2"/>
              </g>
              <g id="그룹_17222" data-name="그룹 17222" transform="translate(8.217 2.851)">
                <path id="패스_68507" data-name="패스 68507" d="M236.469,524.367a.132.132,0,0,1-.016-.263l47.051-5.955a.132.132,0,0,1,.033.262l-47.051,5.955Z" transform="translate(-236.337 -518.149)" fill="#e2e2e2"/>
              </g>
              <g id="그룹_17223" data-name="그룹 17223" transform="translate(11.114 3.775)">
                <path id="패스_68508" data-name="패스 68508" d="M244.024,526.778a.132.132,0,0,1-.016-.263l47.05-5.955a.133.133,0,0,1,.148.115.132.132,0,0,1-.115.147l-47.05,5.955Z" transform="translate(-243.892 -520.559)" fill="#e2e2e2"/>
              </g>
            </g>
            <g id="그룹_17235" data-name="그룹 17235" transform="translate(1.122)">
              <g id="그룹_17225" data-name="그룹 17225" transform="translate(0 4.945)">
                <path id="패스_68509" data-name="패스 68509" d="M235.025,528.256a.123.123,0,0,1-.042-.007L217.919,522.5a.132.132,0,1,1,.084-.25L235.067,528a.132.132,0,0,1-.042.257Z" transform="translate(-217.829 -522.243)" fill="#e2e2e2"/>
              </g>
              <g id="그룹_17226" data-name="그룹 17226" transform="translate(4.242 4.38)">
                <path id="패스_68510" data-name="패스 68510" d="M246.089,526.783a.136.136,0,0,1-.042-.007l-17.064-5.749a.132.132,0,1,1,.084-.25l17.064,5.749a.132.132,0,0,1-.042.257Z" transform="translate(-228.893 -520.77)" fill="#e2e2e2"/>
              </g>
              <g id="그룹_17227" data-name="그룹 17227" transform="translate(8.483 3.815)">
                <path id="패스_68511" data-name="패스 68511" d="M257.154,525.309a.123.123,0,0,1-.042-.007l-17.064-5.749a.132.132,0,1,1,.084-.25l17.064,5.749a.132.132,0,0,1-.042.257Z" transform="translate(-239.958 -519.296)" fill="#e2e2e2"/>
              </g>
              <g id="그룹_17228" data-name="그룹 17228" transform="translate(12.725 3.251)">
                <path id="패스_68512" data-name="패스 68512" d="M268.219,523.836a.135.135,0,0,1-.042-.007l-17.064-5.748a.132.132,0,0,1,.084-.25l17.064,5.748a.132.132,0,0,1-.042.257Z" transform="translate(-251.023 -517.824)" fill="#e2e2e2"/>
              </g>
              <g id="그룹_17229" data-name="그룹 17229" transform="translate(17.123 2.745)">
                <path id="패스_68513" data-name="패스 68513" d="M279.693,522.516a.137.137,0,0,1-.042-.006l-17.064-5.749a.132.132,0,1,1,.084-.25l17.064,5.749a.132.132,0,0,1-.042.257Z" transform="translate(-262.497 -516.503)" fill="#e2e2e2"/>
              </g>
              <g id="그룹_17230" data-name="그룹 17230" transform="translate(21.424 2.18)">
                <path id="패스_68514" data-name="패스 68514" d="M290.912,521.044a.123.123,0,0,1-.042-.007l-17.064-5.748a.132.132,0,1,1,.084-.25l17.064,5.748a.132.132,0,0,1-.042.257Z" transform="translate(-273.716 -515.031)" fill="#e2e2e2"/>
              </g>
              <g id="그룹_17231" data-name="그룹 17231" transform="translate(25.705 1.635)">
                <path id="패스_68515" data-name="패스 68515" d="M302.079,519.622a.134.134,0,0,1-.042-.007l-17.064-5.749a.132.132,0,1,1,.084-.25l17.064,5.749a.132.132,0,0,1-.042.257Z" transform="translate(-284.883 -513.609)" fill="#e2e2e2"/>
              </g>
              <g id="그룹_17232" data-name="그룹 17232" transform="translate(30.064 1.129)">
                <path id="패스_68516" data-name="패스 68516" d="M313.451,518.3a.126.126,0,0,1-.042-.007l-17.064-5.749a.132.132,0,1,1,.084-.25l17.064,5.749a.132.132,0,0,1-.042.257Z" transform="translate(-296.255 -512.29)" fill="#e2e2e2"/>
              </g>
              <g id="그룹_17233" data-name="그룹 17233" transform="translate(34.306 0.564)">
                <path id="패스_68517" data-name="패스 68517" d="M324.516,516.829a.123.123,0,0,1-.042-.007l-17.064-5.749a.132.132,0,0,1,.084-.25l17.064,5.749a.132.132,0,0,1-.042.257Z" transform="translate(-307.32 -510.816)" fill="#e2e2e2"/>
              </g>
              <g id="그룹_17234" data-name="그룹 17234" transform="translate(38.548)">
                <path id="패스_68518" data-name="패스 68518" d="M335.581,515.356a.141.141,0,0,1-.042-.006L318.475,509.6a.132.132,0,0,1,.084-.25l17.064,5.748a.132.132,0,0,1-.043.257Z" transform="translate(-318.385 -509.344)" fill="#e2e2e2"/>
              </g>
            </g>
          </g>
        </g>
      </g>
      <g id="그룹_17390" data-name="그룹 17390" transform="translate(808.129 532.261)" style="isolation: isolate">
        <path id="패스_68625" data-name="패스 68625" d="M453.529,521.406l-2.207,120.425,3.766-.5L457.714,524.2Z" transform="translate(-451.322 -521.406)" fill="#eca37a"/>
      </g>
      <g id="그룹_17391" data-name="그룹 17391" transform="translate(733.775 597.429)">
        <path id="패스_68626" data-name="패스 68626" d="M368.905,607.7s-6.265-.677-9.57,6.264c-1.565,3.287-2.242,8.343-1.408,23.157.564,10.026,8.292,92.159,8.292,92.159l9.171.469s.405-9.37,1-20.653c.682-12.967,1.565-28.564,1.565-37.083,0-9.274-.619-18.3-.939-25.034a120.209,120.209,0,0,0-1.625-16.284s35.965-2.359,46.578-4.127l-15.33-23Z" transform="translate(-357.568 -603.575)" fill="#fccbc3"/>
      </g>
      <g id="그룹_17392" data-name="그룹 17392" transform="translate(728.469 718.207)">
        <path id="패스_68627" data-name="패스 68627" d="M364.106,755.862l.246,5.9c-3.118.526-6.444,1.493-8.33,1.925-4.909,1.125-5.4,1.565-5.059,2.4.51,1.257,6.819,1.161,11.578,1.148,3.757-.009,11.161-.73,11.161-.73.1-2.92.626-10.639.626-10.639Z" transform="translate(-350.878 -755.862)" fill="#fccbc3"/>
      </g>
      <g id="그룹_17393" data-name="그룹 17393" transform="translate(724.888 597.429)">
        <path id="패스_68628" data-name="패스 68628" d="M357.824,607.7s-6.264-.677-9.569,6.264c-1.565,3.287-2.805,7.335-.991,22.062.887,7.2,2.467,26.535,4.069,44.123,2.329,25.589,3.808,49.131,3.808,49.131l9.17.469s.406-9.37,1-20.653c.682-12.967,1.565-28.564,1.565-37.083,0-9.274-.618-18.3-.939-25.034A120.1,120.1,0,0,0,364.31,630.7s35.966-2.359,46.579-4.127l-15.33-23Z" transform="translate(-346.365 -603.575)" fill="#ffe4d7"/>
      </g>
      <g id="그룹_17394" data-name="그룹 17394" transform="translate(760.743 526.532)">
        <path id="패스_68629" data-name="패스 68629" d="M400.1,514.183l-8.528.2.193,8.713,9.791.593Z" transform="translate(-391.572 -514.183)" fill="#ffe4d7"/>
      </g>
      <g id="그룹_17395" data-name="그룹 17395" transform="translate(812.864 468.871)">
        <path id="패스_68630" data-name="패스 68630" d="M459.787,458.22l-1.947-15.426s14.407-1.8,14.429-1.19c.021.56,1.237,11.026,1.237,11.026l2.247,1.744-4.028,13.168-14.434-3.6Z" transform="translate(-457.291 -441.479)" fill="#ffc1b4"/>
      </g>
      <g id="그룹_17407" data-name="그룹 17407" transform="translate(792.699 425.266)">
        <g id="그룹_17396" data-name="그룹 17396" transform="translate(0 3.471)">
          <path id="패스_68631" data-name="패스 68631" d="M445.4,403.438l-1.18-12.537c-4.586-.457-12.04,5.359-12.341,13.8a14.948,14.948,0,0,0,6.035,12.329Z" transform="translate(-431.866 -390.875)" fill="#141213"/>
        </g>
        <g id="그룹_17397" data-name="그룹 17397" transform="translate(0.038 2.48)">
          <path id="패스_68632" data-name="패스 68632" d="M439.994,435.556a11.463,11.463,0,0,0,3.731,4.5c2.03,1.337,6.5,1.876,10.957.442,2.9-.933,7.723-3.7,9.876-6.338,2.819-3.451,2.436-5.154,4.155-7.161,2.68-3.128,8.09-2.708,9.571-8.428,4.054-15.649-1.87-24-14.729-27.9-10.217-3.092-21.916.367-27.246,13.985,0,0-2.651,4.257-.217,11.632a5.328,5.328,0,0,1-.573,4.058c-.762,1.038-2.134,2.594-3.175,3.742a1.649,1.649,0,0,0,.363,2.52,37.818,37.818,0,0,1,4.75,3.34Z" transform="translate(-431.914 -389.625)" fill="#ffe4d7"/>
        </g>
        <g id="그룹_17398" data-name="그룹 17398" transform="translate(4.859 26.069)">
          <path id="패스_68633" data-name="패스 68633" d="M447.273,421.092a.514.514,0,0,1-.125-.015,23.3,23.3,0,0,0-8.562-.5.508.508,0,1,1-.17-1,23.853,23.853,0,0,1,8.981.515.509.509,0,0,1-.125,1Z" transform="translate(-437.993 -419.369)" fill="#b39f9b"/>
        </g>
        <g id="그룹_17399" data-name="그룹 17399" transform="translate(6.88 31.846)">
          <path id="패스_68634" data-name="패스 68634" d="M440.541,428.657c.009,1.1.612,1.99,1.346,1.984s1.322-.9,1.313-2-.611-1.99-1.344-1.983S440.533,427.556,440.541,428.657Z" transform="translate(-440.541 -426.653)" fill="#1a2729"/>
        </g>
        <g id="그룹_17402" data-name="그룹 17402" transform="translate(24.818 26.621)">
          <g id="그룹_17400" data-name="그룹 17400">
            <path id="패스_68635" data-name="패스 68635" d="M463.924,426.074s.692-5.424,4.2-5.953,6.491,2.652,5.7,7.668c-.761,4.809-3.774,8.839-7.362,8.613-3.836-.241-3.357-5.971-3.187-8.018Z" transform="translate(-463.158 -420.064)" fill="#ffe4d7"/>
          </g>
          <g id="그룹_17401" data-name="그룹 17401" transform="translate(2.791 4.892)">
            <path id="패스_68636" data-name="패스 68636" d="M468.619,433.7A1.923,1.923,0,0,1,466.9,432.6a3.216,3.216,0,0,1-.217-1.467,8.5,8.5,0,0,1,.817-3.3,2.928,2.928,0,0,1,1.805-1.543,2.4,2.4,0,0,1,2.076.6.339.339,0,0,1-.423.529,1.766,1.766,0,0,0-1.5-.473,2.261,2.261,0,0,0-1.344,1.176,7.577,7.577,0,0,0-.382.964,1.621,1.621,0,0,1,.926-.186,1.893,1.893,0,0,1,1.042.508,2.8,2.8,0,0,1,.885,2.319,2.235,2.235,0,0,1-1.512,1.916A1.681,1.681,0,0,1,468.619,433.7Zm-1.153-3.537a7.723,7.723,0,0,0-.1.992,2.591,2.591,0,0,0,.155,1.156,1.219,1.219,0,0,0,1.371.675,1.57,1.57,0,0,0,1.02-1.339,2.105,2.105,0,0,0-.665-1.74,1.257,1.257,0,0,0-.662-.338,1.311,1.311,0,0,0-1.064.544A.341.341,0,0,1,467.465,430.166Z" transform="translate(-466.678 -426.232)" fill="#d38479"/>
          </g>
        </g>
        <g id="그룹_17403" data-name="그룹 17403" transform="translate(9.077)">
          <path id="패스_68637" data-name="패스 68637" d="M480.885,419.507s4.784-14.652-1.677-22.311c-5.366-6.361-8.154-6.686-13.77-7.612-5.325-4.177-13.573-4.069-17.5.055l-4.621,11.827s-.454,3.663,5.672,9.162c5.922,5.316,9.374,5.7,9.374,5.7l3.533-2.25a12.278,12.278,0,0,1,3.615-.289c2.066.152,4.651,2.09,4.182,6.683,0,0-.916,6.967-5.251,8.7.613,2.447,2.619,3.509,4.388,4.1,4.815.393,7.719-4.455,7.763-4.521A40.733,40.733,0,0,0,480.885,419.507Z" transform="translate(-443.312 -386.498)" fill="#352c28"/>
        </g>
        <g id="그룹_17404" data-name="그룹 17404" transform="translate(22.381 22.161)">
          <path id="패스_68638" data-name="패스 68638" d="M463.833,423.421a15.471,15.471,0,0,1,.621-1.581s1.169-2.532,3.514-2.339l-6-5.061-1.374,5.153a22.145,22.145,0,0,0,1.031,12.84c2.41,5.783,3.016,9.42.281,11.548a7.159,7.159,0,0,0,3.911-7.087c-.224-2.741-1.782-5.877-2.246-8.684A12.3,12.3,0,0,1,463.833,423.421Z" transform="translate(-460.086 -414.441)" fill="#352c28"/>
        </g>
        <g id="그룹_17405" data-name="그룹 17405" transform="translate(8.541 46.315)">
          <path id="패스_68639" data-name="패스 68639" d="M446.151,447.018a9.874,9.874,0,0,1-3.3-.57.339.339,0,0,1,.245-.631c.041.016,4.189,1.577,7.227-.846a.339.339,0,1,1,.423.529A7.231,7.231,0,0,1,446.151,447.018Z" transform="translate(-442.635 -444.897)" fill="#c55e64"/>
        </g>
        <g id="그룹_17406" data-name="그룹 17406" transform="translate(3.234 2.49)">
          <path id="패스_68640" data-name="패스 68640" d="M436.415,397.748s-2.468,9.723,3.888,16.932c0,0,6.5.737,9.736.851,0,0-3.712-7.07-3.4-13.55a121.46,121.46,0,0,1,1.252-12.221,10.5,10.5,0,0,0-7.251,1.508A12.317,12.317,0,0,0,436.415,397.748Z" transform="translate(-435.943 -389.638)" fill="#352c28"/>
        </g>
      </g>
      <g id="그룹_17408" data-name="그룹 17408" transform="translate(713.478 566.818)" style="isolation: isolate">
        <path id="패스_68641" data-name="패스 68641" d="M457.257,589.865c-.65-6.645-1.215-12.5-1.215-12.5l-31.276-12.381c-7.074,7.959-8.844,18.571-8.844,18.571s-31.475,1.256-53.485,3.55a28.715,28.715,0,0,0-14,4.928,29.193,29.193,0,0,0-6.591,7.18,10.6,10.6,0,0,0-.685.931c-3.858,5.946-9.179,17.941-9.179,17.941s37.568,11.213,43.457,12.3l1.853-5.6c7.741-.4,30.957-1.595,48.39-2.321,21.225-.885,28.547-2.348,31.837-16.8C458.568,601.037,457.783,595.258,457.257,589.865Z" transform="translate(-331.979 -564.979)" fill="#fc8458"/>
      </g>
      <g id="그룹_17409" data-name="그룹 17409" transform="translate(765.585 519.011)">
        <path id="패스_68642" data-name="패스 68642" d="M425.389,504.7l-27.122,4.127-.59,16.509,19.457.589Z" transform="translate(-397.677 -504.699)" fill="#5b7c68"/>
      </g>
      <g id="그룹_17410" data-name="그룹 17410" transform="translate(792.58 483.286)">
        <path id="패스_68643" data-name="패스 68643" d="M438.529,479.228s3.885-6.816,14.839-14.1c0,0,9.417,1.045,16.009-5.472a47.764,47.764,0,0,1,17.795,30.924s-3.8,37.957-4.016,41.312c-.381,5.847-1.29,30.178-1.29,30.178s-21.512.672-28.153.443c-8.55-.3-13.292-1.2-21.988-1.646,0,0-.123-24,.615-32.846.391-4.7-.59-21.226-.59-29.48S438.529,479.228,438.529,479.228Z" transform="translate(-431.716 -459.654)" fill="#729a82"/>
      </g>
      <g id="그룹_17411" data-name="그룹 17411" transform="translate(740.698 546.502)">
        <path id="패스_68644" data-name="패스 68644" d="M372.782,539.469l-4.968-1.212-2.856,8.131,10.15,2.349Z" transform="translate(-364.959 -538.257)" fill="#ffe4d7"/>
      </g>
      <g id="그룹_17412" data-name="그룹 17412" transform="translate(748.498 494.935)">
        <path id="패스_68645" data-name="패스 68645" d="M438.129,502.939l-4.422-30.765a66,66,0,0,0-9.728,12.163c-5.159,8.443-16.214,31.243-18.868,35.139l-31.347,3.578.589,17.171s28.7-.224,38.718-1.655c4.687-.669,7.812-4.722,9.286-7.727C427.459,520.443,438.129,502.939,438.129,502.939Z" transform="translate(-373.764 -472.174)" fill="#729a82"/>
      </g>
      <g id="그룹_17413" data-name="그룹 17413" transform="translate(790.599 521.268)">
        <path id="패스_68646" data-name="패스 68646" d="M429.557,544.1a.339.339,0,0,1-.24-.579,40.446,40.446,0,0,0,5.353-7.254c2.762-4.652,14.589-28.3,14.708-28.533a.339.339,0,1,1,.607.3c-.119.239-11.957,23.9-14.732,28.576A41.082,41.082,0,0,1,429.8,544,.339.339,0,0,1,429.557,544.1Z" transform="translate(-429.218 -507.545)" fill="#465b4f"/>
      </g>
      <g id="그룹_17417" data-name="그룹 17417" transform="translate(723.285 531.574)">
        <g id="그룹_17414" data-name="그룹 17414" transform="translate(11.508 0)">
          <path id="패스_68647" data-name="패스 68647" d="M368.836,538.845a11.126,11.126,0,0,0-2.063-6.89,22.152,22.152,0,0,1-2.911-4.422c-.9-2.379-1.29-3.317-1.376-5.027,0,0,.123-1.569-1.1-1.892-1.643-.433-2.616,1.1-2.524,3.469a34.12,34.12,0,0,0,1.907,9.567,16.858,16.858,0,0,0,3.455,5.414Z" transform="translate(-358.852 -520.54)" fill="#ffe4d7"/>
        </g>
        <g id="그룹_17415" data-name="그룹 17415" transform="translate(0 8.131)">
          <path id="패스_68648" data-name="패스 68648" d="M358.165,541.229l-.045,0-.988-3.271-.045,0-.43-1.422,1.9.376-1.765-5.841s-5.989-.309-8.531-.273c0,0-3.007.017-3.28,1.511a1.667,1.667,0,0,0,1.31,2.214c-.821.068-1.727.324-1.872,1.115a1.947,1.947,0,0,0,1.5,2.573,1.72,1.72,0,0,0-.526,1.618,2.027,2.027,0,0,0,1.56,1.654,1.183,1.183,0,0,0-.471.7c-.362,1.366.705,2.471,2.717,2.854l10.732,2.037Z" transform="translate(-344.343 -530.792)" fill="#ffe4d7"/>
        </g>
        <g id="그룹_17416" data-name="그룹 17416" transform="translate(9.621 11.111)">
          <path id="패스_68649" data-name="패스 68649" d="M356.79,545.431a9.322,9.322,0,0,0,10.842,1.213l-.592-5.156-4.888-6.939-5.677,3.785Z" transform="translate(-356.474 -534.55)" fill="#ffe4d7"/>
        </g>
      </g>
      <g id="그룹_17418" data-name="그룹 17418" transform="translate(811.448 437.35)">
        <path id="패스_68650" data-name="패스 68650" d="M474.5,427.972l-7.533,4.353s.752,10.092-1.607,13.925a5.3,5.3,0,0,1-5.355,2.555c-1.7-.2-3.515-1.052-3.784-2.26a8.308,8.308,0,0,0-.638,4.521,7.035,7.035,0,0,0,3.931,5.6c5.9,2.407,8.795-.688,8.795-.688s-2.063,8.55,9.434,12.383,14.593,6.387,15.133,10.22a15.17,15.17,0,0,0,4.275-4.767,14.173,14.173,0,0,0,1.228-11.35c-2.948-9.139-10.514-11.2-10.809-28.3s-.1-23.29-4.815-32.429Z" transform="translate(-455.506 -401.734)" fill="#352c28"/>
      </g>
      <g id="그룹_17423" data-name="그룹 17423" transform="translate(724.28 539.395)">
        <g id="그룹_17419" data-name="그룹 17419" transform="translate(0.036 3.615)">
          <path id="패스_68651" data-name="패스 68651" d="M355.933,536.161l-.045,0a48.488,48.488,0,0,0-9.872-.441.339.339,0,1,1-.065-.676,49.467,49.467,0,0,1,10.026.444.339.339,0,0,1-.044.675Z" transform="translate(-345.643 -534.959)" fill="#bf736b"/>
        </g>
        <g id="그룹_17420" data-name="그룹 17420" transform="translate(0 7.38)">
          <path id="패스_68652" data-name="패스 68652" d="M356.181,540.976a.271.271,0,0,1-.044,0,58.61,58.61,0,0,0-10.179-.55.327.327,0,0,1-.359-.317.34.34,0,0,1,.317-.36,59.484,59.484,0,0,1,10.31.555.339.339,0,0,1-.044.676Z" transform="translate(-345.597 -539.707)" fill="#bf736b"/>
        </g>
        <g id="그룹_17421" data-name="그룹 17421" transform="translate(0.897 10.949)">
          <path id="패스_68653" data-name="패스 68653" d="M357.029,545.605l-.031,0c-5.867-.512-9.908-.716-9.948-.719a.338.338,0,0,1-.321-.355.332.332,0,0,1,.354-.321c.04,0,4.093.206,9.974.719a.339.339,0,0,1-.029.677Z" transform="translate(-346.728 -544.207)" fill="#bf736b"/>
        </g>
        <g id="그룹_17422" data-name="그룹 17422" transform="translate(0.959)">
          <path id="패스_68654" data-name="패스 68654" d="M359.527,531.68a.363.363,0,0,1-.066-.005,55.169,55.169,0,0,0-9.62-.585c-1.83.036-2.643.144-2.651.144a.339.339,0,0,1-.091-.671,26.6,26.6,0,0,1,2.729-.152,56.008,56.008,0,0,1,9.764.6.339.339,0,0,1-.064.672Z" transform="translate(-346.806 -530.402)" fill="#bf736b"/>
        </g>
      </g>
      <g id="그룹_17428" data-name="그룹 17428" transform="translate(734.974 521.742)">
        <g id="그룹_17424" data-name="그룹 17424" transform="translate(0)">
          <path id="패스_68655" data-name="패스 68655" d="M382.285,511.123a41.54,41.54,0,0,0-9.5-2.444c-4.51-.554-5.847-.762-9.458-.221-1.754.263-1.674,1.589-1.674,1.589a1.478,1.478,0,0,0-1.462,1.629,1.167,1.167,0,0,0-1.064,1.5,1.369,1.369,0,0,0,.767.887,1.487,1.487,0,0,0-.4.91c0,1.112,1.5,1.376,1.5,1.376s3.685,1.056,7.91,2.432c3.677,1.2,6.449,2.443,6.449,2.443a33.037,33.037,0,0,0-6.384,3.291s-1.1.965-.5,1.93,1.962.6,1.962.6a38.158,38.158,0,0,1,9.577-2.394c5.985-.8,7.026-4.2,7.026-4.2l-.221-7.076A33.866,33.866,0,0,0,382.285,511.123Z" transform="translate(-359.081 -508.142)" fill="#ffe4d7"/>
        </g>
        <g id="그룹_17425" data-name="그룹 17425" transform="translate(0.398 5.157)">
          <path id="패스_68656" data-name="패스 68656" d="M373.827,518.3a.327.327,0,0,1-.113-.02,78.268,78.268,0,0,0-10.945-2.834,6.232,6.232,0,0,0-2.705.022.339.339,0,0,1-.285-.616,6.626,6.626,0,0,1,3.092-.076,79.01,79.01,0,0,1,11.067,2.866.339.339,0,0,1-.112.659Z" transform="translate(-359.583 -514.644)" fill="#bf736b"/>
        </g>
        <g id="그룹_17426" data-name="그룹 17426" transform="translate(0.841 2.892)">
          <path id="패스_68657" data-name="패스 68657" d="M375.121,515.152a.349.349,0,0,1-.116-.021,70.1,70.1,0,0,0-11.036-2.489,8.658,8.658,0,0,0-3.387-.061.339.339,0,0,1-.2-.646,9.845,9.845,0,0,1,3.687.036,71.02,71.02,0,0,1,11.173,2.523.339.339,0,0,1-.117.658Z" transform="translate(-360.141 -511.788)" fill="#bf736b"/>
        </g>
        <g id="그룹_17427" data-name="그룹 17427" transform="translate(2.237 1.296)">
          <path id="패스_68658" data-name="패스 68658" d="M376.517,512.427a.348.348,0,0,1-.094-.013,63.117,63.117,0,0,0-8.446-1.759c-3.926-.473-5.617.047-5.633.052a.339.339,0,0,1-.21-.645c.071-.023,1.819-.575,5.923-.079a63.736,63.736,0,0,1,8.554,1.78.339.339,0,0,1-.094.665Z" transform="translate(-361.901 -509.776)" fill="#bf736b"/>
        </g>
      </g>
      <g id="그룹_17429" data-name="그룹 17429" transform="translate(719.862 718.598)">
        <path id="패스_68659" data-name="패스 68659" d="M353.255,756.356l.245,5.9c-3.117.526-6.442,1.493-8.329,1.925-4.91,1.125-5.4,1.565-5.059,2.4.51,1.256,6.819,1.16,11.578,1.148,3.757-.011,11.161-.73,11.161-.73.1-2.921.626-10.639.626-10.639Z" transform="translate(-340.027 -756.356)" fill="#ffe4d7"/>
      </g>
      <g id="그룹_17430" data-name="그룹 17430" transform="translate(773.724 628.056)" opacity="0.73" style="isolation: isolate">
        <path id="패스_68660" data-name="패스 68660" d="M422.334,642.193l-5.029,83.084h2.484l5.6-83.084Z" transform="translate(-417.306 -642.193)" fill="#add3e6"/>
      </g>
      <g id="그룹_17431" data-name="그룹 17431" transform="translate(755.533 629.092)" opacity="0.73" style="isolation: isolate">
        <path id="패스_68661" data-name="패스 68661" d="M402.041,643.5l-7.673,94.565h2.484l8.323-94.565Z" transform="translate(-394.368 -643.499)" fill="#add3e6"/>
      </g>
      <g id="그룹_17432" data-name="그룹 17432" transform="translate(818.42 627.222)" opacity="0.73" style="isolation: isolate">
        <path id="패스_68662" data-name="패스 68662" d="M481.8,725.059l-5.079-83.919h-3.061l5.656,83.919Z" transform="translate(-473.661 -641.141)" fill="#add3e6"/>
      </g>
      <g id="그룹_17433" data-name="그룹 17433" transform="translate(833.945 629.092)" opacity="0.73" style="isolation: isolate">
        <path id="패스_68663" data-name="패스 68663" d="M496.37,643.5l7.673,94.565h-2.484L493.237,643.5Z" transform="translate(-493.237 -643.499)" fill="#add3e6"/>
      </g>
      <g id="그룹_17434" data-name="그룹 17434" transform="translate(755.287 527.292)" style="isolation: isolate">
        <path id="패스_68664" data-name="패스 68664" d="M394.059,612.776l68.845-3.025s6.277.431,10.483-4.069c2.183-2.334,2.965-8.736,2.66-14-.939-16.2-4.851-43.107,3.964-76.538h9.179a206.853,206.853,0,0,0-6.884,44.853,190.353,190.353,0,0,0,1.877,36.092c.835,5.841,1.251,22.113-15.855,23.365s-74.269-.834-74.269-.834Z" transform="translate(-394.059 -515.141)" fill="#99c9e1"/>
      </g>
      <g id="그룹_64" data-name="그룹 64" transform="translate(471.835 527.293)">
        <path id="패스_176" data-name="패스 176" d="M2692.07,1441.813c5.462-29.969,4.266-40.688-10.363-65.149s-16.026-69.984-21.54-56.632-4.772,46.88,12.51,63.151,19.609,23.557,20.635,30.18-2.468,26.978-2.468,26.978Z" transform="translate(-2657.116 -1278.392)" fill="#9cd499"/>
        <path id="패스_177" data-name="패스 177" d="M2694.807,1422.569c.009-.115.017-.229.025-.343-.321-2.459-2.058-15.1-4.459-20.093-2.667-5.539-14.359-15.18-17.641-27.283s-8.484-21.483-11.9-29.129c-4.506-10.094-2.043-23.514,1.683-27.873a.92.92,0,0,0-.272-.125l-1.237.748a8.744,8.744,0,0,0-.839,1.628c-5.514,13.352-4.772,46.88,12.51,63.151s19.609,23.556,20.635,30.18a38.861,38.861,0,0,1,0,7.688Z" transform="translate(-2657.116 -1278.461)" fill="#74b570"/>
        <path id="패스_178" data-name="패스 178" d="M2739.052,1337.261c4.063-35.218,2.709-47.409-5.148-75.584s43.346-92.379,41.72-81.272-7.044,38.74-21.131,56.078-15.171,31.425-12.462,46.325-.542,49.576-.542,49.576l-1.625,6.231Z" transform="translate(-2711.563 -1179.128)" fill="#9cd499"/>
        <g id="그룹_55" data-name="그룹 55" transform="translate(24.015 3.945)">
          <path id="패스_179" data-name="패스 179" d="M2747.23,1332.608h-.013a.339.339,0,0,1-.327-.353c0-.109.407-10.966.2-19.877a166.565,166.565,0,0,0-4.09-29.455c-1.339-4.781-3.023-20.814,5.151-37.371a214.62,214.62,0,0,1,11.818-20.678c4.446-7.132,9.978-16.01,18.754-31.647a.34.34,0,0,1,.593.333c-8.785,15.651-14.321,24.535-18.771,31.674a214.375,214.375,0,0,0-11.786,20.619c-8.079,16.365-6.425,32.176-5.106,36.887,1.48,5.283,3.911,20.656,4.115,29.623.2,8.933-.2,19.809-.206,19.918A.34.34,0,0,1,2747.23,1332.608Z" transform="translate(-2741.886 -1193.054)" fill="#74b570"/>
        </g>
        <path id="패스_180" data-name="패스 180" d="M2735.362,1521.633c2.438-23.569,2.846-11.945-7.28-43.969-11.589-36.652,29.765-69.19,36.538-55.916s14.629,54.995,11.649,53.64-22.756-40.094-23.3-38.469-26.82,15.171-25.736,28.988,11.107,35.76,11.107,35.76l-.271,20.238Z" transform="translate(-2706.519 -1350.847)" fill="#9cd499"/>
        <g id="그룹_56" data-name="그룹 56" transform="translate(19.187 67.536)">
          <path id="패스_181" data-name="패스 181" d="M2737.212,1520.771l-.034,0-2.709-.271a.34.34,0,0,1-.3-.373c.282-2.723.542-5.016.751-6.859,1.135-10.006,1.135-10.006-1.971-18.578-1.4-3.873-3.326-9.179-6.044-17.779a43.812,43.812,0,0,1-1.562-19.812,50.791,50.791,0,0,1,6.039-17.344c5.364-9.586,13.805-17.82,21.506-20.976,5.351-2.194,9.427-1.48,11.182,1.959,2.875,5.635,6.312,17.172,9.194,30.862,1.664,7.9,4.108,21.66,2.72,23.113a.6.6,0,0,1-.708.13c-1.626-.74-7.009-10.238-14.436-23.576-3.724-6.687-7.566-13.588-8.6-14.778a27.558,27.558,0,0,1-3.66,2.675c-7.361,4.992-22.677,15.381-21.855,25.861,1.066,13.6,10.978,35.426,11.077,35.646a.34.34,0,0,1,.031.145l-.271,19.623a.34.34,0,0,1-.34.335Zm-2.336-.916,2,.2.265-19.176c-.625-1.383-10.06-22.475-11.105-35.8-.853-10.874,14.685-21.413,22.152-26.478a24.954,24.954,0,0,0,3.6-2.653.4.4,0,0,1,.338-.271c.657-.061,1.956,2.078,9.3,15.259,5.268,9.46,12.466,22.389,14.087,23.271.125-.2.493-1.314-.223-7.034-.519-4.136-1.469-9.579-2.676-15.323-2.875-13.683-6.3-25.2-9.158-30.8-1.574-3.084-5.335-3.682-10.319-1.639-13.5,5.535-34.194,30.093-25.591,57.3,2.714,8.587,4.634,13.884,6.035,17.752,3.16,8.722,3.16,8.722,2.007,18.887C2735.38,1515.2,2735.143,1517.292,2734.876,1519.856Z" transform="translate(-2724.847 -1417.525)" fill="#74b570"/>
        </g>
        <path id="패스_182" data-name="패스 182" d="M2743.12,1697.464h-12.294c-.845,0-1.6-.48-1.68-1.078l-4.131-31.056a2.2,2.2,0,0,1,2.11-2.64h19.7a2.2,2.2,0,0,1,2.11,2.64l-4.131,31.056A1.6,1.6,0,0,1,2743.12,1697.464Z" transform="translate(-2705.763 -1525.701)" fill="#7bcee8"/>
        <path id="패스_183" data-name="패스 183" d="M2775.492,1704.744h-1.76c-.861,0-1.554-.5-1.54-1.119l.623-26.826a2.5,2.5,0,0,1,2.43-2.458h2.671a2.148,2.148,0,0,1,2.112,2.458l-2.852,26.826C2777.111,1704.246,2776.353,1704.744,2775.492,1704.744Z" transform="translate(-2739.592 -1534.052)" fill="#a2dff2"/>
        <g id="그룹_57" data-name="그룹 57" transform="translate(21.125 85.451)">
          <path id="패스_184" data-name="패스 184" d="M2733.355,1605.986l.217-.378a77.616,77.616,0,0,1-1.887-8.415A42.863,42.863,0,0,0,2733.355,1605.986Z" transform="translate(-2731.685 -1564.209)" fill="#74b570"/>
          <path id="패스_185" data-name="패스 185" d="M2733.65,1499.84a25.273,25.273,0,0,0-1.553,6.134c3.629-11.913,23.837-22.668,25.149-24.481l.233-.456C2749.889,1478.916,2737.751,1489.583,2733.65,1499.84Z" transform="translate(-2731.98 -1480.764)" fill="#74b570"/>
        </g>
        <g id="그룹_58" data-name="그룹 58" transform="translate(21.634 72.906)">
          <path id="패스_186" data-name="패스 186" d="M2781.618,1487.381a.34.34,0,0,1-.33-.259l-3.671-14.939c-2.868-11.706-6.436-26.274-10.442-32.76-.661-1.069-3.545-2.515-7.631-2.227-5.521.391-16.166,4.206-25.409,25.364a.34.34,0,0,1-.624-.272c9.388-21.486,20.31-25.368,25.986-25.77,4.415-.31,7.488,1.3,8.257,2.548,4.062,6.576,7.495,20.591,10.524,32.955l3.672,14.938a.341.341,0,0,1-.249.412A.345.345,0,0,1,2781.618,1487.381Z" transform="translate(-2733.483 -1436.48)" fill="#74b570"/>
        </g>
        <g id="그룹_59" data-name="그룹 59" transform="translate(56.814 78.203)">
          <path id="패스_187" data-name="패스 187" d="M2859.853,1481.3a.278.278,0,0,1-.04,0,.34.34,0,0,1-.3-.377,79.909,79.909,0,0,0-1.838-25.314.34.34,0,0,1,.66-.165,80.663,80.663,0,0,1,1.854,25.558A.339.339,0,0,1,2859.853,1481.3Z" transform="translate(-2857.666 -1455.179)" fill="#74b570"/>
        </g>
        <g id="그룹_60" data-name="그룹 60" transform="translate(54.865 75.33)">
          <path id="패스_188" data-name="패스 188" d="M2851.128,1466.439l-.041,0a.34.34,0,0,1-.3-.377,114.759,114.759,0,0,0,.409-20.646.34.34,0,0,1,.677-.066,115.51,115.51,0,0,1-.411,20.792A.34.34,0,0,1,2851.128,1466.439Z" transform="translate(-2850.787 -1445.04)" fill="#74b570"/>
        </g>
        <g id="그룹_61" data-name="그룹 61" transform="translate(41.942 20.356)">
          <path id="패스_189" data-name="패스 189" d="M2805.509,1267.048a.34.34,0,0,1-.147-.646,38.776,38.776,0,0,0,15.438-15.239.34.34,0,1,1,.6.322,39.492,39.492,0,0,1-15.742,15.53A.339.339,0,0,1,2805.509,1267.048Z" transform="translate(-2805.168 -1250.984)" fill="#74b570"/>
        </g>
        <g id="그룹_62" data-name="그룹 62" transform="translate(34.763 38.613)">
          <path id="패스_190" data-name="패스 190" d="M2780.165,1325.544a.34.34,0,0,1-.068-.673c.08-.016,8.041-1.722,17.5-9.367a.34.34,0,0,1,.427.529c-9.594,7.757-17.705,9.489-17.786,9.5A.347.347,0,0,1,2780.165,1325.544Z" transform="translate(-2779.826 -1315.428)" fill="#74b570"/>
        </g>
        <g id="그룹_63" data-name="그룹 63" transform="translate(28.608 53.587)">
          <path id="패스_191" data-name="패스 191" d="M2758.664,1375.332c-.139,0-.222,0-.246-.007a.34.34,0,1,1,.05-.678c.054,0,5.541.3,14.335-6.292a.34.34,0,0,1,.408.544C2765.135,1374.955,2759.851,1375.332,2758.664,1375.332Z" transform="translate(-2758.102 -1368.287)" fill="#74b570"/>
        </g>
      </g>
      <g id="그룹_17494" data-name="그룹 17494" transform="translate(539.702 400)">
        <g id="그룹_17492" data-name="그룹 17492" transform="translate(91.039 122.513)">
          <g id="그룹_17490" data-name="그룹 17490" transform="translate(0 12.273)">
            <g id="그룹_17487" data-name="그룹 17487" transform="translate(7.3 0.413)">
              <path id="패스_68667" data-name="패스 68667" d="M236.217,528.355c-4.575.431-6.507,2.983-5.514,6.249.523-1.588,2.427-2.711,5.62-2.965,5.113-.405,11.93,1.544,16.558,4.535l5.239-.2-4.676-1.69C248.825,530.426,241.583,527.849,236.217,528.355Z" transform="translate(-230.449 -528.291)" fill="#d1d1d1"/>
            </g>
            <g id="그룹_17488" data-name="그룹 17488" transform="translate(0 6.602)">
              <path id="패스_68668" data-name="패스 68668" d="M209.4,546.254c-.412,1.213.1,2.633,1.68,4.18l6.951-.687-.893-2.514S209.191,547.1,209.4,546.254Z" transform="translate(-209.263 -546.254)" fill="#bbb"/>
            </g>
            <g id="그룹_17489" data-name="그룹 17489" transform="translate(0.062 0)">
              <path id="패스_68669" data-name="패스 68669" d="M243.8,534.5c-4.3-4.927-13.672-8.049-21.668-7.3a28.235,28.235,0,0,0-7.609,1.981,16.524,16.524,0,0,0-2.986,1.78,6.035,6.035,0,0,0-2.023,2.729c-.3,1.2.268,2.5,1.935,4.045l5.341-2.823.462-.244a7.531,7.531,0,0,1-.321-.855c-.993-3.266.938-5.818,5.514-6.249,5.366-.506,12.608,2.071,17.228,5.929l0-.009,2.275.827,2.4.872C244.181,534.956,244,534.726,243.8,534.5Z" transform="translate(-209.442 -527.092)" fill="#e4e4e4"/>
            </g>
          </g>
          <g id="그룹_17491" data-name="그룹 17491" transform="translate(9.644 0)">
            <path id="패스_68670" data-name="패스 68670" d="M243.272,514.813l-6,.871a15.373,15.373,0,0,0,.03,1.834l.535,10.219a24.5,24.5,0,0,0,.187,2.568l6-.87a15.293,15.293,0,0,0-.03-1.834l-.535-10.219A24.535,24.535,0,0,0,243.272,514.813Z" transform="translate(-237.252 -514.813)" fill="#e4e4e4"/>
          </g>
        </g>
        <g id="그룹_17485" data-name="그룹 17485" transform="translate(0)">
          <g id="그룹_17212" data-name="그룹 17212" opacity="0.35">
            <path id="패스_68497" data-name="패스 68497" d="M358.551,522.016,193.778,543.035a2.9,2.9,0,0,1-3.225-2.372L171.186,431.4a2.9,2.9,0,0,1,2.49-3.385L338.448,407a2.873,2.873,0,0,1,1.288.126c.076.025,1.686.81,1.755.846.812.418,0,.4.18,1.4L361.041,518.63A2.9,2.9,0,0,1,358.551,522.016Z" transform="translate(-171.14 -406.973)" fill="#d8e6f1"/>
          </g>
          <g id="그룹_17214" data-name="그룹 17214" transform="translate(1.642 0.821)">
            <path id="패스_68499" data-name="패스 68499" d="M359.919,522.7,195.145,543.719a2.9,2.9,0,0,1-3.224-2.373L172.553,432.085a2.9,2.9,0,0,1,2.491-3.386L339.815,407.68a2.9,2.9,0,0,1,3.225,2.372l19.368,109.263A2.9,2.9,0,0,1,359.919,522.7Z" transform="translate(-172.507 -407.656)" fill="#fff"/>
          </g>
          <g id="그룹_17215" data-name="그룹 17215" transform="translate(6.121 6.935)" style="isolation: isolate">
            <path id="패스_68500" data-name="패스 68500" d="M354.843,517.21,196.791,537.372A2.783,2.783,0,0,1,193.7,535.1L176.28,436.178a2.783,2.783,0,0,1,2.389-3.248l158.052-20.162a2.783,2.783,0,0,1,3.093,2.276l17.418,98.92A2.781,2.781,0,0,1,354.843,517.21Z" transform="translate(-176.237 -412.745)" fill="#d8e6f1"/>
          </g>
          <g id="그룹_17275" data-name="그룹 17275" transform="translate(67.453 28.053)">
            <g id="그룹_17237" data-name="그룹 17237" transform="translate(13.958 35.959)">
              <path id="패스_68519" data-name="패스 68519" d="M253.254,465.518l-6.824-1.706s-10.126,4.852-15.015,10.069c0,0,1.341,18.866,2.2,24.525,1.233,8.133,2.527,22.613,2.527,22.613l41.84-5.3s.35-12.078.678-22.922c.19-6.259,0-24.3,0-24.3a100.473,100.473,0,0,0-20.745-6.7Z" transform="translate(-231.416 -461.803)" fill="#66687f"/>
            </g>
            <g id="그룹_17238" data-name="그룹 17238" transform="translate(28.973 27.163)">
              <path id="패스_68520" data-name="패스 68520" d="M247.137,463.485l-.41-6.914,9.126-2.088.4,8.8,3.451.9s-1.233,4.519-7.835,4.658c-6.26.131-7.96-3.554-7.96-3.554Z" transform="translate(-243.912 -454.483)" fill="#ffc1b4"/>
            </g>
            <g id="그룹_17257" data-name="그룹 17257" transform="translate(19.706)">
              <g id="그룹_17241" data-name="그룹 17241" transform="translate(25.794 15.722)">
                <g id="그룹_17239" data-name="그룹 17239">
                  <path id="패스_68521" data-name="패스 68521" d="M257.881,448.559s.152-2.915,2.142-3.474,3.81.774,3.686,3.792c-.119,2.892-1.592,5.75-3.676,5.6-1.723-.121-2.319-1.724-2.367-3.242Z" transform="translate(-257.667 -444.961)" fill="#ffdacc"/>
                </g>
                <g id="그룹_17240" data-name="그룹 17240" transform="translate(1.844 3.074)">
                  <path id="패스_68522" data-name="패스 68522" d="M260.176,451.61a.95.95,0,0,1-.859-.6,1.919,1.919,0,0,1-.114-.789,5.9,5.9,0,0,1,.3-1.721,1.468,1.468,0,0,1,1.316-.978h.023a1.225,1.225,0,0,1,1.012.55.276.276,0,1,1-.461.3.677.677,0,0,0-.561-.3.9.9,0,0,0-.8.6c-.031.1-.06.191-.085.287.049-.008.1-.014.149-.018a.982.982,0,0,1,.746.3,1.55,1.55,0,0,1,.374,1.207,1.289,1.289,0,0,1-.737,1.114A.807.807,0,0,1,260.176,451.61Zm-.386-1.889q-.031.252-.036.508a1.431,1.431,0,0,0,.071.564.37.37,0,0,0,.449.247.77.77,0,0,0,.386-.645,1,1,0,0,0-.228-.787.406.406,0,0,0-.3-.12A.31.31,0,0,0,259.791,449.721Z" transform="translate(-259.202 -447.519)" fill="#d38479"/>
                </g>
              </g>
              <g id="그룹_17242" data-name="그룹 17242" transform="translate(2.66 1.27)">
                <path id="패스_68523" data-name="패스 68523" d="M238.485,448.777c.21,2.546,1.837,6.8,3.057,9.434a13.031,13.031,0,0,0,5.156,5.968,13.45,13.45,0,0,0,6.748,1.743,9.277,9.277,0,0,0,6.569-2.78,14.435,14.435,0,0,0,3.817-6.864,32.555,32.555,0,0,0,.439-9.95c-.755-9.1-6.159-13.967-13.719-13.341S237.73,439.681,238.485,448.777Z" transform="translate(-238.413 -432.933)" fill="#ffe4d7"/>
              </g>
              <g id="그룹_17243" data-name="그룹 17243" transform="translate(16.368 20.78)">
                <path id="패스_68524" data-name="패스 68524" d="M250.575,456.731a.413.413,0,0,1-.279-.718l1.287-1.178a6.832,6.832,0,0,1-1.246-2.094,7.4,7.4,0,0,1-.492-3.215.41.41,0,0,1,.465-.351.415.415,0,0,1,.353.465,6.807,6.807,0,0,0,.454,2.828,6.282,6.282,0,0,0,1.338,2.1.414.414,0,0,1-.011.6l-1.592,1.456A.414.414,0,0,1,250.575,456.731Z" transform="translate(-249.821 -449.17)" fill="#db887c"/>
              </g>
              <g id="그룹_17246" data-name="그룹 17246" transform="translate(12.176 20.46)">
                <g id="그룹_17244" data-name="그룹 17244" transform="translate(7.478)">
                  <path id="패스_68525" data-name="패스 68525" d="M252.562,450.214c.052.684.5,1.208,1.006,1.17s.87-.624.818-1.309-.5-1.208-1.006-1.169S252.51,449.53,252.562,450.214Z" transform="translate(-252.557 -448.904)" fill="#17181c"/>
                </g>
                <g id="그룹_17245" data-name="그룹 17245" transform="translate(0 0.806)">
                  <path id="패스_68526" data-name="패스 68526" d="M246.338,450.886c.052.684.5,1.208,1.006,1.17s.87-.624.818-1.309-.5-1.208-1.006-1.17S246.286,450.2,246.338,450.886Z" transform="translate(-246.333 -449.575)" fill="#17181c"/>
                </g>
              </g>
              <g id="그룹_17247" data-name="그룹 17247" transform="translate(14.368 29.467)">
                <path id="패스_68527" data-name="패스 68527" d="M250.763,458.006a10.26,10.26,0,0,1-2.283-.263.413.413,0,1,1,.183-.806,7.883,7.883,0,0,0,5.378-.481.414.414,0,0,1,.42.713A7.7,7.7,0,0,1,250.763,458.006Z" transform="translate(-248.157 -456.4)" fill="#db6f6b"/>
              </g>
              <g id="그룹_17248" data-name="그룹 17248" transform="translate(18.036 14.486)">
                <path id="패스_68528" data-name="패스 68528" d="M251.624,445.452a.413.413,0,0,1-.149-.8c.147-.057,3.629-1.373,6.64-.3a.414.414,0,1,1-.276.78c-2.72-.969-6.033.281-6.067.294A.423.423,0,0,1,251.624,445.452Z" transform="translate(-251.21 -443.932)" fill="#ba9f91"/>
              </g>
              <g id="그룹_17249" data-name="그룹 17249" transform="translate(7.055 15.794)">
                <path id="패스_68529" data-name="패스 68529" d="M242.486,447.286a.413.413,0,0,1-.238-.752c2.617-1.836,6.325-1.492,6.48-1.478a.414.414,0,0,1,.371.452.4.4,0,0,1-.452.371c-.036,0-3.563-.326-5.925,1.331A.4.4,0,0,1,242.486,447.286Z" transform="translate(-242.071 -445.021)" fill="#ba9f91"/>
              </g>
              <g id="그룹_17252" data-name="그룹 17252" transform="translate(0 18.836)">
                <g id="그룹_17250" data-name="그룹 17250">
                  <path id="패스_68530" data-name="패스 68530" d="M242.03,451.047s-.514-3.211-2.564-3.471-3.72,1.673-3.155,4.639c.541,2.844,2.417,5.455,4.458,5,1.685-.372,2.04-2.045,1.866-3.553Z" transform="translate(-236.2 -447.552)" fill="#ffe4d7"/>
                </g>
                <g id="그룹_17251" data-name="그룹 17251" transform="translate(1.575 3.439)">
                  <path id="패스_68531" data-name="패스 68531" d="M239.591,454.39a.853.853,0,0,1-.182-.019,1.292,1.292,0,0,1-.892-.994,1.555,1.555,0,0,1,.193-1.251.949.949,0,0,1,.695-.4c.05,0,.1,0,.15,0-.038-.091-.082-.181-.126-.272a.923.923,0,0,0-.883-.474.68.68,0,0,0-.512.381.276.276,0,0,1-.365.133.273.273,0,0,1-.133-.365,1.218,1.218,0,0,1,.919-.693,1.471,1.471,0,0,1,1.467.773,5.851,5.851,0,0,1,.548,1.657,1.924,1.924,0,0,1,0,.8A.935.935,0,0,1,239.591,454.39Zm-.052-2.12c-.027,0-.058,0-.093,0a.4.4,0,0,0-.281.162,1,1,0,0,0-.111.812.772.772,0,0,0,.475.583.369.369,0,0,0,.41-.311,1.451,1.451,0,0,0-.012-.567c-.03-.169-.066-.335-.111-.5C239.721,452.3,239.655,452.27,239.539,452.27Z" transform="translate(-237.51 -450.415)" fill="#d38479"/>
                </g>
              </g>
              <g id="그룹_17253" data-name="그룹 17253" transform="translate(0.526 0.579)">
                <path id="패스_68532" data-name="패스 68532" d="M263.7,449.282a19.334,19.334,0,0,1-12.976-8.314s-1.155,6.789-9.56,11.114l-.94-.524a2.709,2.709,0,0,0-2.883-.467,16.471,16.471,0,0,1,.035-9.8c1.77-6.153,7.019-9.513,13.022-8.4a11.933,11.933,0,0,1,11.853,2.879,12.649,12.649,0,0,1,3.171,5.419,13.837,13.837,0,0,1,.418,6.38,2.542,2.542,0,0,0-1.717.386A12.683,12.683,0,0,1,263.7,449.282Z" transform="translate(-236.638 -432.358)" fill="#17181c"/>
              </g>
              <g id="그룹_17254" data-name="그룹 17254" transform="translate(3.48 18.703)">
                <path id="패스_68533" data-name="패스 68533" d="M240.943,448.5c.139-.047.323,1.293.508,3.37s.416,4.388.416,4.388a27.76,27.76,0,0,1-1.663-3.74,29.135,29.135,0,0,1-1.108-5.08Z" transform="translate(-239.096 -447.442)" fill="#17181c"/>
              </g>
              <g id="그룹_17255" data-name="그룹 17255" transform="translate(27.217 15.286)">
                <path id="패스_68534" data-name="패스 68534" d="M258.851,445.428s.416,2.4.6,3.787.461,4.111.461,4.111a14.023,14.023,0,0,0,.6-3.833c.046-2.124-.047-4.9-.047-4.9Z" transform="translate(-258.851 -444.598)" fill="#17181c"/>
              </g>
              <g id="그룹_17256" data-name="그룹 17256" transform="translate(12.577)">
                <path id="패스_68535" data-name="패스 68535" d="M246.667,434.295a5.365,5.365,0,0,1,2.863-2.079,10.992,10.992,0,0,1,5.384,0c1.3.308,3.476,1.16,4.805.1,0,0,.294,2.591-3.554,2.252C252.65,434.26,246.667,434.295,246.667,434.295Z" transform="translate(-246.667 -431.876)" fill="#17181c"/>
              </g>
            </g>
            <g id="그룹_17258" data-name="그룹 17258" transform="translate(0 38.794)">
              <path id="패스_68536" data-name="패스 68536" d="M242.594,477.493l4.926-13.33s-10.509,4.911-15.775,11.277c-4.6,5.562-10.6,14.2-10.6,14.2s-3.627,6.907,1.041,9.859,11.021-1.4,15.345-5.221,12.7-13.82,12.7-13.82l-6.772-6.851-17.272,15.063" transform="translate(-219.799 -464.163)" fill="#66687f"/>
            </g>
            <g id="그룹_17259" data-name="그룹 17259" transform="translate(21.487 46.989)">
              <path id="패스_68537" data-name="패스 68537" d="M237.682,474.154c.906-.679,3.624-3.171,3.624-3.171l4.077,4.3-3.481,3.707Z" transform="translate(-237.682 -470.983)" fill="#ffe4d7"/>
            </g>
            <g id="그룹_17260" data-name="그룹 17260" transform="translate(45.713 58.184)">
              <path id="패스_68538" data-name="패스 68538" d="M257.844,481.491l.535,5.545s2.958-.13,4.6-.164l.041-6.572Z" transform="translate(-257.844 -480.3)" fill="#ffe4d7"/>
            </g>
            <g id="그룹_17261" data-name="그룹 17261" transform="translate(49.246 40.355)">
              <path id="패스_68539" data-name="패스 68539" d="M263.742,480.662l3.04-15.2s3.018,1.021,6.86,2.711c5.135,2.26,14.117,9.65,14.685,10.332.463.554,4.437,3.758,2.773,8.5-1.074,3.065-4.314,3.43-6.079,3.881-.756.193-22.759,2.1-22.759,2.1l-1.479-10.6s15.529-1.972,20.7-2.464l-2.711,3.2Z" transform="translate(-260.784 -465.462)" fill="#66687f"/>
            </g>
            <g id="그룹_17262" data-name="그룹 17262" transform="translate(49.188 53.002)">
              <path id="패스_68540" data-name="패스 68540" d="M261.286,479.831a.551.551,0,0,1-.094-1.095c.092-.017,9.467-1.647,20.636-2.747a.552.552,0,0,1,.107,1.1c-11.126,1.095-20.46,2.718-20.553,2.735A.66.66,0,0,1,261.286,479.831Z" transform="translate(-260.736 -475.988)" fill="#3b3e4f"/>
            </g>
            <g id="그룹_17263" data-name="그룹 17263" transform="translate(50.051 62.953)">
              <path id="패스_68541" data-name="패스 68541" d="M262,489.253a.551.551,0,0,1-.035-1.1s6.715-.432,13.061-.863c.084-.006,8.781-.665,10.6-.979a6.362,6.362,0,0,0,4-1.859.551.551,0,1,1,.819.738,7.522,7.522,0,0,1-4.628,2.208c-1.876.322-10.353.965-10.713.993-6.352.431-13.069.863-13.069.863Z" transform="translate(-261.454 -484.269)" fill="#3b3e4f"/>
            </g>
            <g id="그룹_17264" data-name="그룹 17264" transform="translate(24.476 38.706)">
              <path id="패스_68542" data-name="패스 68542" d="M240.169,473.174a31.99,31.99,0,0,1,.678-4.467,16.771,16.771,0,0,0,.554-3.142,1.5,1.5,0,0,1,.678-1.387c.585-.278,1.51.03,1.2,1.879a25.2,25.2,0,0,1-1.57,4.929A9.168,9.168,0,0,1,240.169,473.174Z" transform="translate(-240.169 -464.089)" fill="#ffc1b4"/>
            </g>
            <g id="그룹_17265" data-name="그룹 17265" transform="translate(1.371 48.593)">
              <path id="패스_68543" data-name="패스 68543" d="M221.491,489.332a.551.551,0,0,1-.393-.938c.041-.042,4.159-4.216,7.421-7.131,4.853-4.334,10.485-8.782,10.541-8.827a.552.552,0,0,1,.684.866c-.056.044-5.663,4.472-10.491,8.783-3.236,2.891-7.328,7.041-7.369,7.082A.551.551,0,0,1,221.491,489.332Z" transform="translate(-220.941 -472.318)" fill="#3b3e4f"/>
            </g>
            <g id="그룹_17266" data-name="그룹 17266" transform="translate(8.318 56.78)">
              <path id="패스_68544" data-name="패스 68544" d="M227.273,497.415a.552.552,0,0,1-.19-1.069,22.22,22.22,0,0,0,7.869-5.562c2.844-3.129,8.837-11.343,8.9-11.424a.551.551,0,1,1,.89.649c-.247.339-6.089,8.345-8.972,11.517a23.443,23.443,0,0,1-8.306,5.856A.555.555,0,0,1,227.273,497.415Z" transform="translate(-226.722 -479.131)" fill="#3b3e4f"/>
            </g>
            <g id="그룹_17267" data-name="그룹 17267" transform="translate(24.396 34.083)">
              <path id="패스_68545" data-name="패스 68545" d="M253.014,464.852a1.16,1.16,0,0,0-1.359.242,15.081,15.081,0,0,0-1.3,1.451c.381-.657.851-1.376,1.4-2.276.922-1.5.193-1.843.193-1.843-.679-.437-1.358.243-1.358.243a15.918,15.918,0,0,0-1.394,1.562c.3-.483.632-1,1.006-1.611.922-1.5.193-1.843.193-1.843-.679-.436-1.358.243-1.358.243a14.565,14.565,0,0,0-1.129,1.234l.013-.022c.923-1.5.195-1.843.195-1.843-.679-.436-1.359.243-1.359.243a18.383,18.383,0,0,0-2.667,3.347c-.573.9-2,3.655-2,3.655a23.213,23.213,0,0,0-1.989,7.511l1.8,1.806,1.817,1.373c3.6-1.045,4.6-2.785,5.208-4.1,0,0,1.461-2.971,1.849-3.99a24.892,24.892,0,0,1,2.038-3.541C253.741,465.191,253.014,464.852,253.014,464.852Z" transform="translate(-240.103 -460.242)" fill="#ffe4d7"/>
            </g>
            <g id="그룹_17271" data-name="그룹 17271" transform="translate(28.389 34.431)">
              <g id="그룹_17268" data-name="그룹 17268">
                <path id="패스_68546" data-name="패스 68546" d="M243.7,468.231a.276.276,0,0,1-.254-.385,29.116,29.116,0,0,1,2.2-4.008,30.645,30.645,0,0,1,2.427-3.214.276.276,0,0,1,.411.368,30.675,30.675,0,0,0-2.379,3.153,28.346,28.346,0,0,0-2.153,3.921A.277.277,0,0,1,243.7,468.231Z" transform="translate(-243.426 -460.532)" fill="#bf736b"/>
              </g>
              <g id="그룹_17269" data-name="그룹 17269" transform="translate(2.033 1.151)">
                <path id="패스_68547" data-name="패스 68547" d="M245.394,469.065a.3.3,0,0,1-.106-.02.277.277,0,0,1-.149-.361,25.607,25.607,0,0,1,1.871-3.472,34.172,34.172,0,0,1,2.653-3.626.276.276,0,1,1,.418.359,33.624,33.624,0,0,0-2.6,3.561,25.614,25.614,0,0,0-1.828,3.388A.275.275,0,0,1,245.394,469.065Z" transform="translate(-245.119 -461.489)" fill="#bf736b"/>
              </g>
              <g id="그룹_17270" data-name="그룹 17270" transform="translate(3.861 3.614)">
                <path id="패스_68548" data-name="패스 68548" d="M246.916,469.679a.284.284,0,0,1-.127-.031.275.275,0,0,1-.118-.371c.01-.018.941-1.815,1.76-3.046a23.184,23.184,0,0,1,1.992-2.676.271.271,0,0,1,.348.174.279.279,0,0,1-.093.305c-.15.162-1.021,1.352-1.789,2.5-.8,1.2-1.721,2.975-1.73,2.992A.275.275,0,0,1,246.916,469.679Z" transform="translate(-246.64 -463.539)" fill="#bf736b"/>
              </g>
            </g>
            <g id="그룹_17272" data-name="그룹 17272" transform="translate(26.753 58.832)">
              <path id="패스_68549" data-name="패스 68549" d="M262.668,481.136a23.635,23.635,0,0,0-4.889-.287,48.946,48.946,0,0,0-10.229.985c-2.588.494-2.835.822-2.835.822-.9.246-2.388,1.083-2.2,2.085l0,.016a.914.914,0,0,0-.267,1.34,1.087,1.087,0,0,0,.988.225.691.691,0,0,0,.167.7c.454.527,1.6.236,1.6.236,1.162-.218,2.891-.441,4.148-.544a22.566,22.566,0,0,1,2.789-.077c.21,0,4.483.786,4.483.786,4.6,1.274,6.491-.822,6.491-.822l1.93-2.547Z" transform="translate(-242.064 -480.839)" fill="#ffe4d7"/>
            </g>
            <g id="그룹_17273" data-name="그룹 17273" transform="translate(27.609 61.931)">
              <path id="패스_68550" data-name="패스 68550" d="M243.052,486.047a.276.276,0,0,1-.234-.421,3.645,3.645,0,0,1,1.942-1.1,32.712,32.712,0,0,1,8.28-1.1.278.278,0,0,1,.272.281.26.26,0,0,1-.281.27,31.558,31.558,0,0,0-8.111,1.078,3.312,3.312,0,0,0-1.632.866A.277.277,0,0,1,243.052,486.047Z" transform="translate(-242.777 -483.419)" fill="#bf736b"/>
            </g>
            <g id="그룹_17274" data-name="그룹 17274" transform="translate(26.828 60.106)">
              <path id="패스_68551" data-name="패스 68551" d="M242.4,484.852a.28.28,0,0,1-.193-.078.275.275,0,0,1,0-.388,6.6,6.6,0,0,1,2.577-1.323,41.82,41.82,0,0,1,8.163-1.163.267.267,0,0,1,.29.259.276.276,0,0,1-.261.291,41.628,41.628,0,0,0-8.022,1.137,6.336,6.336,0,0,0-2.354,1.184A.277.277,0,0,1,242.4,484.852Z" transform="translate(-242.127 -481.9)" fill="#bf736b"/>
            </g>
          </g>
          <g id="그룹_17284" data-name="그룹 17284" transform="translate(9.706 26.488)" style="isolation: isolate">
            <path id="패스_68559" data-name="패스 68559" d="M224.606,458.145l-39.857,5.084a.737.737,0,0,1-.789-.643L179.231,435a.746.746,0,0,1,.592-.9l39.857-5.084a.736.736,0,0,1,.788.643L225.2,457.25A.746.746,0,0,1,224.606,458.145Z" transform="translate(-179.218 -429.018)" fill="#c2b1e5"/>
          </g>
          <g id="그룹_17327" data-name="그룹 17327" transform="translate(4.693 26.488)">
            <g id="그룹_17326" data-name="그룹 17326" clip-path="url(#clip-path)">
              <g id="그룹_17325" data-name="그룹 17325" transform="translate(15.809 6.82)">
                <g id="그룹_17285" data-name="그룹 17285" transform="translate(17.423 19.952)">
                  <path id="패스_68560" data-name="패스 68560" d="M207.8,454.475l2.742-2.125s1.088.642,2,3.642,2.212,10.236,2.212,10.236-4.726,2.885-4.6,2.927S207.8,454.475,207.8,454.475Z" transform="translate(-207.804 -452.35)" fill="#d8ccc5"/>
                </g>
                <g id="그룹_17324" data-name="그룹 17324">
                  <g id="그룹_17286" data-name="그룹 17286" transform="translate(1.282 11.988)">
                    <path id="패스_68561" data-name="패스 68561" d="M195.713,447.645s.225,1.265.472,2.23,1.143,1.964.649,3.117a3.484,3.484,0,0,1-3.44,1.751,3.787,3.787,0,0,1-3.486-3.622c0-2.105.853-3.4.766-5.089,0,0-.347-2.7-.358-2.553S195.713,447.645,195.713,447.645Z" transform="translate(-189.908 -443.472)" fill="#442b15"/>
                  </g>
                  <g id="그룹_17287" data-name="그룹 17287" transform="translate(11.108 8.799)">
                    <path id="패스_68562" data-name="패스 68562" d="M200.8,446.066a16.2,16.2,0,0,0,.345,2.312,5.5,5.5,0,0,0,1.691,3,3.5,3.5,0,0,0,3.864-.1,3.767,3.767,0,0,0,1.322-4.838c-1.014-1.849-2.382-2.58-3.118-4.108,0,0-.994-2.539-.912-2.412S200.8,446.066,200.8,446.066Z" transform="translate(-200.803 -439.918)" fill="#442b15"/>
                  </g>
                  <g id="그룹_17288" data-name="그룹 17288" transform="translate(0.921 17.83)">
                    <path id="패스_68563" data-name="패스 68563" d="M194.536,451.516l4.713,2.7,2.019-4.232s5.36.749,7.482,2.122c0,0,.83,9.686.884,12.309.087,4.189,2.138,10.867,2.138,10.867l-16.135,3.886s-2.646-7.654-3.726-11.493a94.17,94.17,0,0,1-2.4-12.289,15.441,15.441,0,0,1,1.966-1.911C192.432,452.746,194.536,451.516,194.536,451.516Z" transform="translate(-189.508 -449.985)" fill="#d8ccc5"/>
                  </g>
                  <g id="그룹_17289" data-name="그룹 17289" transform="translate(7.022)">
                    <path id="패스_68564" data-name="패스 68564" d="M196.272,430.425a4.967,4.967,0,0,1,3.054-.185,6.689,6.689,0,0,1,3.636,2.287,9.3,9.3,0,0,1,1.48,3.231,6.867,6.867,0,0,1-.052,3.632,16.731,16.731,0,0,1-.844,2.379,4.275,4.275,0,0,1-.8.893l-3.486-6.54Z" transform="translate(-196.272 -430.11)" fill="#442b15"/>
                  </g>
                  <g id="그룹_17290" data-name="그룹 17290" transform="translate(13.241 7.58)">
                    <path id="패스_68565" data-name="패스 68565" d="M203.168,440.2s.128-1.314,1.051-1.584,1.834.491,1.794,1.888c-.038,1.339-.577,2.517-1.55,2.542-1.113.029-1.235-1.435-1.26-2Z" transform="translate(-203.168 -438.559)" fill="#ffd3c2"/>
                  </g>
                  <g id="그룹_17292" data-name="그룹 17292" transform="translate(13.958 8.846)">
                    <g id="그룹_17291" data-name="그룹 17291">
                      <path id="패스_68566" data-name="패스 68566" d="M204.7,442.065a.471.471,0,0,1-.232,0c-.61-.153-.514-1.071-.482-1.374a.814.814,0,0,1,.321-.6.7.7,0,0,1,.56-.107.661.661,0,0,1,.452.566.108.108,0,0,1-.214.023c0-.013-.04-.323-.288-.381a.477.477,0,0,0-.386.073.6.6,0,0,0-.232.445c-.011.1-.017.193-.021.28a.613.613,0,0,1,.454-.125.591.591,0,0,1,.52.581.671.671,0,0,1-.256.517A.543.543,0,0,1,204.7,442.065Zm-.505-.688c.04.278.148.437.326.482a.291.291,0,0,0,.245-.059.456.456,0,0,0,.172-.35.377.377,0,0,0-.335-.369.361.361,0,0,0-.407.292Z" transform="translate(-203.962 -439.97)" fill="#f2a798"/>
                    </g>
                  </g>
                  <g id="그룹_17293" data-name="그룹 17293" transform="translate(5.689 14.371)">
                    <path id="패스_68567" data-name="패스 68567" d="M200.3,446.415l.446,2.714,1.825.609-2.35,4.7-5.428-3.18,1.7-1.276-.694-3.855Z" transform="translate(-194.795 -446.129)" fill="#ffd3c2"/>
                  </g>
                  <g id="그룹_17294" data-name="그룹 17294" transform="translate(2.36 1.563)">
                    <path id="패스_68568" data-name="패스 68568" d="M191.177,439.048a15.826,15.826,0,0,0,1.564,4.785,6.105,6.105,0,0,0,2.453,2.5,5.038,5.038,0,0,0,2.838.577,6.42,6.42,0,0,0,2.727-.985,5.815,5.815,0,0,0,1.941-3.1,11.881,11.881,0,0,0,.341-4.424c-.485-4.462-2.871-6.805-6.61-6.531S190.685,434.586,191.177,439.048Z" transform="translate(-191.103 -431.852)" fill="#ffe4d7"/>
                  </g>
                  <g id="그룹_17295" data-name="그룹 17295" transform="translate(9.547 7.523)">
                    <path id="패스_68569" data-name="패스 68569" d="M202.366,439.608a.221.221,0,0,1-.105,0c-1.706-.429-3-.687-3.015-.69a.213.213,0,1,1,.084-.418c.013,0,1.32.262,3.037.694a.214.214,0,0,1,0,.414Z" transform="translate(-199.072 -438.495)" fill="#99827a"/>
                  </g>
                  <g id="그룹_17296" data-name="그룹 17296" transform="translate(8.864 9.773)">
                    <path id="패스_68570" data-name="패스 68570" d="M198.315,441s.528.878.856,1.559a8.319,8.319,0,0,0,.6,1.119l-1.115.526Z" transform="translate(-198.315 -441.003)" fill="#dba195"/>
                  </g>
                  <g id="그룹_17297" data-name="그룹 17297" transform="translate(4.609 7.853)">
                    <path id="패스_68571" data-name="패스 68571" d="M193.865,440.716a.216.216,0,0,1-.227-.082.212.212,0,0,1,.049-.3,11.72,11.72,0,0,1,2.921-1.468.214.214,0,1,1,.111.413,11.431,11.431,0,0,0-2.781,1.4A.231.231,0,0,1,193.865,440.716Z" transform="translate(-193.597 -438.863)" fill="#99827a"/>
                  </g>
                  <g id="그룹_17298" data-name="그룹 17298" transform="translate(0.879 0.197)">
                    <path id="패스_68572" data-name="패스 68572" d="M192.246,439.278a25.623,25.623,0,0,0,.014,3.667,8.078,8.078,0,0,1-1.769-2.3,9.313,9.313,0,0,1-.989-2.873,7.062,7.062,0,0,1,1.034-4.716,6.171,6.171,0,0,1,5.588-2.687c.608.072-.785.995-.119,1.206l-3.265,3.25Z" transform="translate(-189.461 -430.329)" fill="#442b15"/>
                  </g>
                  <g id="그룹_17299" data-name="그룹 17299" transform="translate(12.67 4.008)">
                    <path id="패스_68573" data-name="패스 68573" d="M204.758,437.668s-.018,1.874-.159,2.871a3.266,3.266,0,0,1-.253.854,1.626,1.626,0,0,1-.232.336,11.715,11.715,0,0,0-.045-1.705,19.385,19.385,0,0,0-.323-1.95,23.779,23.779,0,0,0-1.211-3.5l1.56,1.761Z" transform="translate(-202.535 -434.577)" fill="#442b15"/>
                  </g>
                  <g id="그룹_17303" data-name="그룹 17303" transform="translate(0.962 9.636)">
                    <g id="그룹_17300" data-name="그룹 17300">
                      <path id="패스_68574" data-name="패스 68574" d="M192.3,441.909s-.634-1.16-1.589-1.05-1.5,1.164-.911,2.436c.562,1.218,1.521,2.093,2.426,1.738,1.035-.406.573-1.8.373-2.332Z" transform="translate(-189.553 -440.851)" fill="#ffd3c2"/>
                    </g>
                    <g id="그룹_17302" data-name="그룹 17302" transform="translate(0.744 1.153)">
                      <g id="그룹_17301" data-name="그룹 17301">
                        <path id="패스_68575" data-name="패스 68575" d="M191.6,444.239a.517.517,0,0,1-.287-.014.728.728,0,0,1-.442-.437.59.59,0,0,1,.765-.761c-.034-.086-.074-.178-.12-.276a.671.671,0,0,0-.4-.382.456.456,0,0,0-.375.052c-.216.137-.137.471-.136.474a.114.114,0,0,1-.078.129.107.107,0,0,1-.13-.078.614.614,0,0,1,.779-.782.881.881,0,0,1,.535.5c.236.5.5,1.211.025,1.52A.471.471,0,0,1,191.6,444.239Zm-.273-1.025a.353.353,0,0,0-.068.024.384.384,0,0,0-.187.477.517.517,0,0,0,.308.307.27.27,0,0,0,.237-.021c.154-.1.2-.3.139-.588l0-.006A.367.367,0,0,0,191.329,443.213Z" transform="translate(-190.378 -442.136)" fill="#f2a798"/>
                      </g>
                    </g>
                  </g>
                  <g id="그룹_17306" data-name="그룹 17306" transform="translate(7.054 10.148)">
                    <g id="그룹_17304" data-name="그룹 17304" transform="translate(0 0.606)">
                      <path id="패스_68576" data-name="패스 68576" d="M197.094,442.558c.061.3-.061.571-.274.614s-.435-.16-.5-.455.061-.57.274-.613S197.032,442.263,197.094,442.558Z" transform="translate(-196.308 -442.097)" fill="#17181c"/>
                    </g>
                    <g id="그룹_17305" data-name="그룹 17305" transform="translate(3.462)">
                      <path id="패스_68577" data-name="패스 68577" d="M200.933,441.882a.487.487,0,0,1-.273.614c-.213.044-.436-.16-.5-.455s.061-.57.274-.614S200.871,441.587,200.933,441.882Z" transform="translate(-200.147 -441.421)" fill="#17181c"/>
                    </g>
                  </g>
                  <g id="그룹_17307" data-name="그룹 17307" transform="translate(8.555 14.082)">
                    <path id="패스_68578" data-name="패스 68578" d="M198.088,446.054a.141.141,0,0,1,.1.016,1.962,1.962,0,0,0,1.892-.236.143.143,0,1,1,.167.231,2.221,2.221,0,0,1-2.2.251.143.143,0,0,1-.051-.195A.14.14,0,0,1,198.088,446.054Z" transform="translate(-197.972 -445.807)" fill="#b36368"/>
                  </g>
                  <g id="그룹_17308" data-name="그룹 17308" transform="translate(2.624 7.658)">
                    <path id="패스_68579" data-name="패스 68579" d="M192.485,439.729a3.347,3.347,0,0,0,.416,2.489c.768,1.128,1.183,2.174.477,3.454a2.165,2.165,0,0,0,.436,2.864,2.82,2.82,0,0,1-1.4-1.738c-.265-1.181.615-2.261.281-3.278s-1.152-1.716-1.227-2.872l-.069-2Z" transform="translate(-191.396 -438.646)" fill="#442b15"/>
                  </g>
                  <g id="그룹_17309" data-name="그룹 17309" transform="translate(13.418 6.128)">
                    <path id="패스_68580" data-name="패스 68580" d="M204.647,438.495a3.346,3.346,0,0,0-.016,2.524c.565,1.241.795,2.341-.12,3.483a2.166,2.166,0,0,0-.059,2.9,2.815,2.815,0,0,1-1.087-1.949c-.06-1.209.993-2.124.838-3.183s-.622-2.309-.656-3.3l-.049-2.019Z" transform="translate(-203.363 -436.941)" fill="#442b15"/>
                  </g>
                  <g id="그룹_17310" data-name="그룹 17310" transform="translate(3.156 0.332)">
                    <path id="패스_68581" data-name="패스 68581" d="M202.642,433.053c-.77-1.567-2.687-2.392-6.663-2.573l-2.7,3.474a9.266,9.266,0,0,0-1.2,5.908,26.612,26.612,0,0,1,2.948-1.066,15.041,15.041,0,0,1,.355-4.4,40.426,40.426,0,0,0,.5,4.157c.439-.116.9-.226,1.371-.321.643-.129,1.257-.227,1.835-.3-.074-.606-.4-3.257-.6-4.221a34.032,34.032,0,0,1,1.329,4.14,11.722,11.722,0,0,1,3.409.047S203.412,434.621,202.642,433.053Z" transform="translate(-191.986 -430.48)" fill="#442b15"/>
                  </g>
                  <g id="그룹_17311" data-name="그룹 17311" transform="translate(3.929 19.343)">
                    <path id="패스_68582" data-name="패스 68582" d="M194.649,451.671l5.127,3.3-1.453,3.22s-.665.964-1.588-.051c-1.2-1.314-3.892-5.356-3.892-5.356Z" transform="translate(-192.843 -451.671)" fill="#fff"/>
                  </g>
                  <g id="그룹_17312" data-name="그룹 17312" transform="translate(10.828 17.905)">
                    <path id="패스_68583" data-name="패스 68583" d="M203.067,450.068l-2.575,4.8,2.907,2.178s1.078.461,1.4-.869a43.929,43.929,0,0,0,.61-5.65Z" transform="translate(-200.492 -450.068)" fill="#fff"/>
                  </g>
                  <g id="그룹_17320" data-name="그룹 17320" transform="translate(1.188 8.942)">
                    <g id="그룹_17318" data-name="그룹 17318" transform="translate(0.093)">
                      <g id="그룹_17313" data-name="그룹 17313">
                        <path id="패스_68584" data-name="패스 68584" d="M194.129,440.118a.429.429,0,0,0-.445.052,1.293,1.293,0,0,0-.312.34s-.079.116-.206.309a.417.417,0,0,0,.014-.07.394.394,0,0,0-.229-.386.414.414,0,0,0-.436.082,1.413,1.413,0,0,0-.292.314,34.84,34.84,0,0,0-1.845,3.045,13.84,13.84,0,0,0-.47,1.868c.024.072.984,2.261,1.465,3.461L191.3,451.5l2.788-.017-.107-2.131a5.283,5.283,0,0,0,.666-1.436,8.265,8.265,0,0,0-.58-2.4l-.035.008c.051-.153.524-1.525.524-1.525s.636-1.223.659-1.266c.256-.473.31-.792.024-.941-.229-.119-.445.063-.582.228.041-.084.069-.137.077-.149.3-.449.361-.741.106-.937-.226-.174-.488.009-.652.17C194.474,440.471,194.391,440.267,194.129,440.118Z" transform="translate(-189.907 -440.077)" fill="#ffd3c2"/>
                      </g>
                      <g id="그룹_17317" data-name="그룹 17317" transform="translate(1.147 0.141)">
                        <g id="그룹_17314" data-name="그룹 17314">
                          <path id="패스_68585" data-name="패스 68585" d="M191.313,444.772a.11.11,0,0,1-.06,0,.107.107,0,0,1-.069-.135,16.78,16.78,0,0,1,.836-2.011c.074-.148.624-.984,1.182-1.828.181-.275.316-.48.335-.51a.107.107,0,0,1,.185.108c-.019.031-.156.239-.34.519-.409.62-1.094,1.658-1.169,1.807a16.381,16.381,0,0,0-.823,1.982A.109.109,0,0,1,191.313,444.772Z" transform="translate(-191.179 -440.234)" fill="#9b5c57"/>
                        </g>
                        <g id="그룹_17315" data-name="그룹 17315" transform="translate(0.942 0.539)">
                          <path id="패스_68586" data-name="패스 68586" d="M192.357,445.089a.1.1,0,0,1-.063,0,.106.106,0,0,1-.064-.136,17.138,17.138,0,0,1,.871-2.1c.09-.085.9-1.25,1.391-1.964a.108.108,0,0,1,.15-.028.106.106,0,0,1,.028.148c-.216.314-1.3,1.888-1.424,2-.079.1-.48,1.113-.814,2.019A.105.105,0,0,1,192.357,445.089Z" transform="translate(-192.224 -440.835)" fill="#9b5c57"/>
                        </g>
                        <g id="그룹_17316" data-name="그룹 17316" transform="translate(1.911 1.341)">
                          <path id="패스_68587" data-name="패스 68587" d="M193.431,445.4a.105.105,0,0,1-.066,0,.108.108,0,0,1-.06-.139l.654-1.627c.143-.259,1.094-1.751,1.178-1.86a.107.107,0,0,1,.17.13c-.076.1-1.023,1.583-1.154,1.82l-.649,1.616A.106.106,0,0,1,193.431,445.4Z" transform="translate(-193.298 -441.729)" fill="#9b5c57"/>
                        </g>
                      </g>
                    </g>
                    <g id="그룹_17319" data-name="그룹 17319" transform="translate(0 0.403)">
                      <path id="패스_68588" data-name="패스 68588" d="M191.391,449.282a.111.111,0,0,1-.072-.006.108.108,0,0,1-.063-.1c-.064-.236-.878-2.2-1.42-3.487a1.363,1.363,0,0,1,.1-.892c.2-.588.6-1.627.72-1.848s1.52-2.284,1.58-2.372a.107.107,0,0,1,.178.119c-.505.742-1.482,2.189-1.568,2.352-.11.207-.509,1.244-.707,1.818a1.29,1.29,0,0,0-.106.744c1.5,3.558,1.476,3.581,1.405,3.648A.1.1,0,0,1,191.391,449.282Z" transform="translate(-189.804 -440.526)" fill="#9b5c57"/>
                    </g>
                  </g>
                  <g id="그룹_17321" data-name="그룹 17321" transform="translate(0 18.932)">
                    <path id="패스_68589" data-name="패스 68589" d="M190.622,451.213s-.442,5.008-.459,6.481a21.68,21.68,0,0,0-.569-2.393,2.958,2.958,0,0,0-.537.824,6.41,6.41,0,0,0-.568,2.53,27.936,27.936,0,0,0,1,7.775c.244.684,1.025,1.847,2.126,1.764a3.035,3.035,0,0,0,2.637-2.576c.589-3.087-.035-14.388-.035-14.388Z" transform="translate(-188.486 -451.213)" fill="#d8ccc5"/>
                  </g>
                  <g id="그룹_17322" data-name="그룹 17322" transform="translate(1.34 18.789)">
                    <path id="패스_68590" data-name="패스 68590" d="M190.151,464.375a.108.108,0,0,1-.038,0,.142.142,0,0,1-.141-.144c.085-4.429.647-12.962.652-13.049a.144.144,0,0,1,.152-.133.143.143,0,0,1,.133.152c-.005.086-.567,8.612-.652,13.035A.141.141,0,0,1,190.151,464.375Z" transform="translate(-189.972 -451.054)" fill="#a08375"/>
                  </g>
                  <g id="그룹_17323" data-name="그룹 17323" transform="translate(1.672 18.807)">
                    <path id="패스_68591" data-name="패스 68591" d="M192.687,468.3a3.309,3.309,0,0,1-.377.072,2.134,2.134,0,0,1-1.937-.622.143.143,0,0,1,.222-.179,1.855,1.855,0,0,0,1.678.519,2.773,2.773,0,0,0,2.337-2.171,15.716,15.716,0,0,0,.3-5.355c-.22-3.573-.646-9.277-.65-9.333a.143.143,0,0,1,.286-.021c0,.057.43,5.763.65,9.338a15.908,15.908,0,0,1-.315,5.459A3.129,3.129,0,0,1,192.687,468.3Z" transform="translate(-190.341 -451.073)" fill="#a08375"/>
                  </g>
                </g>
              </g>
            </g>
          </g>
          <g id="그룹_17330" data-name="그룹 17330" transform="translate(15.222 59.792)">
            <path id="패스_68596" data-name="패스 68596" d="M230.023,485.529l-40.5,5.441a.74.74,0,0,1-.8-.63l-4.9-27.266a.746.746,0,0,1,.6-.893l40.5-5.441a.739.739,0,0,1,.8.63l4.9,27.266A.746.746,0,0,1,230.023,485.529Z" transform="translate(-183.811 -456.735)" fill="#8ed1c7"/>
          </g>
          <g id="그룹_17386" data-name="그룹 17386" transform="translate(17.86 64.256)">
            <g id="그룹_17385" data-name="그룹 17385" transform="translate(0 0)" clip-path="url(#clip-path-2)">
              <g id="그룹_17384" data-name="그룹 17384" transform="translate(6.044 2.727)">
                <g id="그룹_17383" data-name="그룹 17383">
                  <g id="그룹_17332" data-name="그룹 17332" transform="translate(10.672 13.668)">
                    <g id="그룹_17331" data-name="그룹 17331">
                      <path id="패스_68597" data-name="패스 68597" d="M206.014,472.439l.459,2.958a5.685,5.685,0,0,1-.273,1.71,6.668,6.668,0,0,1-.946,1.769,7.44,7.44,0,0,1-2.331-1.228,12.06,12.06,0,0,1-.921-1.312l-.659-3.518Z" transform="translate(-201.344 -472.439)" fill="#f9d2c0"/>
                    </g>
                  </g>
                  <g id="그룹_17334" data-name="그룹 17334" transform="translate(7.794 15.808)">
                    <g id="그룹_17333" data-name="그룹 17333">
                      <path id="패스_68598" data-name="패스 68598" d="M210.234,474.715s-3.558-.268-4.155-.187c-.85.118-3.786,1.072-3.786,1.072s-1.79.88-3.789,2.141a6.423,6.423,0,0,0,4.792,1.867C206.157,479.4,209.27,477.437,210.234,474.715Z" transform="translate(-198.505 -474.513)" fill="#f9d2c0"/>
                    </g>
                  </g>
                  <g id="그룹_17380" data-name="그룹 17380" transform="translate(4.624)">
                    <g id="그룹_17336" data-name="그룹 17336" transform="translate(0.189 1.359)">
                      <g id="그룹_17335" data-name="그룹 17335">
                        <path id="패스_68599" data-name="패스 68599" d="M196.2,465.116a7.508,7.508,0,0,1,2.681-2.877,7.9,7.9,0,0,1,3.1-1.116,7.092,7.092,0,0,1,5.269-.156,5.552,5.552,0,0,1,2.887,3.661,5.129,5.129,0,0,1-.381,3.624l-6.259,3.355-6.311.171a4.211,4.211,0,0,1-1.168-1.715A5.966,5.966,0,0,1,196.2,465.116Z" transform="translate(-195.565 -460.514)" fill="#352929"/>
                      </g>
                    </g>
                    <g id="그룹_17341" data-name="그룹 17341" transform="translate(10.594 7.101)">
                      <g id="그룹_17338" data-name="그룹 17338">
                        <g id="그룹_17337" data-name="그룹 17337">
                          <path id="패스_68600" data-name="패스 68600" d="M205.884,468.415a1.917,1.917,0,0,0,1.861,2.436,3.006,3.006,0,0,0,2.862-2.337,1.918,1.918,0,0,0-1.862-2.436A3,3,0,0,0,205.884,468.415Z" transform="translate(-205.83 -466.078)" fill="#f9d2c0"/>
                        </g>
                      </g>
                      <g id="그룹_17340" data-name="그룹 17340" transform="translate(1.898 1.219)">
                        <g id="그룹_17339" data-name="그룹 17339">
                          <path id="패스_68601" data-name="패스 68601" d="M208.635,469.4a1.605,1.605,0,0,0,.45-.21,1.153,1.153,0,0,0,.517-1.067c-.065-.473-.473-.789-1.122-.865a.225.225,0,0,0-.234.148.142.142,0,0,0,.126.191c.5.06.81.287.855.623a.761.761,0,0,1-.332.708,1.271,1.271,0,0,1-.933.176.229.229,0,0,0-.246.13.143.143,0,0,0,.1.2A1.73,1.73,0,0,0,208.635,469.4Z" transform="translate(-207.703 -467.259)" fill="#c17974"/>
                        </g>
                      </g>
                    </g>
                    <g id="그룹_17343" data-name="그룹 17343" transform="translate(1.887 2.252)">
                      <g id="그룹_17342" data-name="그룹 17342">
                        <path id="패스_68602" data-name="패스 68602" d="M197.746,465a6.829,6.829,0,0,1,5.943-3.619,4.128,4.128,0,0,1,4.48,2.892,17.648,17.648,0,0,1,.384,2.393c.449,3.928-.873,7.038-3.954,8.1-3.582,1.234-6.09-.667-7.019-4.308A8.733,8.733,0,0,1,197.746,465Z" transform="translate(-197.239 -461.38)" fill="#ffe0cb"/>
                      </g>
                    </g>
                    <g id="그룹_17345" data-name="그룹 17345" transform="translate(7.605 9.902)">
                      <g id="그룹_17344" data-name="그룹 17344">
                        <path id="패스_68603" data-name="패스 68603" d="M203.547,471.67a.183.183,0,0,0,.067-.032l.729-.5a.175.175,0,0,0,.068-.239,12.343,12.343,0,0,1-.69-1.175c-.139-.252-.3-.538-.48-.863a.2.2,0,0,0-.34.2c.181.323.339.608.476.86.246.45.436.792.617,1.068l-.571.39a.159.159,0,1,0,.125.292Z" transform="translate(-202.881 -468.791)" fill="#c17974"/>
                      </g>
                    </g>
                    <g id="그룹_17350" data-name="그룹 17350" transform="translate(0 10.226)">
                      <g id="그룹_17347" data-name="그룹 17347">
                        <g id="그룹_17346" data-name="그룹 17346">
                          <path id="패스_68604" data-name="패스 68604" d="M195.889,472.927a2.585,2.585,0,0,0,3.478.164,2.211,2.211,0,0,0,.463-3.232,2.587,2.587,0,0,0-3.48-.164A2.212,2.212,0,0,0,195.889,472.927Z" transform="translate(-195.378 -469.105)" fill="#ffe0cb"/>
                        </g>
                      </g>
                      <g id="그룹_17349" data-name="그룹 17349" transform="translate(1.415 1.173)">
                        <g id="그룹_17348" data-name="그룹 17348">
                          <path id="패스_68605" data-name="패스 68605" d="M198.351,472.307c.084-.024.168-.054.255-.088a.2.2,0,0,0,.131-.228.168.168,0,0,0-.232-.082,1.1,1.1,0,0,1-1.174-.048.578.578,0,0,1-.113-.7,1.343,1.343,0,0,1,.767-.593.2.2,0,0,0,.151-.219c-.019-.089-.105-.135-.219-.1a1.807,1.807,0,0,0-1.035.81.876.876,0,0,0,.155,1.057A1.321,1.321,0,0,0,198.351,472.307Z" transform="translate(-196.773 -470.242)" fill="#c17974"/>
                        </g>
                      </g>
                    </g>
                    <g id="그룹_17355" data-name="그룹 17355" transform="translate(6.034 9.992)">
                      <g id="그룹_17352" data-name="그룹 17352" transform="translate(3.308)">
                        <g id="그룹_17351" data-name="그룹 17351">
                          <path id="패스_68606" data-name="패스 68606" d="M204.6,469.524c.033.293.252.484.492.427a.576.576,0,0,0,.374-.635c-.032-.294-.252-.485-.493-.428A.575.575,0,0,0,204.6,469.524Z" transform="translate(-204.595 -468.878)" fill="#3d2f2e"/>
                        </g>
                      </g>
                      <g id="그룹_17354" data-name="그룹 17354" transform="translate(0 0.852)">
                        <g id="그룹_17353" data-name="그룹 17353">
                          <path id="패스_68607" data-name="패스 68607" d="M201.335,470.349a.428.428,0,0,0,.493.428.578.578,0,0,0,.373-.636c-.032-.293-.252-.485-.492-.427A.576.576,0,0,0,201.335,470.349Z" transform="translate(-201.331 -469.704)" fill="#3d2f2e"/>
                        </g>
                      </g>
                    </g>
                    <g id="그룹_17357" data-name="그룹 17357" transform="translate(4 8.481)">
                      <g id="그룹_17356" data-name="그룹 17356">
                        <path id="패스_68608" data-name="패스 68608" d="M199.628,468.918a.292.292,0,0,0,.1-.048,5.887,5.887,0,0,1,2.571-.978.309.309,0,0,0,.282-.262.2.2,0,0,0-.243-.215,6.465,6.465,0,0,0-2.888,1.1.222.222,0,0,0,.179.407Z" transform="translate(-199.324 -467.414)" fill="#ae9d92"/>
                      </g>
                    </g>
                    <g id="그룹_17359" data-name="그룹 17359" transform="translate(8.593 7.432)">
                      <g id="그룹_17358" data-name="그룹 17358">
                        <path id="패스_68609" data-name="패스 68609" d="M206.816,466.866a.309.309,0,0,0,.219-.221.2.2,0,0,0-.208-.246,7.578,7.578,0,0,0-2.782.53.273.273,0,0,0-.177.321.234.234,0,0,0,.328.108,7.069,7.069,0,0,1,2.529-.48A.272.272,0,0,0,206.816,466.866Z" transform="translate(-203.856 -466.398)" fill="#ae9d92"/>
                      </g>
                    </g>
                    <g id="그룹_17364" data-name="그룹 17364" transform="translate(6.647 13.218)">
                      <g id="그룹_17361" data-name="그룹 17361">
                        <g id="그룹_17360" data-name="그룹 17360">
                          <path id="패스_68610" data-name="패스 68610" d="M202.3,473.59a1.645,1.645,0,0,1-.363-.511c1.4-.355,3.795-1.076,3.795-1.076a1.794,1.794,0,0,1-.195.6A13.689,13.689,0,0,0,202.3,473.59Z" transform="translate(-201.936 -472.003)" fill="#933a35"/>
                        </g>
                      </g>
                      <g id="그룹_17363" data-name="그룹 17363" transform="translate(0.363 0.605)">
                        <g id="그룹_17362" data-name="그룹 17362">
                          <path id="패스_68611" data-name="패스 68611" d="M205.531,472.589a2.605,2.605,0,0,1-1.576,1.258,1.533,1.533,0,0,1-1.661-.277A10.053,10.053,0,0,1,205.531,472.589Z" transform="translate(-202.294 -472.589)" fill="#e05b4c"/>
                        </g>
                      </g>
                    </g>
                    <g id="그룹_17365" data-name="그룹 17365" transform="translate(3.076 8.935)" opacity="0.59">
                      <path id="패스_68612" data-name="패스 68612" d="M198.679,472.7a2.6,2.6,0,0,0,2.942.455,2.053,2.053,0,0,0,1.008-2.786,2.131,2.131,0,0,0-2.941-.455C198.6,470.554,198.048,471.863,198.679,472.7Z" transform="translate(-198.412 -467.8)" fill="url(#radial-gradient)" style="mix-blend-mode: multiply;isolation: isolate"/>
                      <path id="패스_68613" data-name="패스 68613" d="M204.915,471.016a2.133,2.133,0,0,0,2.942.455,2.11,2.11,0,0,0,1.01-2.786,2.133,2.133,0,0,0-2.942-.455A2.108,2.108,0,0,0,204.915,471.016Z" transform="translate(-198.327 -467.854)" fill="url(#radial-gradient-2)" style="mix-blend-mode: multiply;isolation: isolate"/>
                    </g>
                    <g id="그룹_17367" data-name="그룹 17367" transform="translate(1.464 8.387)">
                      <g id="그룹_17366" data-name="그룹 17366">
                        <path id="패스_68614" data-name="패스 68614" d="M197.856,467.446a19.373,19.373,0,0,0,.539,3.15c.252,1,.4,1.653.4,1.653a5.315,5.315,0,0,1-1.158-1.591,9.423,9.423,0,0,1-.814-2.252l.7-1.083Z" transform="translate(-196.822 -467.323)" fill="#352929"/>
                      </g>
                    </g>
                    <g id="그룹_17369" data-name="그룹 17369" transform="translate(12.731 5.202)">
                      <g id="그룹_17368" data-name="그룹 17368">
                        <path id="패스_68615" data-name="패스 68615" d="M207.938,464.532a14.385,14.385,0,0,1,.486,3.155c.031,1.056-.015,1.786-.015,1.786a5.484,5.484,0,0,0,.839-2.345,8.24,8.24,0,0,0-.051-2.3l-1-.585Z" transform="translate(-207.938 -464.238)" fill="#352929"/>
                      </g>
                    </g>
                    <g id="그룹_17371" data-name="그룹 17371" transform="translate(2.879)">
                      <g id="그룹_17370" data-name="그룹 17370">
                        <path id="패스_68616" data-name="패스 68616" d="M201.7,461.323l.012,0a.206.206,0,0,0,.127-.121,2.838,2.838,0,0,1,1.1-1.1,4.085,4.085,0,0,1,1.571-.584.2.2,0,0,0,.183-.178.14.14,0,0,0-.168-.139,4.484,4.484,0,0,0-1.757.652,3.744,3.744,0,0,0-1.149,1.091,3.066,3.066,0,0,0-1.267-.2,4.3,4.3,0,0,0-2.037.609.166.166,0,0,0-.071.224.174.174,0,0,0,.239.028,3.938,3.938,0,0,1,1.815-.542,2.212,2.212,0,0,1,1.255.243A.175.175,0,0,0,201.7,461.323Z" transform="translate(-198.218 -459.198)" fill="#352929"/>
                      </g>
                    </g>
                    <g id="그룹_17374" data-name="그룹 17374" transform="translate(13.621 6.513)">
                      <g id="그룹_17373" data-name="그룹 17373">
                        <g id="그룹_17372" data-name="그룹 17372">
                          <path id="패스_68617" data-name="패스 68617" d="M208.817,465.775l.609-.266.546,1-.835.832Z" transform="translate(-208.817 -465.508)" fill="#352929"/>
                        </g>
                      </g>
                    </g>
                    <g id="그룹_17377" data-name="그룹 17377" transform="translate(0.765 10.132)">
                      <g id="그룹_17376" data-name="그룹 17376">
                        <g id="그룹_17375" data-name="그룹 17375">
                          <path id="패스_68618" data-name="패스 68618" d="M197.471,469.014l-.638.1-.7.709,1.581.783Z" transform="translate(-196.132 -469.014)" fill="#352929"/>
                        </g>
                      </g>
                    </g>
                    <g id="그룹_17379" data-name="그룹 17379" transform="translate(0.882 1.901)">
                      <g id="그룹_17378" data-name="그룹 17378">
                        <path id="패스_68619" data-name="패스 68619" d="M196.248,466.627s3.129-4.515,3.21-4.521,4.276-1.066,4.276-1.066l2.68.434,2.061,2.487.216,1.669-.056,1.872a10.365,10.365,0,0,0-2.847-.031,34.611,34.611,0,0,0-1.023-3.772s.309,1.74.6,3.824a14.112,14.112,0,0,0-1.487.292,17.336,17.336,0,0,0-2.94,1.054c-.453-2.061-.768-3.833-.768-3.833a30.222,30.222,0,0,0,.364,4.025,8.451,8.451,0,0,0-2.39,1.53Z" transform="translate(-196.248 -461.04)" fill="#352929"/>
                      </g>
                    </g>
                  </g>
                  <g id="그룹_17382" data-name="그룹 17382" transform="translate(0 15.846)">
                    <g id="그룹_17381" data-name="그룹 17381">
                      <path id="패스_68620" data-name="패스 68620" d="M190.91,487.578a10.165,10.165,0,0,1,1.493-4.263,16.383,16.383,0,0,1,2.29-2.605l.007.012a18.017,18.017,0,0,1,1.551-1.308,36.355,36.355,0,0,1,3.5-2.415s1.6,2.008,5,1.1a5.793,5.793,0,0,0,4.182-3.55,35.913,35.913,0,0,1,4.693.589,6,6,0,0,1,.94.252,10.014,10.014,0,0,1,2.119.86,7.72,7.72,0,0,1,2.788,3.018,29.133,29.133,0,0,1,1.254,3.067l-29.9,8.7A33.644,33.644,0,0,1,190.91,487.578Z" transform="translate(-190.815 -474.549)" fill="#9393b2"/>
                    </g>
                  </g>
                </g>
              </g>
            </g>
          </g>
          <g id="그룹_17388" data-name="그룹 17388" transform="translate(48.241 63.577)" opacity="0.72">
            <circle id="타원_17581" data-name="타원 17581" cx="3.728" cy="3.728" r="3.728" fill="url(#linear-gradient)"/>
            <g id="그룹_17387" data-name="그룹 17387" transform="translate(1.667 1.681)">
              <path id="패스_68622" data-name="패스 68622" d="M215.808,476.534h0Z" transform="translate(-213.742 -474.2)" fill="#fff"/>
              <path id="패스_68623" data-name="패스 68623" d="M214.776,474.641c.2.238.612.676.8.876a.173.173,0,0,1,.007.207c-.074.135-.114.412.287.89l0,0c.014.019.077.089.094.106l0,0c.413.48.7.464.847.4a.175.175,0,0,1,.211.029c.178.21.564.665.774.89a.207.207,0,0,1-.078.3,1.232,1.232,0,0,1-1.558.022l-.008-.009-1.872-2.1-.008-.01a1.23,1.23,0,0,1,.2-1.544A.206.206,0,0,1,214.776,474.641Z" transform="translate(-214.088 -474.591)" fill="#fff"/>
              <path id="패스_68624" data-name="패스 68624" d="M215.72,476.435h0Z" transform="translate(-213.76 -474.22)" fill="#fff"/>
            </g>
          </g>
          <g id="그룹_17493" data-name="그룹 17493" transform="translate(41.303 29.923)" opacity="0.72">
            <circle id="타원_17581-2" data-name="타원 17581" cx="3.728" cy="3.728" r="3.728" fill="url(#linear-gradient)"/>
            <g id="그룹_17387-2" data-name="그룹 17387" transform="translate(1.667 1.681)">
              <path id="패스_68622-2" data-name="패스 68622" d="M215.808,476.534h0Z" transform="translate(-213.742 -474.2)" fill="#fff"/>
              <path id="패스_68623-2" data-name="패스 68623" d="M214.776,474.641c.2.238.612.676.8.876a.173.173,0,0,1,.007.207c-.074.135-.114.412.287.89l0,0c.014.019.077.089.094.106l0,0c.413.48.7.464.847.4a.175.175,0,0,1,.211.029c.178.21.564.665.774.89a.207.207,0,0,1-.078.3,1.232,1.232,0,0,1-1.558.022l-.008-.009-1.872-2.1-.008-.01a1.23,1.23,0,0,1,.2-1.544A.206.206,0,0,1,214.776,474.641Z" transform="translate(-214.088 -474.591)" fill="#fff"/>
              <path id="패스_68624-2" data-name="패스 68624" d="M215.72,476.435h0Z" transform="translate(-213.76 -474.22)" fill="#fff"/>
            </g>
          </g>
        </g>
      </g>
    </g>
  </g>
</svg>
