<?xml version="1.0" encoding="UTF-8"?>
<svg width="22px" height="18px" viewBox="0 0 22 18" version="1.1" xmlns="http://www.w3.org/2000/svg" xmlns:xlink="http://www.w3.org/1999/xlink">
    <!-- Generator: Sketch 53.2 (72643) - https://sketchapp.com -->
    <title>Shape</title>
    <desc>Created with Sketch.</desc>
    <g id="Ali-Meets" stroke="none" stroke-width="1" fill="none" fill-rule="evenodd">
        <g id="Edit-Profile" transform="translate(-1077.000000, -33.000000)" fill="#A0A0A0" fill-rule="nonzero" stroke="#FFFFFF" stroke-width="0.6">
            <g id="Header">
                <g id="Message" transform="translate(1078.000000, 27.000000)">
                    <path d="M18,7 L2,7 C0.9,7 0.01,7.9 0.01,9 L0,21 C0,22.1 0.9,23 2,23 L18,23 C19.1,23 20,22.1 20,21 L20,9 C20,7.9 19.1,7 18,7 Z M18,21 L2,21 L2,11 L10,16 L18,11 L18,21 Z M10,13.7575566 L2.71899476,9 L17.2054727,9 L10,13.7575566 Z" id="Shape"></path>
                </g>
            </g>
        </g>
    </g>
</svg>