<?xml version="1.0" encoding="utf-8"?>
<!-- Generator: Adobe Illustrator 16.0.0, SVG Export Plug-In . SVG Version: 6.00 Build 0)  -->
<!DOCTYPE svg PUBLIC "-//W3C//DTD SVG 1.1//EN" "http://www.w3.org/Graphics/SVG/1.1/DTD/svg11.dtd">
<svg version="1.1" id="Layer_1" xmlns="http://www.w3.org/2000/svg" xmlns:xlink="http://www.w3.org/1999/xlink" x="0px" y="0px"
	 width="60px" height="60px" viewBox="0 0 60 60" enable-background="new 0 0 60 60" xml:space="preserve">
<g>
	<path fill="#FFFFFF" d="M42.895,24.437h-0.822v9.031c0,1.406-0.818,2.678-2.46,2.678h-16.08v0.429c0,1.243,1.413,2.499,2.865,2.499
		h12.295l4.703,2.766l-0.682-2.766h0.181c1.451,0,2.105-1.252,2.105-2.499V26.58C45,25.337,44.346,24.437,42.895,24.437z"/>
	<path fill="#FFFFFF" d="M37.212,18.162H18.534c-1.643,0-3.534,1.46-3.534,2.866v11.32c0,1.296,1.603,2.231,3.14,2.376l-1,3.797
		l6.409-3.771h13.663c1.644,0,3.16-0.996,3.16-2.402V23.19v-2.162C40.372,19.622,38.854,18.162,37.212,18.162z M21.384,27.717
		c-0.932,0-1.687-0.755-1.687-1.687c0-0.933,0.755-1.688,1.687-1.688s1.688,0.755,1.688,1.688
		C23.071,26.962,22.315,27.717,21.384,27.717z M27.686,27.717c-0.932,0-1.687-0.755-1.687-1.687c0-0.933,0.755-1.688,1.687-1.688
		c0.933,0,1.688,0.755,1.688,1.688C29.373,26.962,28.618,27.717,27.686,27.717z M33.989,27.717c-0.933,0-1.688-0.755-1.688-1.687
		c0-0.933,0.756-1.688,1.688-1.688c0.93,0,1.687,0.755,1.687,1.688C35.676,26.962,34.919,27.717,33.989,27.717z"/>
</g>
</svg>
