<?xml version="1.0" encoding="UTF-8"?>
<svg width="34px" height="34px" viewBox="0 0 34 34" version="1.1" xmlns="http://www.w3.org/2000/svg" xmlns:xlink="http://www.w3.org/1999/xlink">
    <!-- Generator: Sketch 53.2 (72643) - https://sketchapp.com -->
    <title>Icon / Profile_Camera</title>
    <desc>Created with Sketch.</desc>
    <g id="Ali-Meets" stroke="none" stroke-width="1" fill="none" fill-rule="evenodd">
        <g id="Edit-Profile" transform="translate(-419.000000, -335.000000)">
            <g id="Group-32" transform="translate(325.000000, 190.000000)">
                <g id="Profile" transform="translate(35.000000, 103.000000)">
                    <g id="Icon-/-Profile_Camera" transform="translate(59.000000, 42.000000)">
                        <g>
                            <circle id="Oval-11" fill="#5EBBB6" cx="17" cy="17" r="17"></circle>
                            <g id="Group" transform="translate(6.375000, 8.500000)" stroke="#FFFFFF">
                                <path d="M12.5428932,0.5 L8.70710678,0.5 L5.87377345,3.33333333 L2,3.33333333 C1.17157288,3.33333333 0.5,4.00490621 0.5,4.83333333 L0.5,15 C0.5,15.8284271 1.17157288,16.5 2,16.5 L19.25,16.5 C20.0784271,16.5 20.75,15.8284271 20.75,15 L20.75,4.83333333 C20.75,4.00490621 20.0784271,3.33333333 19.25,3.33333333 L15.3762266,3.33333333 L12.5428932,0.5 Z" id="Rectangle-34"></path>
                                <circle id="Oval-12" cx="10.625" cy="9.20833333" r="3.04166667"></circle>
                            </g>
                        </g>
                    </g>
                </g>
            </g>
        </g>
    </g>
</svg>