<svg width="17" height="17" viewBox="0 0 17 17" fill="none" xmlns="http://www.w3.org/2000/svg">
<path d="M16.1311 15.447L12.0931 11.247C13.0946 10.0529 13.6588 8.55281 13.6924 6.99465C13.726 5.43649 13.227 3.91349 12.2779 2.6773C11.3288 1.4411 9.98637 0.565698 8.47239 0.195725C6.95842 -0.174247 5.36353 -0.0166449 3.95125 0.642491C2.53897 1.30163 1.39382 2.42285 0.705015 3.8209C0.0162082 5.21895 -0.175032 6.81015 0.162893 8.3316C0.500818 9.85305 1.34768 11.2137 2.56356 12.1887C3.77944 13.1637 5.29157 13.6947 6.85009 13.694C8.255 13.6974 9.62624 13.2641 10.7741 12.454L14.8431 16.686C14.9244 16.7706 15.0217 16.8383 15.1292 16.8853C15.2367 16.9323 15.3524 16.9577 15.4698 16.9599C15.5871 16.9622 15.7037 16.9414 15.813 16.8986C15.9223 16.8558 16.022 16.7919 16.1066 16.7105C16.1912 16.6292 16.2589 16.5319 16.3059 16.4244C16.3529 16.3169 16.3782 16.2012 16.3805 16.0838C16.3828 15.9665 16.3619 15.8499 16.3191 15.7406C16.2763 15.6313 16.2124 15.5316 16.1311 15.447V15.447ZM6.85009 1.78101C7.85146 1.78101 8.83034 2.07794 9.66295 2.63427C10.4956 3.1906 11.1445 3.98134 11.5277 4.90648C11.9109 5.83162 12.0112 6.84962 11.8158 7.83175C11.6205 8.81387 11.1382 9.71601 10.4302 10.4241C9.7221 11.1322 8.81996 11.6144 7.83784 11.8097C6.85571 12.0051 5.83771 11.9048 4.91257 11.5216C3.98742 11.1384 3.19669 10.4895 2.64036 9.65686C2.08403 8.82425 1.78709 7.84537 1.78709 6.84401C1.78868 5.5017 2.32261 4.21483 3.27177 3.26568C4.22092 2.31652 5.50779 1.78259 6.85009 1.78101V1.78101Z" fill="white"/>
</svg>
