<?xml version="1.0" encoding="utf-8"?>
<!-- Generator: Adobe Illustrator 16.0.0, SVG Export Plug-In . SVG Version: 6.00 Build 0)  -->
<!DOCTYPE svg PUBLIC "-//W3C//DTD SVG 1.1//EN" "http://www.w3.org/Graphics/SVG/1.1/DTD/svg11.dtd">
<svg version="1.1" id="Layer_1" xmlns="http://www.w3.org/2000/svg" xmlns:xlink="http://www.w3.org/1999/xlink" x="0px" y="0px"
	 width="60px" height="60px" viewBox="0 0 60 60" enable-background="new 0 0 60 60" xml:space="preserve">
<g>
	<path fill="#FFFFFF" d="M32.5,21.152V15H21.074c-1.454,0-2.637,1.183-2.637,2.637v24.727c0,1.454,1.183,2.637,2.637,2.637h17.578
		c1.454,0,2.637-1.183,2.637-2.637V23.789h-6.152C33.683,23.789,32.5,22.606,32.5,21.152z M31.621,39.668H24.59
		c-0.486,0-0.879-0.394-0.879-0.879s0.393-0.879,0.879-0.879h7.031c0.486,0,0.879,0.394,0.879,0.879S32.107,39.668,31.621,39.668z
		 M35.137,36.152H24.59c-0.486,0-0.879-0.394-0.879-0.879s0.393-0.879,0.879-0.879h10.547c0.486,0,0.879,0.394,0.879,0.879
		S35.623,36.152,35.137,36.152z M35.137,32.637H24.59c-0.486,0-0.879-0.394-0.879-0.879s0.393-0.879,0.879-0.879h10.547
		c0.486,0,0.879,0.394,0.879,0.879S35.623,32.637,35.137,32.637z M36.016,28.242c0,0.485-0.393,0.879-0.879,0.879H24.59
		c-0.486,0-0.879-0.394-0.879-0.879s0.393-0.879,0.879-0.879h10.547C35.623,27.363,36.016,27.757,36.016,28.242z"/>
	<path fill="#FFFFFF" d="M34.524,22.819h6.765L33.47,15v6.765C33.47,22.347,33.942,22.819,34.524,22.819z"/>
</g>
</svg>
