<?xml version="1.0" encoding="UTF-8"?>
<svg width="30px" height="30px" viewBox="0 0 30 30" version="1.1" xmlns="http://www.w3.org/2000/svg" xmlns:xlink="http://www.w3.org/1999/xlink">
    <!-- Generator: Sketch 53.2 (72643) - https://sketchapp.com -->
    <title>Group 8</title>
    <desc>Created with Sketch.</desc>
    <g id="email" color="#b54949" stroke="none" stroke-width="1" fill="none" fill-rule="evenodd">
        <g id="page-1" transform="translate(-479.000000, -877.000000)" fill="#b54949">
            <g id="Group-2" transform="translate(-60.000000, 852.000000)">
                <g id="Mute" transform="translate(536.000000, 21.000000)">
                    <g id="Group" transform="translate(6.000000, 0.000000)">
                        <g id="Group-8" transform="translate(0.000000, 5.000000)">
                            <path d="M12,17.1428571 C14.3714286,17.1428571 16.2714286,15.2285714 16.2714286,12.8571429 L16.2857143,4.28571429 C16.2857143,1.91428571 14.3714286,0 12,0 C9.62857143,0 7.71428571,1.91428571 7.71428571,4.28571429 L7.71428571,12.8571429 C7.71428571,15.2285714 9.62857143,17.1428571 12,17.1428571 Z M10.2857143,4.14285714 C10.2857143,3.2 11.0571429,2.42857143 12,2.42857143 C12.9428571,2.42857143 13.7142857,3.2 13.7142857,4.14285714 L13.7,13 C13.7,13.9428571 12.9428571,14.7142857 12,14.7142857 C11.0571429,14.7142857 10.2857143,13.9428571 10.2857143,13 L10.2857143,4.14285714 Z M19.5714286,12.8571429 C19.5714286,17.1428571 15.9428571,20.1428571 12,20.1428571 C8.05714286,20.1428571 4.42857143,17.1428571 4.42857143,12.8571429 L2,12.8571429 C2,17.7285714 5.88571429,21.7571429 10.5714286,22.4571429 L10.5714286,27.1428571 L13.4285714,27.1428571 L13.4285714,22.4571429 C18.1142857,21.7714286 22,17.7428571 22,12.8571429 L19.5714286,12.8571429 Z" id="Shape" fill-rule="nonzero"></path>
                            <rect id="Rectangle" stroke="#141519" stroke-width="2" transform="translate(12.000000, 14.000000) rotate(45.000000) translate(-12.000000, -14.000000) " x="10" y="-2" width="4" height="32"></rect>
                        </g>
                    </g>
                </g>
            </g>
        </g>
    </g>
</svg>