<svg xmlns="http://www.w3.org/2000/svg" width="20" height="28" viewBox="0 0 20 28">
    <path fill="#FFF" d="M10 17.143c2.371 0 4.271-1.914 4.271-4.286l.015-8.571C14.286 1.914 12.37 0 10 0 7.629 0 5.714 1.914 5.714 4.286v8.571c0 2.372 1.915 4.286 4.286 4.286zm-1.714-13c0-.943.771-1.714 1.714-1.714s1.714.771 1.714 1.714L11.7 13c0 .943-.757 1.714-1.7 1.714S8.286 13.943 8.286 13V4.143zm9.285 8.714c0 4.286-3.628 7.286-7.571 7.286-3.943 0-7.571-3-7.571-7.286H0c0 4.872 3.886 8.9 8.571 9.6v4.686h2.858v-4.686c4.685-.686 8.571-4.714 8.571-9.6h-2.429z"/>
</svg>
