<?xml version="1.0" encoding="UTF-8"?>
<svg width="254px" height="85px" viewBox="0 0 254 85" version="1.1" xmlns="http://www.w3.org/2000/svg" xmlns:xlink="http://www.w3.org/1999/xlink">
    <!-- Generator: Sketch 53.2 (72643) - https://sketchapp.com -->
    <title>Group</title>
    <desc>Created with Sketch.</desc>
    <g id="Page-2" stroke="none" stroke-width="1" fill="none" fill-rule="evenodd">
        <g id="1.0-Launch-screen" transform="translate(-62.000000, -358.000000)">
            <g id="Group" transform="translate(62.000000, 358.000000)">
                <path d="M29.292,84 L29.2,66.934 L20.92,80.826 L16.872,80.826 L8.638,67.394 L8.638,84 L0.22,84 L0.22,51.8 L7.718,51.8 L19.034,70.384 L30.074,51.8 L37.572,51.8 L37.664,84 L29.292,84 Z M67.7365,71.58 C67.7365,71.6413336 67.6905005,72.3619931 67.5985,73.742 L49.4745,73.742 C49.8425018,75.0300064 50.5554947,76.0189965 51.6135,76.709 C52.6715053,77.3990034 53.9978254,77.744 55.5925,77.744 C56.788506,77.744 57.8234956,77.575335 58.6975,77.238 C59.5715044,76.900665 60.4531622,76.3486705 61.3425,75.582 L65.9425,80.366 C63.5198212,83.0646802 59.9778566,84.414 55.3165,84.414 C52.4031521,84.414 49.842511,83.8620055 47.6345,82.758 C45.426489,81.6539945 43.7168394,80.1206765 42.5055,78.158 C41.2941606,76.1953235 40.6885,73.9720124 40.6885,71.488 C40.6885,69.0346544 41.2788274,66.8343431 42.4595,64.887 C43.6401726,62.9396569 45.2731562,61.4140055 47.3585,60.31 C49.4438438,59.2059945 51.7898203,58.654 54.3965,58.654 C56.8805124,58.654 59.1344899,59.1676615 61.1585,60.195 C63.1825101,61.2223385 64.7848274,62.7096569 65.9655,64.657 C67.1461726,66.6043431 67.7365,68.9119867 67.7365,71.58 Z M54.4425,64.864 C53.0931599,64.864 51.9661712,65.2473295 51.0615,66.014 C50.1568288,66.7806705 49.5818346,67.8233267 49.3365,69.142 L59.5485,69.142 C59.3031654,67.8233267 58.7281712,66.7806705 57.8235,66.014 C56.9188288,65.2473295 55.7918401,64.864 54.4425,64.864 Z M102.823,58.654 C105.889682,58.654 108.335324,59.5739908 110.16,61.414 C111.984676,63.2540092 112.897,66.0293148 112.897,69.74 L112.897,84 L104.157,84 L104.157,71.166 C104.157,69.4179913 103.827337,68.1300041 103.168,67.302 C102.508663,66.4739959 101.581006,66.06 100.385,66.06 C99.0663267,66.06 98.0083373,66.5199954 97.211,67.44 C96.4136627,68.3600046 96.015,69.755324 96.015,71.626 L96.015,84 L87.275,84 L87.275,71.166 C87.275,67.761983 86.0176792,66.06 83.503,66.06 C82.1536599,66.06 81.0803373,66.5199954 80.283,67.44 C79.4856627,68.3600046 79.087,69.755324 79.087,71.626 L79.087,84 L70.347,84 L70.347,59.068 L78.673,59.068 L78.673,61.69 C79.5930046,60.6779949 80.689327,59.9190025 81.962,59.413 C83.234673,58.9069975 84.6223258,58.654 86.125,58.654 C87.8730087,58.654 89.4369931,58.9759968 90.817,59.62 C92.1970069,60.2640032 93.316329,61.2453267 94.175,62.564 C95.1563382,61.3066604 96.3983258,60.34067 97.901,59.666 C99.4036742,58.99133 101.044324,58.654 102.823,58.654 Z M129.8595,84.414 C127.191487,84.414 124.784177,83.8620055 122.6375,82.758 C120.490823,81.6539945 118.811839,80.1206765 117.6005,78.158 C116.389161,76.1953235 115.7835,73.9720124 115.7835,71.488 C115.7835,69.0346544 116.389161,66.8266765 117.6005,64.864 C118.811839,62.9013235 120.483156,61.3756721 122.6145,60.287 C124.745844,59.1983279 127.16082,58.654 129.8595,58.654 C132.55818,58.654 134.980823,59.1983279 137.1275,60.287 C139.274177,61.3756721 140.945494,62.8936569 142.1415,64.841 C143.337506,66.7883431 143.9355,69.0039876 143.9355,71.488 C143.9355,73.9720124 143.337506,76.1953235 142.1415,78.158 C140.945494,80.1206765 139.274177,81.6539945 137.1275,82.758 C134.980823,83.8620055 132.55818,84.414 129.8595,84.414 Z M129.8595,77.468 C131.392841,77.468 132.650162,76.9390053 133.6315,75.881 C134.612838,74.8229947 135.1035,73.358676 135.1035,71.488 C135.1035,69.6479908 134.612838,68.2066719 133.6315,67.164 C132.650162,66.1213281 131.392841,65.6 129.8595,65.6 C128.326159,65.6 127.068838,66.1213281 126.0875,67.164 C125.106162,68.2066719 124.6155,69.6479908 124.6155,71.488 C124.6155,73.358676 125.106162,74.8229947 126.0875,75.881 C127.068838,76.9390053 128.326159,77.468 129.8595,77.468 Z M154.872,62.058 C155.761338,60.9233277 156.918993,60.0723362 158.345,59.505 C159.771007,58.9376638 161.403991,58.654 163.244,58.654 L163.244,66.52 C162.446663,66.4279995 161.787336,66.382 161.266,66.382 C159.395324,66.382 157.931005,66.8879949 156.873,67.9 C155.814995,68.9120051 155.286,70.4606562 155.286,72.546 L155.286,84 L146.546,84 L146.546,59.068 L154.872,59.068 L154.872,62.058 Z M165.3945,59.068 L174.1345,59.068 L174.1345,84 L165.3945,84 L165.3945,59.068 Z M169.7645,56.308 C168.169825,56.308 166.881838,55.8633378 165.9005,54.974 C164.919162,54.0846622 164.4285,52.9806733 164.4285,51.662 C164.4285,50.3433267 164.919162,49.2393378 165.9005,48.35 C166.881838,47.4606622 168.169825,47.016 169.7645,47.016 C171.359175,47.016 172.647162,47.4376624 173.6285,48.281 C174.609838,49.1243375 175.1005,50.2053267 175.1005,51.524 C175.1005,52.9040069 174.609838,54.0463288 173.6285,54.951 C172.647162,55.8556712 171.359175,56.308 169.7645,56.308 Z M188.981,58.654 C193.121021,58.654 196.279656,59.5969906 198.457,61.483 C200.634344,63.3690094 201.723,66.2593139 201.723,70.154 L201.723,84 L193.581,84 L193.581,80.78 C192.32366,83.2026788 189.870352,84.414 186.221,84.414 C184.28899,84.414 182.617674,84.07667 181.207,83.402 C179.796326,82.72733 178.73067,81.8150057 178.01,80.665 C177.28933,79.5149943 176.929,78.2040074 176.929,76.732 C176.929,74.3706549 177.833658,72.5383398 179.643,71.235 C181.452342,69.9316601 184.242981,69.28 188.015,69.28 L192.983,69.28 C192.829666,66.6426535 191.06635,65.324 187.693,65.324 C186.496994,65.324 185.285673,65.5156647 184.059,65.899 C182.832327,66.2823353 181.789671,66.81133 180.931,67.486 L177.987,61.552 C179.367007,60.6319954 181.04599,59.9190025 183.024,59.413 C185.00201,58.9069975 186.987657,58.654 188.981,58.654 Z M188.659,78.894 C189.671005,78.894 190.56033,78.6486691 191.327,78.158 C192.093671,77.6673309 192.645665,76.9466714 192.983,75.996 L192.983,73.834 L189.211,73.834 C186.665654,73.834 185.393,74.6773249 185.393,76.364 C185.393,77.1306705 185.68433,77.7439977 186.267,78.204 C186.84967,78.6640023 187.646995,78.894 188.659,78.894 Z" id="Memoria" fill="#040406" fill-rule="nonzero"></path>
                <path d="M232,0 L254,0 L254,22 C254,38.5685425 240.568542,52 224,52 L202,52 L202,30 C202,13.4314575 215.431458,-4.06183548e-15 232,-7.10542736e-15 Z" id="Rectangle" fill="#00C7CC"></path>
            </g>
        </g>
    </g>
</svg>