<svg width="254" height="85" viewBox="0 0 254 85" fill="none" xmlns="http://www.w3.org/2000/svg">
<path d="M29.292 84L29.2 66.934L20.92 80.826H16.872L8.638 67.394V84H0.220001V51.8H7.718L19.034 70.384L30.074 51.8H37.572L37.664 84H29.292ZM67.7365 71.58C67.7365 71.6413 67.6905 72.362 67.5985 73.742H49.4745C49.8425 75.03 50.5555 76.019 51.6135 76.709C52.6715 77.399 53.9978 77.744 55.5925 77.744C56.7885 77.744 57.8235 77.5753 58.6975 77.238C59.5715 76.9007 60.4532 76.3487 61.3425 75.582L65.9425 80.366C63.5198 83.0647 59.9779 84.414 55.3165 84.414C52.4032 84.414 49.8425 83.862 47.6345 82.758C45.4265 81.654 43.7168 80.1207 42.5055 78.158C41.2942 76.1953 40.6885 73.972 40.6885 71.488C40.6885 69.0346 41.2788 66.8343 42.4595 64.887C43.6402 62.9397 45.2732 61.414 47.3585 60.31C49.4438 59.206 51.7898 58.654 54.3965 58.654C56.8805 58.654 59.1345 59.1677 61.1585 60.195C63.1825 61.2223 64.7848 62.7096 65.9655 64.657C67.1462 66.6043 67.7365 68.912 67.7365 71.58ZM54.4425 64.864C53.0932 64.864 51.9662 65.2473 51.0615 66.014C50.1568 66.7807 49.5818 67.8233 49.3365 69.142H59.5485C59.3032 67.8233 58.7282 66.7807 57.8235 66.014C56.9188 65.2473 55.7918 64.864 54.4425 64.864ZM102.823 58.654C105.89 58.654 108.335 59.574 110.16 61.414C111.985 63.254 112.897 66.0293 112.897 69.74V84H104.157V71.166C104.157 69.418 103.827 68.13 103.168 67.302C102.509 66.474 101.581 66.06 100.385 66.06C99.0663 66.06 98.0083 66.52 97.211 67.44C96.4137 68.36 96.015 69.7553 96.015 71.626V84H87.275V71.166C87.275 67.762 86.0177 66.06 83.503 66.06C82.1537 66.06 81.0803 66.52 80.283 67.44C79.4857 68.36 79.087 69.7553 79.087 71.626V84H70.347V59.068H78.673V61.69C79.593 60.678 80.6893 59.919 81.962 59.413C83.2347 58.907 84.6223 58.654 86.125 58.654C87.873 58.654 89.437 58.976 90.817 59.62C92.197 60.264 93.3163 61.2453 94.175 62.564C95.1563 61.3067 96.3983 60.3407 97.901 59.666C99.4037 58.9913 101.044 58.654 102.823 58.654ZM129.859 84.414C127.191 84.414 124.784 83.862 122.637 82.758C120.491 81.654 118.812 80.1207 117.601 78.158C116.389 76.1953 115.784 73.972 115.784 71.488C115.784 69.0346 116.389 66.8267 117.601 64.864C118.812 62.9013 120.483 61.3757 122.615 60.287C124.746 59.1983 127.161 58.654 129.859 58.654C132.558 58.654 134.981 59.1983 137.128 60.287C139.274 61.3757 140.945 62.8937 142.141 64.841C143.338 66.7883 143.936 69.004 143.936 71.488C143.936 73.972 143.338 76.1953 142.141 78.158C140.945 80.1207 139.274 81.654 137.128 82.758C134.981 83.862 132.558 84.414 129.859 84.414ZM129.859 77.468C131.393 77.468 132.65 76.939 133.632 75.881C134.613 74.823 135.104 73.3587 135.104 71.488C135.104 69.648 134.613 68.2067 133.632 67.164C132.65 66.1213 131.393 65.6 129.859 65.6C128.326 65.6 127.069 66.1213 126.088 67.164C125.106 68.2067 124.616 69.648 124.616 71.488C124.616 73.3587 125.106 74.823 126.088 75.881C127.069 76.939 128.326 77.468 129.859 77.468ZM154.872 62.058C155.761 60.9233 156.919 60.0723 158.345 59.505C159.771 58.9377 161.404 58.654 163.244 58.654V66.52C162.447 66.428 161.787 66.382 161.266 66.382C159.395 66.382 157.931 66.888 156.873 67.9C155.815 68.912 155.286 70.4606 155.286 72.546V84H146.546V59.068H154.872V62.058ZM165.395 59.068H174.135V84H165.395V59.068ZM169.764 56.308C168.17 56.308 166.882 55.8633 165.9 54.974C164.919 54.0847 164.428 52.9807 164.428 51.662C164.428 50.3433 164.919 49.2393 165.9 48.35C166.882 47.4607 168.17 47.016 169.764 47.016C171.359 47.016 172.647 47.4377 173.628 48.281C174.61 49.1243 175.1 50.2053 175.1 51.524C175.1 52.904 174.61 54.0463 173.628 54.951C172.647 55.8557 171.359 56.308 169.764 56.308ZM188.981 58.654C193.121 58.654 196.28 59.597 198.457 61.483C200.634 63.369 201.723 66.2593 201.723 70.154V84H193.581V80.78C192.324 83.2027 189.87 84.414 186.221 84.414C184.289 84.414 182.618 84.0767 181.207 83.402C179.796 82.7273 178.731 81.815 178.01 80.665C177.289 79.515 176.929 78.204 176.929 76.732C176.929 74.3706 177.834 72.5383 179.643 71.235C181.452 69.9317 184.243 69.28 188.015 69.28H192.983C192.83 66.6426 191.066 65.324 187.693 65.324C186.497 65.324 185.286 65.5157 184.059 65.899C182.832 66.2823 181.79 66.8113 180.931 67.486L177.987 61.552C179.367 60.632 181.046 59.919 183.024 59.413C185.002 58.907 186.988 58.654 188.981 58.654ZM188.659 78.894C189.671 78.894 190.56 78.6487 191.327 78.158C192.094 77.6673 192.646 76.9467 192.983 75.996V73.834H189.211C186.666 73.834 185.393 74.6773 185.393 76.364C185.393 77.1307 185.684 77.744 186.267 78.204C186.85 78.664 187.647 78.894 188.659 78.894Z" fill="white"/>
<path fill-rule="evenodd" clip-rule="evenodd" d="M232 0H254V22C254 38.5685 240.569 52 224 52H202V30C202 13.4315 215.431 0 232 0V0Z" fill="#00C7CC"/>
</svg>
