<svg xmlns="http://www.w3.org/2000/svg" width="130" height="44" viewBox="0 0 130 44">
    <g fill="none" fill-rule="evenodd">
        <path fill="#FFF" fill-rule="nonzero" d="M14.933 42.824l-.047-8.7-4.22 7.081H8.6l-4.197-6.847v8.466H.112V26.408h3.823l5.769 9.474 5.628-9.474h3.822l.047 16.416h-4.268zm19.6-6.332c0 .031-.024.398-.071 1.102h-9.24c.188.657.551 1.16 1.09 1.513.54.351 1.216.527 2.03.527.609 0 1.137-.086 1.582-.258.446-.172.895-.453 1.349-.844l2.345 2.439c-1.235 1.376-3.041 2.064-5.417 2.064-1.486 0-2.791-.282-3.917-.845-1.125-.562-1.997-1.344-2.615-2.345-.617-1-.926-2.134-.926-3.4 0-1.25.301-2.373.903-3.365.602-.993 1.434-1.77 2.498-2.334 1.063-.563 2.259-.844 3.588-.844 1.266 0 2.415.262 3.447.786 1.032.523 1.849 1.282 2.45 2.274.602.993.903 2.17.903 3.53zm-6.778-3.424c-.688 0-1.262.195-1.724.586-.46.391-.754.923-.88 1.595h5.207c-.125-.672-.418-1.204-.88-1.595-.46-.39-1.035-.586-1.723-.586zm24.665-3.166c1.563 0 2.81.47 3.74 1.407.93.938 1.395 2.353 1.395 4.245v7.27H53.1V36.28c0-.891-.168-1.548-.505-1.97-.336-.422-.809-.633-1.418-.633-.673 0-1.212.234-1.618.703-.407.47-.61 1.18-.61 2.134v6.309h-4.456V36.28c0-1.736-.64-2.603-1.923-2.603-.688 0-1.235.234-1.641.703-.407.47-.61 1.18-.61 2.134v6.309h-4.456v-12.71h4.245v1.336c.469-.516 1.028-.903 1.677-1.161.648-.258 1.356-.387 2.122-.387.891 0 1.688.164 2.392.493.703.328 1.274.828 1.712 1.5.5-.64 1.133-1.133 1.9-1.477.765-.344 1.602-.516 2.509-.516zm13.783 13.133c-1.36 0-2.588-.282-3.682-.845-1.094-.562-1.95-1.344-2.568-2.345-.617-1-.926-2.134-.926-3.4 0-1.25.309-2.376.926-3.377.618-1 1.47-1.778 2.556-2.333 1.087-.555 2.318-.833 3.694-.833s2.61.278 3.705.833c1.095.555 1.947 1.328 2.556 2.321.61.993.915 2.123.915 3.389 0 1.266-.305 2.4-.915 3.4-.61 1-1.461 1.783-2.556 2.345-1.094.563-2.33.845-3.705.845zm0-3.542c.782 0 1.423-.27 1.923-.809s.75-1.285.75-2.24c0-.937-.25-1.672-.75-2.204-.5-.531-1.141-.797-1.923-.797s-1.423.266-1.923.797c-.5.532-.75 1.267-.75 2.205 0 .954.25 1.7.75 2.24.5.539 1.141.808 1.923.808zm12.751-7.856c.454-.578 1.044-1.012 1.77-1.301.728-.29 1.56-.434 2.498-.434v4.01c-.406-.047-.742-.07-1.008-.07-.954 0-1.7.258-2.24.774-.539.516-.809 1.305-.809 2.368v5.84H74.71v-12.71h4.244v1.523zm5.365-1.524h4.455v12.71H84.32v-12.71zm2.228-1.407c-.813 0-1.47-.227-1.97-.68-.5-.453-.75-1.016-.75-1.689 0-.672.25-1.235.75-1.688.5-.453 1.157-.68 1.97-.68s1.47.215 1.97.645c.5.43.75.98.75 1.653 0 .704-.25 1.286-.75 1.747-.5.461-1.157.692-1.97.692zm9.796 1.196c2.11 0 3.721.48 4.831 1.442 1.11.962 1.665 2.435 1.665 4.42v7.06h-4.15v-1.642c-.642 1.235-1.892 1.853-3.753 1.853-.985 0-1.837-.172-2.556-.516-.72-.344-1.262-.81-1.63-1.396-.367-.586-.55-1.254-.55-2.005 0-1.204.46-2.138 1.383-2.802.922-.665 2.345-.997 4.268-.997h2.532c-.078-1.344-.977-2.017-2.696-2.017-.61 0-1.228.098-1.853.294-.625.195-1.157.465-1.595.809l-1.5-3.026c.703-.469 1.559-.832 2.567-1.09 1.009-.258 2.021-.387 3.037-.387zM96.18 40.22c.516 0 .97-.125 1.36-.375.391-.25.673-.617.844-1.102v-1.102h-1.922c-1.298 0-1.947.43-1.947 1.29 0 .39.149.703.446.938.297.234.703.351 1.22.351z"/>
        <path fill="#00C7CC" d="M129.49 0c0 14.641-11.869 26.51-26.51 26.51C102.98 11.869 114.85 0 129.49 0z"/>
    </g>
</svg>
