<svg xmlns="http://www.w3.org/2000/svg" width="26" height="26" viewBox="0 0 26 26">
    <g fill="#FFF" stroke="#FFF" stroke-width=".3">
        <path d="M10.325 0H.905C.409 0 0 .408 0 .906v9.42c0 .497.408.905.906.905h9.42c.497 0 .905-.408.905-.906V.905c0-.497-.408-.905-.906-.905zM9.42 9.42H1.811V1.81H9.42V9.42zM23.548 0H14.13c-.498 0-.906.408-.906.906v9.42c0 .497.408.905.906.905h9.42c.498 0 .905-.408.905-.906V.905c0-.497-.407-.905-.906-.905zm-.905 9.42h-7.608V1.81h7.608V9.42zM10.325 13.223H.905c-.497 0-.905.408-.905.906v9.42c0 .498.408.905.906.905h9.42c.497 0 .905-.407.905-.906V14.13c0-.498-.408-.906-.906-.906zm-.906 9.42H1.811v-7.608H9.42v7.608zM23.548 13.223H14.13c-.498 0-.906.408-.906.906v9.42c0 .498.408.905.906.905h9.42c.498 0 .905-.407.905-.906V14.13c0-.498-.407-.906-.906-.906zm-.905 9.42h-7.608v-7.608h7.608v7.608z" transform="translate(.524 1)"/>
    </g>
</svg>
