<svg xmlns="http://www.w3.org/2000/svg" width="28" height="28" viewBox="0 0 28 28">
    <path fill="none" stroke="#FFF" stroke-linecap="round" stroke-linejoin="round" stroke-width="2.5" d="M8.007 21.464L1.87 27.6l.001-3.02.011-19.65c0-1.891 1.532-3.433 3.423-3.433h17.467c1.891 0 3.433 1.542 3.433 3.433v13.1c0 1.892-1.542 3.434-3.433 3.434H8.007zm.574-9.825h10.917c-.088 0-.158-.071-.158-.159 0-.087.07-.158.158-.158H8.58c.087 0 .158.07.158.158s-.07.159-.158.159zm6.55 2.958h-6.55c.087 0 .158.071.158.158 0 .088-.07.159-.158.159h6.55c-.087 0-.158-.071-.158-.159 0-.087.07-.158.158-.158zm4.367-6.55H8.58c.087 0 .158.07.158.158s-.07.159-.158.159h10.917c-.088 0-.158-.071-.158-.159 0-.087.07-.158.158-.158z"/>
</svg>
