<svg xmlns="http://www.w3.org/2000/svg" width="26" height="26" viewBox="0 0 26 26">
    <g fill="#FFF" stroke="#FFF" stroke-width=".3" transform="translate(.546 1)">
        <circle cx="12.227" cy="18.078" r="1.194"/>
        <path d="M12.227 0C5.47 0 0 5.469 0 12.227s5.469 12.227 12.227 12.227 12.227-5.468 12.227-12.227C24.454 5.47 18.986 0 12.227 0zm0 22.544c-5.702 0-10.317-4.614-10.317-10.317C1.91 6.525 6.525 1.91 12.227 1.91s10.317 4.615 10.317 10.317-4.614 10.317-10.317 10.317z"/>
        <path d="M12.227 6.137c-2.107 0-3.82 1.715-3.82 3.821 0 .528.427.956.954.956.528 0 .956-.428.956-.956 0-1.053.857-1.91 1.91-1.91 1.054 0 1.91.857 1.91 1.91 0 1.054-.856 1.91-1.91 1.91-.528 0-.955.429-.955.956v2.388c0 .528.427.955.955.955s.955-.427.955-.955v-1.554c1.646-.425 2.866-1.922 2.866-3.7 0-2.106-1.714-3.82-3.82-3.82z"/>
    </g>
</svg>
