<?xml version="1.0" encoding="UTF-8"?>
<svg width="26px" height="26px" viewBox="0 0 26 26" version="1.1" xmlns="http://www.w3.org/2000/svg" xmlns:xlink="http://www.w3.org/1999/xlink">
    <!-- Generator: Sketch 53.2 (72643) - https://sketchapp.com -->
    <title>menu</title>
    <desc>Created with Sketch.</desc>
    <g id="email" stroke="none" stroke-width="1" fill="none" fill-rule="evenodd">
        <g id="page-1" transform="translate(-1169.000000, -32.000000)" fill="#00C7CC" fill-rule="nonzero" stroke="#00C7CC" stroke-width="0.3">
            <g id="Group-5" transform="translate(1049.000000, 33.000000)">
                <g id="menu" transform="translate(120.524017, 0.000000)">
                    <path d="M10.3250849,0 L0.905709203,0 C0.407569141,0 0,0.407569141 0,0.905709203 L0,10.3250849 C0,10.823225 0.407569141,11.2307941 0.905709203,11.2307941 L10.3250849,11.2307941 C10.823225,11.2307941 11.2307941,10.823225 11.2307941,10.3250849 L11.2307941,0.905709203 C11.2307941,0.407569141 10.823225,0 10.3250849,0 Z M9.41937571,9.41937571 L1.81141841,9.41937571 L1.81141841,1.81141841 L9.41937571,1.81141841 L9.41937571,9.41937571 Z" id="Shape"></path>
                    <path d="M23.5484393,0 L14.1290636,0 C13.6309235,0 13.2233544,0.407569141 13.2233544,0.905709203 L13.2233544,10.3250849 C13.2233544,10.823225 13.6309235,11.2307941 14.1290636,11.2307941 L23.5484393,11.2307941 C24.0465793,11.2307941 24.4541485,10.823225 24.4541485,10.3250849 L24.4541485,0.905709203 C24.4541485,0.407569141 24.0465793,0 23.5484393,0 Z M22.6427301,9.41937571 L15.0347728,9.41937571 L15.0347728,1.81141841 L22.6427301,1.81141841 L22.6427301,9.41937571 Z" id="Shape"></path>
                    <path d="M10.3250849,13.2233544 L0.905709203,13.2233544 C0.407569141,13.2233544 0,13.6309235 0,14.1290636 L0,23.5484393 C0,24.0465793 0.407569141,24.4541485 0.905709203,24.4541485 L10.3250849,24.4541485 C10.823225,24.4541485 11.2307941,24.0465793 11.2307941,23.5484393 L11.2307941,14.1290636 C11.2307941,13.6309235 10.823225,13.2233544 10.3250849,13.2233544 Z M9.41937571,22.6427301 L1.81141841,22.6427301 L1.81141841,15.0347728 L9.41937571,15.0347728 L9.41937571,22.6427301 Z" id="Shape"></path>
                    <path d="M23.5484393,13.2233544 L14.1290636,13.2233544 C13.6309235,13.2233544 13.2233544,13.6309235 13.2233544,14.1290636 L13.2233544,23.5484393 C13.2233544,24.0465793 13.6309235,24.4541485 14.1290636,24.4541485 L23.5484393,24.4541485 C24.0465793,24.4541485 24.4541485,24.0465793 24.4541485,23.5484393 L24.4541485,14.1290636 C24.4541485,13.6309235 24.0465793,13.2233544 23.5484393,13.2233544 Z M22.6427301,22.6427301 L15.0347728,22.6427301 L15.0347728,15.0347728 L22.6427301,15.0347728 L22.6427301,22.6427301 Z" id="Shape"></path>
                </g>
            </g>
        </g>
    </g>
</svg>