<?xml version="1.0" encoding="UTF-8"?>
<svg width="38px" height="24px" viewBox="0 0 38 24" version="1.1" xmlns="http://www.w3.org/2000/svg" xmlns:xlink="http://www.w3.org/1999/xlink">
    <!-- Generator: Sketch 53.2 (72643) - https://sketchapp.com -->
    <title>Shape</title>
    <desc>Created with Sketch.</desc>
    <g id="email" stroke="none" stroke-width="1" fill="none" fill-rule="evenodd">
        <g id="page-1" transform="translate(-1049.000000, -33.000000)" fill="#FFFFFF" fill-rule="nonzero">
            <g id="Group-5" transform="translate(1049.000000, 33.000000)">
                <path d="M26.2831057,13.5654739 C24.2482846,13.5654739 21.0773551,14.1420066 18.6525266,15.2611582 C16.2276982,14.1250497 13.0567686,13.5654739 11.0219476,13.5654739 C7.34231276,13.5654739 1.77635684e-13,15.3968129 1.77635684e-13,19.0764477 L1.77635684e-13,23.7395794 L37.3050533,23.7395794 L37.3050533,19.0764477 C37.3050533,15.3968129 29.9627405,13.5654739 26.2831057,13.5654739 Z M19.5003688,21.196053 L2.54352636,21.196053 L2.54352636,19.0764477 C2.54352636,18.1607782 6.88447801,16.1090003 11.0219476,16.1090003 C15.1594171,16.1090003 19.5003688,18.1607782 19.5003688,19.0764477 L19.5003688,21.196053 Z M34.7615269,21.196053 L22.0438951,21.196053 L22.0438951,19.0764477 C22.0438951,18.2964329 21.7047583,17.6181593 21.1621393,17.0077129 C22.6543414,16.4990077 24.4856804,16.1090003 26.2831057,16.1090003 C30.4205753,16.1090003 34.7615269,18.1607782 34.7615269,19.0764477 L34.7615269,21.196053 Z M11.0219476,11.8697897 C14.2946181,11.8697897 16.9568424,9.20756542 16.9568424,5.93489484 C16.9568424,2.66222426 14.2946181,2.82440737e-13 11.0219476,2.82440737e-13 C7.74927698,2.82440737e-13 5.08705272,2.66222426 5.08705272,5.93489484 C5.08705272,9.20756542 7.74927698,11.8697897 11.0219476,11.8697897 Z M11.0219476,2.54352636 C12.8872002,2.54352636 14.413316,4.06964218 14.413316,5.93489484 C14.413316,7.8001475 12.8872002,9.32626332 11.0219476,9.32626332 C9.15669489,9.32626332 7.63057908,7.8001475 7.63057908,5.93489484 C7.63057908,4.06964218 9.15669489,2.54352636 11.0219476,2.54352636 Z M26.2831057,11.8697897 C29.5557763,11.8697897 32.2180006,9.20756542 32.2180006,5.93489484 C32.2180006,2.66222426 29.5557763,2.82440737e-13 26.2831057,2.82440737e-13 C23.0104351,2.82440737e-13 20.3482109,2.66222426 20.3482109,5.93489484 C20.3482109,9.20756542 23.0104351,11.8697897 26.2831057,11.8697897 Z M26.2831057,2.54352636 C28.1483584,2.54352636 29.6744742,4.06964218 29.6744742,5.93489484 C29.6744742,7.8001475 28.1483584,9.32626332 26.2831057,9.32626332 C24.4178531,9.32626332 22.8917372,7.8001475 22.8917372,5.93489484 C22.8917372,4.06964218 24.4178531,2.54352636 26.2831057,2.54352636 Z" id="Shape"></path>
            </g>
        </g>
    </g>
</svg>