<?xml version="1.0" encoding="UTF-8"?>
<svg width="26px" height="26px" viewBox="0 0 26 26" version="1.1" xmlns="http://www.w3.org/2000/svg" xmlns:xlink="http://www.w3.org/1999/xlink">
    <!-- Generator: Sketch 53.2 (72643) - https://sketchapp.com -->
    <title>question</title>
    <desc>Created with Sketch.</desc>
    <g id="email" stroke="none" stroke-width="1" fill="none" fill-rule="evenodd">
        <g id="page-1" transform="translate(-1224.000000, -32.000000)" fill="#FFFFFF" fill-rule="nonzero" stroke="#FFFFFF" stroke-width="0.3">
            <g id="Group-5" transform="translate(1049.000000, 33.000000)">
                <g id="question" transform="translate(175.545852, 0.000000)">
                    <circle id="Oval" cx="12.2270742" cy="18.0779203" r="1.19405022"></circle>
                    <path d="M12.2270742,0 C5.46951419,0 0,5.46860671 0,12.2270742 C0,18.9846343 5.46860671,24.4541485 12.2270742,24.4541485 C18.9846343,24.4541485 24.4541485,18.9855418 24.4541485,12.2270742 C24.4541485,5.46951419 18.9855418,0 12.2270742,0 Z M12.2270742,22.5436681 C6.52538892,22.5436681 1.91048035,17.9295237 1.91048035,12.2270742 C1.91048035,6.52538892 6.52462473,1.91048035 12.2270742,1.91048035 C17.9287596,1.91048035 22.5436681,6.52462473 22.5436681,12.2270742 C22.5436681,17.9287596 17.9295237,22.5436681 12.2270742,22.5436681 Z" id="Shape"></path>
                    <path d="M12.2270742,6.13741812 C10.1201965,6.13741812 8.40611354,7.85150109 8.40611354,9.95837882 C8.40611354,10.485958 8.83377456,10.913619 9.36135371,10.913619 C9.88893286,10.913619 10.3165939,10.485958 10.3165939,9.95837882 C10.3165939,8.90493996 11.1736354,8.04789847 12.2270742,8.04789847 C13.2805131,8.04789847 14.1375546,8.90493996 14.1375546,9.95837882 C14.1375546,11.0118177 13.2805131,11.8688592 12.2270742,11.8688592 C11.6994951,11.8688592 11.2718341,12.2965202 11.2718341,12.8240993 L11.2718341,15.2121998 C11.2718341,15.7397789 11.6994951,16.16744 12.2270742,16.16744 C12.7546534,16.16744 13.1823144,15.7397789 13.1823144,15.2121998 L13.1823144,13.6584539 C14.8284798,13.2332287 16.0480349,11.7355554 16.0480349,9.95837882 C16.0480349,7.85150109 14.333952,6.13741812 12.2270742,6.13741812 Z" id="Path"></path>
                </g>
            </g>
        </g>
    </g>
</svg>