<svg xmlns="http://www.w3.org/2000/svg" width="38" height="24" viewBox="0 0 38 24">
    <path fill="#FFF" d="M26.283 13.565c-2.035 0-5.206.577-7.63 1.696-2.425-1.136-5.596-1.696-7.631-1.696C7.342 13.565 0 15.397 0 19.076v4.664h37.305v-4.664c0-3.68-7.342-5.51-11.022-5.51zM19.5 21.196H2.544v-2.12c0-.915 4.34-2.967 8.478-2.967 4.137 0 8.478 2.052 8.478 2.967v2.12zm15.262 0H22.044v-2.12c0-.78-.34-1.458-.882-2.068 1.492-.509 3.324-.899 5.121-.899 4.138 0 8.479 2.052 8.479 2.967v2.12zm-23.74-9.326c3.273 0 5.935-2.662 5.935-5.935C16.957 2.662 14.295 0 11.022 0 7.749 0 5.087 2.662 5.087 5.935c0 3.273 2.662 5.935 5.935 5.935zm0-9.326c1.865 0 3.391 1.526 3.391 3.39 0 1.866-1.526 3.392-3.391 3.392S7.63 7.8 7.63 5.935s1.526-3.391 3.39-3.391zm15.261 9.326c3.273 0 5.935-2.662 5.935-5.935C32.218 2.662 29.556 0 26.283 0c-3.273 0-5.935 2.662-5.935 5.935 0 3.273 2.662 5.935 5.935 5.935zm0-9.326c1.865 0 3.391 1.526 3.391 3.39 0 1.866-1.526 3.392-3.39 3.392-1.866 0-3.392-1.526-3.392-3.391s1.526-3.391 3.391-3.391z"/>
</svg>
