<?xml version="1.0" encoding="UTF-8"?>
<svg width="36px" height="37px" viewBox="0 0 36 37" version="1.1" xmlns="http://www.w3.org/2000/svg" xmlns:xlink="http://www.w3.org/1999/xlink">
    <!-- Generator: Sketch 53.2 (72643) - https://sketchapp.com -->
    <title>Group 7</title>
    <desc>Created with Sketch.</desc>
    <g id="email" stroke="none" stroke-width="1" fill="none" fill-rule="evenodd">
        <g id="page-1" transform="translate(-570.000000, -870.000000)">
            <g id="Group-2" transform="translate(-60.000000, 852.000000)">
                <g id="Video" transform="translate(609.000000, 21.000000)">
                    <g id="Group-7" transform="translate(22.000000, 0.000000)">
                        <g id="videocam-24px" transform="translate(0.000000, 4.000000)">
                            <polygon id="Path" points="0 0 33 0 33 24 0 24"></polygon>
                            <path d="M25.3333333,9.5 L25.3333333,3.66666667 C25.3333333,2.75 24.5833333,2 23.6666667,2 L3.66666667,2 C2.75,2 2,2.75 2,3.66666667 L2,20.3333333 C2,21.25 2.75,22 3.66666667,22 L23.6666667,22 C24.5833333,22 25.3333333,21.25 25.3333333,20.3333333 L25.3333333,14.5 L32,21.1666667 L32,2.83333333 L25.3333333,9.5 Z" id="Path" stroke="#FFFFFF" stroke-width="2.5" fill-rule="nonzero"></path>
                        </g>
                        <rect id="Rectangle" stroke="#141519" stroke-width="2" fill="#FFFFFF" transform="translate(17.000000, 15.500000) rotate(45.000000) translate(-17.000000, -15.500000) " x="15" y="-6" width="4" height="43"></rect>
                    </g>
                </g>
            </g>
        </g>
    </g>
</svg>